Grandstander-Italic.ufo
<glyph name="exclam" format="2">
  <advance width="708.0"/>
  <unicode hex="0021"/>
  <outline>
    <contour>
      <point x="372.0" y="389.0" type="curve"/>
      <point x="448.625" y="658.0"/>
      <point x="647.875" y="1288.375"/>
      <point x="716.75" y="1462.125" type="curve"/>
      <point x="495.875" y="1472.375" type="line"/>
      <point x="421.0" y="1246.75"/>
      <point x="280.375" y="716.25"/>
      <point x="205.25" y="397.875" type="curve"/>
      <point x="239.75" y="392.875"/>
      <point x="336.375" y="389.0"/>
    </contour>
    <contour>
      <point x="205.5" y="-27.0" type="curve" smooth="yes"/>
      <point x="304.0" y="-27.0"/>
      <point x="395.375" y="48.0"/>
      <point x="395.375" y="146.5" type="curve" smooth="yes"/>
      <point x="395.375" y="219.0"/>
      <point x="340.125" y="271.5"/>
      <point x="260.125" y="271.5" type="curve" smooth="yes"/>
      <point x="156.875" y="271.5"/>
      <point x="64.5" y="200.875"/>
      <point x="64.5" y="95.875" type="curve" smooth="yes"/>
      <point x="64.5" y="26.5"/>
      <point x="116.125" y="-27.0"/>
    </contour>
  </outline>
</glyph>
<glyph name="quotedbl" format="2">
  <advance width="764.0"/>
  <unicode hex="0022"/>
  <outline>
    <contour>
      <point x="443.25" y="1040.625" type="curve"/>
      <point x="481.875" y="1127.0"/>
      <point x="530.0" y="1275.875"/>
      <point x="564.0" y="1400.0" type="curve" smooth="yes"/>
      <point x="570.75" y="1424.25"/>
      <point x="574.375" y="1444.375"/>
      <point x="575.0" y="1457.5" type="curve"/>
      <point x="557.875" y="1460.0"/>
      <point x="538.5" y="1460.75"/>
      <point x="518.75" y="1460.75" type="curve" smooth="yes"/>
      <point x="476.0" y="1460.75"/>
      <point x="440.25" y="1454.75"/>
      <point x="405.375" y="1446.5" type="curve"/>
      <point x="385.375" y="1370.875"/>
      <point x="345.625" y="1160.0"/>
      <point x="336.875" y="1046.375" type="curve"/>
      <point x="352.125" y="1042.0"/>
      <point x="411.25" y="1040.625"/>
    </contour>
    <contour>
      <point x="580.625" y="1042.625" type="curve"/>
      <point x="599.5" y="1042.0"/>
      <point x="638.375" y="1043.25"/>
      <point x="692.125" y="1048.875" type="curve"/>
      <point x="740.625" y="1155.25"/>
      <point x="819.75" y="1338.875"/>
      <point x="840.75" y="1422.75" type="curve" smooth="yes"/>
      <point x="843.375" y="1433.25"/>
      <point x="845.625" y="1443.0"/>
      <point x="846.625" y="1450.875" type="curve"/>
      <point x="806.375" y="1455.375"/>
      <point x="731.75" y="1456.625"/>
      <point x="686.25" y="1456.0" type="curve"/>
      <point x="673.875" y="1419.5"/>
      <point x="646.125" y="1325.0"/>
      <point x="627.125" y="1251.875" type="curve" smooth="yes"/>
      <point x="611.125" y="1192.125"/>
      <point x="587.25" y="1082.5"/>
    </contour>
  </outline>
</glyph>
<glyph name="numbersign" format="2">
  <advance width="1511.0"/>
  <unicode hex="0023"/>
  <outline>
    <contour>
      <point x="150.375" y="858.75" type="curve"/>
      <point x="343.375" y="861.0"/>
      <point x="609.875" y="871.125"/>
      <point x="881.0" y="882.875" type="curve" smooth="yes"/>
      <point x="1117.5" y="893.375"/>
      <point x="1362.0" y="903.75"/>
      <point x="1568.0" y="907.5" type="curve"/>
      <point x="1585.625" y="942.875"/>
      <point x="1621.0" y="1051.875"/>
      <point x="1631.5" y="1089.75" type="curve"/>
      <point x="1407.5" y="1087.875"/>
      <point x="1155.75" y="1073.625"/>
      <point x="900.875" y="1058.25" type="curve" smooth="yes"/>
      <point x="666.625" y="1044.0"/>
      <point x="407.375" y="1028.25"/>
      <point x="204.25" y="1024.875" type="curve"/>
      <point x="195.625" y="1004.125"/>
      <point x="162.875" y="904.625"/>
    </contour>
    <contour>
      <point x="1386.75" y="426.875" type="curve"/>
      <point x="1401.875" y="455.375"/>
      <point x="1445.875" y="565.125"/>
      <point x="1458.25" y="611.125" type="curve"/>
      <point x="1292.875" y="616.75"/>
      <point x="1121.625" y="620.25"/>
      <point x="949.5" y="622.125" type="curve" smooth="yes"/>
      <point x="796.5" y="624.0"/>
      <point x="642.375" y="624.5"/>
      <point x="489.0" y="622.625" type="curve" smooth="yes"/>
      <point x="343.625" y="620.375"/>
      <point x="200.5" y="617.125"/>
      <point x="62.0" y="611.375" type="curve"/>
      <point x="49.0" y="582.0"/>
      <point x="15.0" y="485.875"/>
      <point x="5.875" y="451.75" type="curve"/>
      <point x="85.875" y="456.0"/>
      <point x="175.875" y="457.75"/>
      <point x="272.0" y="457.75" type="curve" smooth="yes"/>
      <point x="430.375" y="457.75"/>
      <point x="608.375" y="456.625"/>
      <point x="784.75" y="449.375" type="curve" smooth="yes"/>
      <point x="992.75" y="441.0"/>
      <point x="1201.5" y="431.75"/>
    </contour>
    <contour>
      <point x="263.875" y="4.75" type="curve"/>
      <point x="306.5" y="4.75"/>
      <point x="426.875" y="12.75"/>
      <point x="461.75" y="19.25" type="curve"/>
      <point x="587.125" y="485.625"/>
      <point x="793.5" y="1186.875"/>
      <point x="888.125" y="1476.25" type="curve"/>
      <point x="828.5" y="1476.25"/>
      <point x="742.375" y="1474.5"/>
      <point x="710.125" y="1468.125" type="curve"/>
      <point x="566.0" y="1058.75"/>
      <point x="384.75" y="456.125"/>
    </contour>
    <contour>
      <point x="816.875" y="71.625" type="curve"/>
      <point x="856.0" y="71.625"/>
      <point x="981.0" y="89.125"/>
      <point x="1016.0" y="95.375" type="curve"/>
      <point x="1067.125" y="385.375"/>
      <point x="1147.75" y="731.625"/>
      <point x="1230.5" y="1040.75" type="curve" smooth="yes"/>
      <point x="1273.875" y="1203.0"/>
      <point x="1317.25" y="1355.375"/>
      <point x="1357.0" y="1483.25" type="curve"/>
      <point x="1316.0" y="1483.25"/>
      <point x="1212.875" y="1476.375"/>
      <point x="1182.5" y="1471.375" type="curve"/>
      <point x="1118.625" y="1279.875"/>
      <point x="1057.125" y="1072.5"/>
      <point x="999.875" y="859.375" type="curve" smooth="yes"/>
      <point x="930.375" y="599.375"/>
      <point x="866.375" y="328.0"/>
    </contour>
  </outline>
</glyph>
<glyph name="dollar" format="2">
  <advance width="1027.0"/>
  <unicode hex="0024"/>
  <anchor x="401.375" y="84.5" name="bottom"/>
  <anchor x="713.5" y="1256.0" name="top"/>
  <outline>
    <contour>
      <point x="422.0" y="-82.0" type="line"/>
      <point x="439.125" y="-24.375"/>
      <point x="476.375" y="96.125"/>
      <point x="491.375" y="140.125" type="curve"/>
      <point x="317.625" y="150.375" type="line"/>
      <point x="302.25" y="116.375"/>
      <point x="243.25" y="-49.375"/>
      <point x="235.5" y="-79.125" type="curve"/>
    </contour>
    <contour>
      <point x="624.0" y="1213.0" type="curve"/>
      <point x="783.75" y="1213.75" type="line"/>
      <point x="796.625" y="1257.75"/>
      <point x="826.75" y="1367.5"/>
      <point x="839.25" y="1414.5" type="curve"/>
      <point x="683.25" y="1408.375" type="line"/>
      <point x="672.75" y="1374.0"/>
      <point x="634.875" y="1248.0"/>
    </contour>
    <component base="s" xOffset="62.5" yOffset="148.25"/>
  </outline>
</glyph>
<glyph name="percent" format="2">
  <advance width="1385.0"/>
  <unicode hex="0025"/>
  <outline>
    <contour>
      <point x="89.875" y="-21.125" type="curve"/>
      <point x="358.875" y="207.25"/>
      <point x="1185.375" y="1023.375"/>
      <point x="1465.25" y="1332.5" type="curve"/>
      <point x="1449.375" y="1363.625"/>
      <point x="1404.875" y="1410.375"/>
      <point x="1366.75" y="1428.125" type="curve"/>
      <point x="1086.375" y="1107.375"/>
      <point x="359.5" y="389.5"/>
      <point x="-5.25" y="58.625" type="curve"/>
      <point x="13.75" y="36.125"/>
      <point x="67.25" y="-5.5"/>
    </contour>
    <contour>
      <point x="954.75" y="233.875" type="curve" smooth="yes"/>
      <point x="883.5" y="233.875"/>
      <point x="851.25" y="270.5"/>
      <point x="851.25" y="327.375" type="curve" smooth="yes"/>
      <point x="851.25" y="425.125"/>
      <point x="932.0" y="509.125"/>
      <point x="1025.375" y="509.125" type="curve" smooth="yes"/>
      <point x="1091.125" y="509.125"/>
      <point x="1130.75" y="477.0"/>
      <point x="1130.75" y="419.625" type="curve" smooth="yes"/>
      <point x="1130.75" y="322.875"/>
      <point x="1053.5" y="233.875"/>
    </contour>
    <contour>
      <point x="933.875" y="117.5" type="curve" smooth="yes"/>
      <point x="1118.875" y="117.5"/>
      <point x="1254.125" y="260.625"/>
      <point x="1254.125" y="441.75" type="curve" smooth="yes"/>
      <point x="1254.125" y="553.5"/>
      <point x="1185.625" y="626.75"/>
      <point x="1049.375" y="626.75" type="curve" smooth="yes"/>
      <point x="879.375" y="626.75"/>
      <point x="722.75" y="469.375"/>
      <point x="722.75" y="296.5" type="curve" smooth="yes"/>
      <point x="722.75" y="179.375"/>
      <point x="810.0" y="117.5"/>
    </contour>
    <contour>
      <point x="498.0" y="785.375" type="curve" smooth="yes"/>
      <point x="674.625" y="785.375"/>
      <point x="825.375" y="940.875"/>
      <point x="825.375" y="1113.875" type="curve" smooth="yes"/>
      <point x="825.375" y="1226.875"/>
      <point x="738.75" y="1293.25"/>
      <point x="610.75" y="1293.25" type="curve" smooth="yes"/>
      <point x="437.375" y="1293.25"/>
      <point x="284.625" y="1149.375"/>
      <point x="284.625" y="977.625" type="curve" smooth="yes"/>
      <point x="284.625" y="861.5"/>
      <point x="359.875" y="785.375"/>
    </contour>
    <contour>
      <point x="524.125" y="914.125" type="curve" smooth="yes"/>
      <point x="457.75" y="914.125"/>
      <point x="418.625" y="942.5"/>
      <point x="418.625" y="999.25" type="curve" smooth="yes"/>
      <point x="418.625" y="1098.875"/>
      <point x="495.75" y="1178.625"/>
      <point x="604.375" y="1178.625" type="curve" smooth="yes"/>
      <point x="661.375" y="1178.625"/>
      <point x="694.125" y="1145.0"/>
      <point x="694.125" y="1089.5" type="curve" smooth="yes"/>
      <point x="694.125" y="995.125"/>
      <point x="626.25" y="914.125"/>
    </contour>
  </outline>
</glyph>
<glyph name="ampersand" format="2">
  <advance width="1395.0"/>
  <unicode hex="0026"/>
  <outline>
    <contour>
      <point x="446.125" y="-106.25" type="curve" smooth="yes"/>
      <point x="721.5" y="-106.25"/>
      <point x="917.0" y="54.125"/>
      <point x="975.625" y="120.125" type="curve"/>
      <point x="998.375" y="78.0"/>
      <point x="1055.625" y="-18.25"/>
      <point x="1086.5" y="-64.5" type="curve"/>
      <point x="1128.0" y="-43.5"/>
      <point x="1199.875" y="21.5"/>
      <point x="1233.625" y="59.25" type="curve"/>
      <point x="1199.25" y="113.875"/>
      <point x="1146.5" y="196.5"/>
      <point x="1107.125" y="251.5" type="curve"/>
      <point x="1184.25" y="328.625"/>
      <point x="1304.875" y="459.25"/>
      <point x="1325.0" y="495.75" type="curve"/>
      <point x="1300.0" y="530.75"/>
      <point x="1235.5" y="575.125"/>
      <point x="1202.375" y="592.875" type="curve"/>
      <point x="1182.0" y="562.0"/>
      <point x="1066.875" y="419.875"/>
      <point x="1017.75" y="373.25" type="curve"/>
      <point x="946.125" y="482.5"/>
      <point x="806.125" y="697.625"/>
      <point x="745.0" y="787.75" type="curve"/>
      <point x="917.0" y="883.625"/>
      <point x="1076.0" y="1013.5"/>
      <point x="1076.0" y="1201.25" type="curve" smooth="yes"/>
      <point x="1076.0" y="1321.75"/>
      <point x="987.875" y="1410.75"/>
      <point x="826.5" y="1410.75" type="curve" smooth="yes"/>
      <point x="617.625" y="1410.75"/>
      <point x="446.125" y="1281.5"/>
      <point x="446.125" y="1081.375" type="curve" smooth="yes"/>
      <point x="446.125" y="983.125"/>
      <point x="499.5" y="888.125"/>
      <point x="540.0" y="837.125" type="curve"/>
      <point x="293.75" y="714.625"/>
      <point x="39.25" y="533.125"/>
      <point x="39.25" y="243.125" type="curve" smooth="yes"/>
      <point x="39.25" y="36.875"/>
      <point x="179.5" y="-106.25"/>
    </contour>
    <contour>
      <point x="476.5" y="50.375" type="curve" smooth="yes"/>
      <point x="318.5" y="50.375"/>
      <point x="225.375" y="132.75"/>
      <point x="225.375" y="263.75" type="curve" smooth="yes"/>
      <point x="225.375" y="491.125"/>
      <point x="433.125" y="613.875"/>
      <point x="615.75" y="717.75" type="curve"/>
      <point x="676.75" y="611.75"/>
      <point x="816.875" y="371.375"/>
      <point x="894.5" y="256.375" type="curve"/>
      <point x="844.625" y="203.5"/>
      <point x="691.625" y="50.375"/>
    </contour>
    <contour>
      <point x="673.625" y="897.75" type="curve"/>
      <point x="640.875" y="945.25"/>
      <point x="612.75" y="1013.375"/>
      <point x="612.75" y="1082.375" type="curve" smooth="yes"/>
      <point x="612.75" y="1194.5"/>
      <point x="695.5" y="1276.25"/>
      <point x="803.625" y="1276.25" type="curve" smooth="yes"/>
      <point x="880.375" y="1276.25"/>
      <point x="911.625" y="1240.625"/>
      <point x="911.625" y="1191.125" type="curve" smooth="yes"/>
      <point x="911.625" y="1075.25"/>
      <point x="788.0" y="963.625"/>
    </contour>
  </outline>
</glyph>
<glyph name="quotesingle" format="2">
  <advance width="462.0"/>
  <unicode hex="0027"/>
  <outline>
    <contour>
      <point x="541.0" y="1382.75" type="curve" smooth="yes"/>
      <point x="548.375" y="1411.625"/>
      <point x="555.375" y="1439.625"/>
      <point x="558.875" y="1456.625" type="curve"/>
      <point x="539.0" y="1459.125"/>
      <point x="517.125" y="1460.5"/>
      <point x="493.5" y="1460.5" type="curve" smooth="yes"/>
      <point x="455.375" y="1460.5"/>
      <point x="414.125" y="1457.0"/>
      <point x="375.625" y="1450.5" type="curve"/>
      <point x="356.125" y="1367.75"/>
      <point x="320.375" y="1132.125"/>
      <point x="303.5" y="1016.875" type="curve"/>
      <point x="322.375" y="1014.75"/>
      <point x="342.625" y="1012.375"/>
      <point x="363.875" y="1012.375" type="curve" smooth="yes"/>
      <point x="379.875" y="1012.375"/>
      <point x="396.625" y="1013.125"/>
      <point x="416.25" y="1015.25" type="curve"/>
      <point x="460.75" y="1120.25"/>
      <point x="512.75" y="1273.5"/>
    </contour>
  </outline>
</glyph>
<glyph name="parenleft" format="2">
  <advance width="677.0"/>
  <unicode hex="0028"/>
  <outline>
    <contour>
      <point x="101.875" y="-495.125" type="curve"/>
      <point x="141.375" y="-478.875"/>
      <point x="246.25" y="-417.5"/>
      <point x="287.375" y="-390.125" type="curve"/>
      <point x="240.375" y="-303.875"/>
      <point x="216.0" y="-126.875"/>
      <point x="216.0" y="29.375" type="curve" smooth="yes"/>
      <point x="216.0" y="521.625"/>
      <point x="451.375" y="1057.0"/>
      <point x="781.25" y="1477.875" type="curve"/>
      <point x="747.75" y="1498.75"/>
      <point x="670.375" y="1527.25"/>
      <point x="610.125" y="1537.25" type="curve"/>
      <point x="270.125" y="1138.75"/>
      <point x="17.125" y="536.125"/>
      <point x="17.125" y="-5.125" type="curve" smooth="yes"/>
      <point x="17.125" y="-179.875"/>
      <point x="44.875" y="-390.875"/>
    </contour>
  </outline>
</glyph>
<glyph name="parenright" format="2">
  <advance width="651.0"/>
  <unicode hex="0029"/>
  <outline>
    <contour>
      <point x="428.0" y="1023.625" type="curve" smooth="yes"/>
      <point x="428.0" y="555.625"/>
      <point x="190.375" y="-16.375"/>
      <point x="-132.125" y="-366.0" type="curve"/>
      <point x="-109.5" y="-390.25"/>
      <point x="-14.5" y="-437.25"/>
      <point x="22.875" y="-449.25" type="curve"/>
      <point x="350.125" y="-114.125"/>
      <point x="623.625" y="531.5"/>
      <point x="623.625" y="1010.25" type="curve" smooth="yes"/>
      <point x="623.625" y="1196.125"/>
      <point x="593.0" y="1402.75"/>
      <point x="528.5" y="1537.5" type="curve"/>
      <point x="466.0" y="1524.125"/>
      <point x="400.375" y="1499.125"/>
      <point x="346.875" y="1472.5" type="curve"/>
      <point x="397.25" y="1381.875"/>
      <point x="428.0" y="1201.75"/>
    </contour>
  </outline>
</glyph>
<glyph name="asterisk" format="2">
  <advance width="940.875"/>
  <unicode hex="002A"/>
  <outline>
    <contour>
      <point x="881.375" y="993.75" type="curve"/>
      <point x="906.5" y="1017.0"/>
      <point x="978.125" y="1091.25"/>
      <point x="998.75" y="1125.25" type="curve"/>
      <point x="916.75" y="1178.25"/>
      <point x="778.125" y="1248.875"/>
      <point x="691.875" y="1289.875" type="curve"/>
      <point x="616.875" y="1352.875"/>
      <point x="481.25" y="1450.75"/>
      <point x="410.125" y="1501.0" type="curve"/>
      <point x="378.375" y="1473.5"/>
      <point x="318.125" y="1403.375"/>
      <point x="291.0" y="1365.375" type="curve"/>
      <point x="373.125" y="1312.75"/>
      <point x="511.375" y="1243.375"/>
      <point x="599.625" y="1202.375" type="curve"/>
      <point x="673.375" y="1138.625"/>
      <point x="800.25" y="1043.25"/>
    </contour>
    <contour>
      <point x="559.375" y="870.5" type="curve" smooth="yes"/>
      <point x="593.0" y="870.5"/>
      <point x="626.0" y="873.625"/>
      <point x="642.375" y="876.375" type="curve"/>
      <point x="664.625" y="964.125"/>
      <point x="701.5" y="1144.125"/>
      <point x="722.875" y="1248.75" type="curve"/>
      <point x="756.75" y="1342.125"/>
      <point x="796.25" y="1463.875"/>
      <point x="825.125" y="1573.25" type="curve"/>
      <point x="810.375" y="1576.625"/>
      <point x="779.0" y="1579.0"/>
      <point x="746.875" y="1579.0" type="curve" smooth="yes"/>
      <point x="714.75" y="1579.0"/>
      <point x="681.875" y="1576.625"/>
      <point x="663.25" y="1573.25" type="curve"/>
      <point x="640.375" y="1479.75"/>
      <point x="614.875" y="1358.25"/>
      <point x="597.5" y="1248.75" type="curve"/>
      <point x="554.625" y="1125.5"/>
      <point x="505.75" y="979.5"/>
      <point x="476.0" y="876.375" type="curve"/>
      <point x="491.0" y="873.0"/>
      <point x="525.5" y="870.5"/>
    </contour>
    <contour>
      <point x="282.125" y="978.25" type="curve"/>
      <point x="401.5" y="1036.25"/>
      <point x="562.375" y="1118.25"/>
      <point x="677.75" y="1180.375" type="curve"/>
      <point x="787.75" y="1225.0"/>
      <point x="970.375" y="1305.625"/>
      <point x="1076.125" y="1356.125" type="curve"/>
      <point x="1071.375" y="1394.125"/>
      <point x="1042.75" y="1476.125"/>
      <point x="1028.125" y="1499.875" type="curve"/>
      <point x="928.875" y="1449.875"/>
      <point x="755.75" y="1355.375"/>
      <point x="650.125" y="1291.75" type="curve"/>
      <point x="535.0" y="1246.0"/>
      <point x="343.75" y="1170.375"/>
      <point x="233.75" y="1117.375" type="curve"/>
      <point x="238.125" y="1087.125"/>
      <point x="271.0" y="996.25"/>
    </contour>
  </outline>
</glyph>
<glyph name="plus" format="2">
  <advance width="1050.0"/>
  <unicode hex="002B"/>
  <outline>
    <contour>
      <point x="963.5" y="656.375" type="curve"/>
      <point x="971.5" y="677.125"/>
      <point x="1002.5" y="767.5"/>
      <point x="1016.0" y="828.375" type="curve"/>
      <point x="898.125" y="809.5"/>
      <point x="657.875" y="796.25"/>
      <point x="418.875" y="796.25" type="curve" smooth="yes"/>
      <point x="288.875" y="796.25"/>
      <point x="171.375" y="800.125"/>
      <point x="117.25" y="806.375" type="curve"/>
      <point x="110.0" y="781.75"/>
      <point x="87.0" y="673.875"/>
      <point x="85.5" y="642.75" type="curve"/>
      <point x="180.625" y="630.375"/>
      <point x="346.625" y="622.375"/>
      <point x="494.75" y="622.375" type="curve" smooth="yes"/>
      <point x="705.375" y="622.375"/>
      <point x="870.0" y="636.375"/>
    </contour>
    <contour>
      <point x="723.375" y="1179.875" type="curve"/>
      <point x="705.75" y="1180.5"/>
      <point x="562.75" y="1176.5"/>
      <point x="539.5" y="1175.375" type="curve"/>
      <point x="523.625" y="1031.125"/>
      <point x="478.75" y="782.5"/>
      <point x="422.375" y="574.125" type="curve" smooth="yes"/>
      <point x="392.0" y="460.75"/>
      <point x="358.5" y="353.5"/>
      <point x="325.5" y="268.375" type="curve"/>
      <point x="354.75" y="266.5"/>
      <point x="467.25" y="263.125"/>
      <point x="492.0" y="265.0" type="curve"/>
      <point x="544.5" y="391.75"/>
      <point x="592.75" y="540.125"/>
      <point x="630.625" y="680.75" type="curve" smooth="yes"/>
      <point x="681.75" y="871.0"/>
      <point x="715.875" y="1055.5"/>
    </contour>
  </outline>
</glyph>
<glyph name="comma" format="2">
  <advance width="667.0"/>
  <unicode hex="002C"/>
  <outline>
    <contour>
      <point x="154.0" y="-253.5" type="curve"/>
      <point x="283.0" y="-166.75"/>
      <point x="404.5" y="15.5"/>
      <point x="404.5" y="152.375" type="curve" smooth="yes"/>
      <point x="404.5" y="250.125"/>
      <point x="331.375" y="298.375"/>
      <point x="237.125" y="298.375" type="curve" smooth="yes"/>
      <point x="117.0" y="298.375"/>
      <point x="26.5" y="225.0"/>
      <point x="26.5" y="119.875" type="curve" smooth="yes"/>
      <point x="26.5" y="56.375"/>
      <point x="58.625" y="9.5"/>
      <point x="131.125" y="9.5" type="curve" smooth="yes"/>
      <point x="193.5" y="9.5"/>
      <point x="229.625" y="41.25"/>
      <point x="243.75" y="73.0" type="curve"/>
      <point x="244.375" y="70.625"/>
      <point x="244.0" y="66.25"/>
      <point x="243.625" y="62.625" type="curve" smooth="yes"/>
      <point x="239.875" y="5.375"/>
      <point x="121.625" y="-120.5"/>
      <point x="57.375" y="-164.375" type="curve"/>
      <point x="73.25" y="-207.875"/>
      <point x="137.0" y="-246.0"/>
    </contour>
  </outline>
</glyph>
<glyph name="hyphen" format="2">
  <advance width="889.875"/>
  <unicode hex="002D"/>
  <outline>
    <contour>
      <point x="900.5" y="772.75" type="curve"/>
      <point x="831.25" y="779.25"/>
      <point x="719.125" y="781.125"/>
      <point x="580.5" y="781.125" type="curve" smooth="yes"/>
      <point x="402.75" y="781.125"/>
      <point x="238.5" y="769.125"/>
      <point x="114.375" y="756.75" type="curve"/>
      <point x="101.625" y="725.0"/>
      <point x="71.625" y="631.375"/>
      <point x="61.375" y="585.875" type="curve"/>
      <point x="240.125" y="597.25"/>
      <point x="667.125" y="608.375"/>
      <point x="863.0" y="608.375" type="curve"/>
      <point x="875.75" y="652.25"/>
      <point x="894.25" y="721.875"/>
    </contour>
  </outline>
</glyph>
<glyph name="period" format="2">
  <advance width="632.0"/>
  <unicode hex="002E"/>
  <outline>
    <contour>
      <point x="210.625" y="271.5" type="curve" smooth="yes"/>
      <point x="107.375" y="271.5"/>
      <point x="12.25" y="198.125"/>
      <point x="12.25" y="91.125" type="curve" smooth="yes"/>
      <point x="12.25" y="20.625"/>
      <point x="77.875" y="-38.0"/>
      <point x="153.125" y="-38.0" type="curve" smooth="yes"/>
      <point x="255.875" y="-38.0"/>
      <point x="342.0" y="38.25"/>
      <point x="342.0" y="149.625" type="curve" smooth="yes"/>
      <point x="342.0" y="218.0"/>
      <point x="284.375" y="271.5"/>
    </contour>
  </outline>
</glyph>
<glyph name="slash" format="2">
  <advance width="969.0"/>
  <unicode hex="002F"/>
  <outline>
    <contour>
      <point x="1039.0" y="1498.25" type="curve"/>
      <point x="731.375" y="1028.625"/>
      <point x="187.0" y="307.75"/>
      <point x="-169.75" y="-83.875" type="curve"/>
      <point x="-144.0" y="-112.875"/>
      <point x="-80.625" y="-149.125"/>
      <point x="-29.75" y="-162.25" type="curve"/>
      <point x="281.25" y="155.875"/>
      <point x="772.125" y="790.0"/>
      <point x="1182.125" y="1428.125" type="curve"/>
      <point x="1162.375" y="1457.375"/>
      <point x="1116.375" y="1481.125"/>
    </contour>
  </outline>
</glyph>
<glyph name="zero" format="2">
  <advance width="1087.0"/>
  <unicode hex="0030"/>
  <outline>
    <contour>
      <point x="407.375" y="-32.0" type="curve" smooth="yes"/>
      <point x="766.25" y="-32.0"/>
      <point x="1024.0" y="549.375"/>
      <point x="1024.0" y="982.125" type="curve" smooth="yes"/>
      <point x="1024.0" y="1206.75"/>
      <point x="941.375" y="1338.0"/>
      <point x="742.25" y="1338.0" type="curve" smooth="yes"/>
      <point x="390.75" y="1338.0"/>
      <point x="124.5" y="787.25"/>
      <point x="124.5" y="367.0" type="curve" smooth="yes"/>
      <point x="124.5" y="127.875"/>
      <point x="205.5" y="-32.0"/>
    </contour>
    <contour>
      <point x="442.75" y="155.625" type="curve" smooth="yes"/>
      <point x="352.25" y="155.625"/>
      <point x="308.375" y="233.625"/>
      <point x="308.375" y="392.0" type="curve" smooth="yes"/>
      <point x="308.375" y="651.0"/>
      <point x="495.25" y="1166.25"/>
      <point x="711.625" y="1166.25" type="curve" smooth="yes"/>
      <point x="806.625" y="1166.25"/>
      <point x="843.125" y="1075.625"/>
      <point x="843.125" y="925.0" type="curve" smooth="yes"/>
      <point x="843.125" y="649.0"/>
      <point x="660.625" y="155.625"/>
    </contour>
  </outline>
</glyph>
<glyph name="one" format="2">
  <advance width="809.0"/>
  <unicode hex="0031"/>
  <outline>
    <contour>
      <point x="387.375" y="176.125" type="curve"/>
      <point x="422.625" y="282.5"/>
      <point x="457.875" y="398.375"/>
      <point x="486.375" y="506.0" type="curve" smooth="yes"/>
      <point x="590.625" y="897.875"/>
      <point x="676.5" y="1275.25"/>
      <point x="680.75" y="1307.125" type="curve"/>
      <point x="651.375" y="1311.875"/>
      <point x="579.5" y="1315.375"/>
      <point x="537.625" y="1315.375" type="curve"/>
      <point x="441.0" y="1249.5"/>
      <point x="207.25" y="1063.125"/>
      <point x="162.625" y="1026.625" type="curve"/>
      <point x="172.375" y="982.0"/>
      <point x="200.125" y="909.125"/>
      <point x="216.0" y="881.625" type="curve"/>
      <point x="244.0" y="906.375"/>
      <point x="437.125" y="1061.625"/>
      <point x="471.875" y="1086.875" type="curve"/>
      <point x="437.125" y="957.875"/>
      <point x="249.125" y="263.125"/>
      <point x="226.5" y="170.5" type="curve"/>
      <point x="190.75" y="169.0"/>
      <point x="37.875" y="155.75"/>
      <point x="-6.875" y="147.625" type="curve"/>
      <point x="-20.375" y="120.25"/>
      <point x="-45.0" y="32.25"/>
      <point x="-49.5" y="-12.0" type="curve"/>
      <point x="25.5" y="-4.875"/>
      <point x="486.875" y="9.0"/>
      <point x="553.25" y="9.0" type="curve"/>
      <point x="569.75" y="43.25"/>
      <point x="600.5" y="138.125"/>
      <point x="609.0" y="166.75" type="curve"/>
      <point x="578.375" y="171.0"/>
      <point x="453.875" y="176.125"/>
    </contour>
  </outline>
</glyph>
<glyph name="two" format="2">
  <advance width="995.0"/>
  <unicode hex="0032"/>
  <outline>
    <contour>
      <point x="828.375" y="221.5" type="curve"/>
      <point x="714.625" y="216.875"/>
      <point x="352.0" y="188.5"/>
      <point x="266.75" y="178.5" type="curve"/>
      <point x="312.0" y="215.75"/>
      <point x="530.0" y="415.75"/>
      <point x="691.625" y="575.0" type="curve" smooth="yes"/>
      <point x="854.125" y="735.125"/>
      <point x="1042.875" y="963.75"/>
      <point x="1042.875" y="1152.0" type="curve" smooth="yes"/>
      <point x="1042.875" y="1278.875"/>
      <point x="935.375" y="1364.0"/>
      <point x="780.875" y="1364.0" type="curve" smooth="yes"/>
      <point x="559.5" y="1364.0"/>
      <point x="330.375" y="1221.75"/>
      <point x="198.0" y="1020.375" type="curve"/>
      <point x="223.25" y="991.75"/>
      <point x="294.875" y="936.875"/>
      <point x="324.75" y="917.25" type="curve"/>
      <point x="428.875" y="1069.375"/>
      <point x="566.75" y="1185.0"/>
      <point x="725.375" y="1185.0" type="curve" smooth="yes"/>
      <point x="794.75" y="1185.0"/>
      <point x="851.75" y="1156.5"/>
      <point x="851.75" y="1089.0" type="curve" smooth="yes"/>
      <point x="851.75" y="943.625"/>
      <point x="580.875" y="681.25"/>
      <point x="431.0" y="539.5" type="curve" smooth="yes"/>
      <point x="263.5" y="381.375"/>
      <point x="90.375" y="224.875"/>
      <point x="2.875" y="153.875" type="curve"/>
      <point x="-8.25" y="93.5"/>
      <point x="-13.75" y="5.0"/>
      <point x="-14.75" y="-17.0" type="curve"/>
      <point x="784.125" y="27.0" type="line"/>
      <point x="795.125" y="55.0"/>
      <point x="825.25" y="164.25"/>
    </contour>
  </outline>
</glyph>
<glyph name="three" format="2">
  <advance width="1032.0"/>
  <unicode hex="0033"/>
  <outline>
    <contour>
      <point x="377.625" y="-3.0" type="curve" smooth="yes"/>
      <point x="683.375" y="-3.0"/>
      <point x="929.375" y="173.625"/>
      <point x="929.375" y="457.375" type="curve" smooth="yes"/>
      <point x="929.375" y="612.125"/>
      <point x="826.5" y="706.5"/>
      <point x="674.5" y="722.875" type="curve"/>
      <point x="853.875" y="759.75"/>
      <point x="1026.0" y="894.25"/>
      <point x="1026.0" y="1086.625" type="curve" smooth="yes"/>
      <point x="1026.0" y="1241.625"/>
      <point x="923.625" y="1335.0"/>
      <point x="745.125" y="1335.0" type="curve" smooth="yes"/>
      <point x="502.0" y="1335.0"/>
      <point x="301.375" y="1203.125"/>
      <point x="219.125" y="1126.375" type="curve"/>
      <point x="229.125" y="1107.875"/>
      <point x="279.625" y="1047.75"/>
      <point x="321.125" y="1010.625" type="curve"/>
      <point x="406.375" y="1091.5"/>
      <point x="550.625" y="1169.0"/>
      <point x="688.125" y="1169.0" type="curve" smooth="yes"/>
      <point x="795.5" y="1169.0"/>
      <point x="830.25" y="1113.625"/>
      <point x="830.25" y="1044.5" type="curve" smooth="yes"/>
      <point x="830.25" y="859.125"/>
      <point x="557.0" y="764.5"/>
      <point x="356.875" y="764.5" type="curve"/>
      <point x="342.5" y="710.0"/>
      <point x="334.125" y="647.75"/>
      <point x="334.125" y="616.5" type="curve"/>
      <point x="606.5" y="616.5"/>
      <point x="746.625" y="576.125"/>
      <point x="746.625" y="436.125" type="curve" smooth="yes"/>
      <point x="746.625" y="272.625"/>
      <point x="586.375" y="155.75"/>
      <point x="404.75" y="155.75" type="curve" smooth="yes"/>
      <point x="267.125" y="155.75"/>
      <point x="199.25" y="227.25"/>
      <point x="195.125" y="334.5" type="curve"/>
      <point x="136.25" y="315.375"/>
      <point x="58.5" y="276.375"/>
      <point x="10.625" y="243.625" type="curve"/>
      <point x="18.875" y="93.125"/>
      <point x="168.5" y="-3.0"/>
    </contour>
  </outline>
</glyph>
<glyph name="four" format="2">
  <advance width="1104.0"/>
  <unicode hex="0034"/>
  <outline>
    <contour>
      <point x="971.5" y="378.375" type="curve"/>
      <point x="988.125" y="439.375"/>
      <point x="1003.75" y="529.75"/>
      <point x="1004.125" y="548.125" type="curve"/>
      <point x="986.0" y="548.5"/>
      <point x="853.5" y="544.875"/>
      <point x="779.875" y="541.75" type="curve"/>
      <point x="862.375" y="839.875"/>
      <point x="1003.75" y="1286.625"/>
      <point x="1022.25" y="1341.375" type="curve"/>
      <point x="983.0" y="1342.0"/>
      <point x="869.0" y="1337.875"/>
      <point x="838.375" y="1334.875" type="curve"/>
      <point x="745.75" y="1254.75"/>
      <point x="240.0" y="677.875"/>
      <point x="97.625" y="483.625" type="curve"/>
      <point x="91.625" y="437.0"/>
      <point x="83.75" y="360.625"/>
      <point x="82.5" y="313.25" type="curve"/>
      <point x="134.375" y="319.875"/>
      <point x="377.5" y="348.75"/>
      <point x="556.5" y="362.0" type="curve"/>
      <point x="527.25" y="275.5"/>
      <point x="485.25" y="140.75"/>
      <point x="444.875" y="-11.25" type="curve"/>
      <point x="476.0" y="-10.625"/>
      <point x="598.75" y="-1.875"/>
      <point x="643.125" y="5.125" type="curve"/>
      <point x="651.5" y="45.0"/>
      <point x="682.25" y="175.25"/>
      <point x="735.75" y="373.875" type="curve"/>
      <point x="805.75" y="376.5"/>
      <point x="908.25" y="378.375"/>
    </contour>
    <contour>
      <point x="803.125" y="1098.75" type="curve"/>
      <point x="761.875" y="1003.0"/>
      <point x="644.5" y="624.75"/>
      <point x="619.0" y="532.125" type="curve"/>
      <point x="550.875" y="529.625"/>
      <point x="323.25" y="505.5"/>
      <point x="293.375" y="500.875" type="curve"/>
      <point x="332.875" y="564.625"/>
      <point x="681.125" y="968.875"/>
    </contour>
  </outline>
</glyph>
<glyph name="five" format="2">
  <advance width="1137.0"/>
  <unicode hex="0035"/>
  <outline>
    <contour>
      <point x="25.75" y="193.75" type="curve"/>
      <point x="104.5" y="62.0"/>
      <point x="278.375" y="8.625"/>
      <point x="457.375" y="8.625" type="curve" smooth="yes"/>
      <point x="811.625" y="8.625"/>
      <point x="1081.125" y="279.375"/>
      <point x="1081.125" y="628.75" type="curve" smooth="yes"/>
      <point x="1081.125" y="814.125"/>
      <point x="991.75" y="951.375"/>
      <point x="803.0" y="951.375" type="curve" smooth="yes"/>
      <point x="644.0" y="951.375"/>
      <point x="512.125" y="845.25"/>
      <point x="475.875" y="775.25" type="curve"/>
      <point x="487.5" y="819.25"/>
      <point x="525.0" y="1005.625"/>
      <point x="539.375" y="1104.0" type="curve"/>
      <point x="611.125" y="1118.0"/>
      <point x="848.875" y="1145.375"/>
      <point x="1109.75" y="1162.25" type="curve"/>
      <point x="1112.875" y="1204.125"/>
      <point x="1115.375" y="1293.875"/>
      <point x="1113.5" y="1324.875" type="curve"/>
      <point x="960.125" y="1312.875"/>
      <point x="534.5" y="1256.125"/>
      <point x="367.25" y="1220.875" type="curve"/>
      <point x="337.5" y="995.625"/>
      <point x="297.875" y="784.25"/>
      <point x="242.0" y="574.625" type="curve"/>
      <point x="261.5" y="573.625"/>
      <point x="303.625" y="572.875"/>
      <point x="327.0" y="572.875" type="curve" smooth="yes"/>
      <point x="368.375" y="572.875"/>
      <point x="399.375" y="575.375"/>
      <point x="422.5" y="578.875" type="curve"/>
      <point x="444.875" y="644.125"/>
      <point x="566.875" y="798.375"/>
      <point x="740.0" y="798.375" type="curve" smooth="yes"/>
      <point x="856.25" y="798.375"/>
      <point x="900.0" y="714.375"/>
      <point x="900.0" y="603.875" type="curve" smooth="yes"/>
      <point x="900.0" y="370.125"/>
      <point x="726.75" y="181.0"/>
      <point x="490.25" y="181.0" type="curve" smooth="yes"/>
      <point x="302.25" y="181.0"/>
      <point x="224.25" y="266.625"/>
      <point x="194.75" y="329.5" type="curve"/>
      <point x="160.875" y="309.125"/>
      <point x="61.25" y="235.5"/>
    </contour>
  </outline>
</glyph>
<glyph name="six" format="2">
  <advance width="1154.0"/>
  <unicode hex="0036"/>
  <outline>
    <contour>
      <point x="1046.125" y="1210.625" type="curve"/>
      <point x="1043.875" y="1255.375"/>
      <point x="1012.25" y="1343.375"/>
      <point x="992.5" y="1360.625" type="curve"/>
      <point x="519.375" y="1200.5"/>
      <point x="118.5" y="763.125"/>
      <point x="118.5" y="315.125" type="curve" smooth="yes"/>
      <point x="118.5" y="121.5"/>
      <point x="236.125" y="-9.0"/>
      <point x="458.5" y="-9.0" type="curve" smooth="yes"/>
      <point x="793.125" y="-9.0"/>
      <point x="1045.5" y="236.375"/>
      <point x="1045.5" y="555.375" type="curve" smooth="yes"/>
      <point x="1045.5" y="728.875"/>
      <point x="937.875" y="834.125"/>
      <point x="775.625" y="834.125" type="curve" smooth="yes"/>
      <point x="625.75" y="834.125"/>
      <point x="473.875" y="766.375"/>
      <point x="381.875" y="663.25" type="curve"/>
      <point x="468.25" y="821.25"/>
      <point x="720.625" y="1095.875"/>
    </contour>
    <contour>
      <point x="407.75" y="552.25" type="curve" smooth="yes"/>
      <point x="484.625" y="624.0"/>
      <point x="604.75" y="677.5"/>
      <point x="718.375" y="677.5" type="curve" smooth="yes"/>
      <point x="825.125" y="677.5"/>
      <point x="866.625" y="616.375"/>
      <point x="866.625" y="524.5" type="curve" smooth="yes"/>
      <point x="866.625" y="325.75"/>
      <point x="699.25" y="163.5"/>
      <point x="503.375" y="163.5" type="curve" smooth="yes"/>
      <point x="375.625" y="163.5"/>
      <point x="304.875" y="228.125"/>
      <point x="304.875" y="332.75" type="curve" smooth="yes"/>
      <point x="304.875" y="415.875"/>
      <point x="342.875" y="491.75"/>
    </contour>
  </outline>
</glyph>
<glyph name="seven" format="2">
  <advance width="1012.0"/>
  <unicode hex="0037"/>
  <outline>
    <contour>
      <point x="228.75" y="-20.125" type="curve"/>
      <point x="460.5" y="358.5"/>
      <point x="669.875" y="677.625"/>
      <point x="1173.75" y="1210.5" type="curve"/>
      <point x="1176.0" y="1233.5"/>
      <point x="1185.5" y="1342.75"/>
      <point x="1184.25" y="1367.75" type="curve"/>
      <point x="1011.875" y="1367.75"/>
      <point x="591.375" y="1298.125"/>
      <point x="297.375" y="1235.125" type="curve"/>
      <point x="287.625" y="1199.25"/>
      <point x="266.375" y="1071.25"/>
      <point x="265.0" y="1040.75" type="curve"/>
      <point x="303.25" y="1051.875"/>
      <point x="631.375" y="1131.0"/>
      <point x="933.875" y="1172.5" type="curve"/>
      <point x="644.375" y="921.25"/>
      <point x="229.125" y="377.625"/>
      <point x="24.125" y="46.125" type="curve"/>
      <point x="38.625" y="39.375"/>
      <point x="173.375" y="-7.25"/>
    </contour>
  </outline>
</glyph>
<glyph name="eight" format="2">
  <advance width="1243.0"/>
  <unicode hex="0038"/>
  <outline>
    <contour>
      <point x="512.5" y="-9.75" type="curve" smooth="yes"/>
      <point x="819.625" y="-9.75"/>
      <point x="1085.5" y="176.375"/>
      <point x="1085.5" y="458.375" type="curve" smooth="yes"/>
      <point x="1085.5" y="604.0"/>
      <point x="998.75" y="690.25"/>
      <point x="903.875" y="705.875" type="curve"/>
      <point x="1073.75" y="749.625"/>
      <point x="1202.5" y="904.875"/>
      <point x="1202.5" y="1097.625" type="curve" smooth="yes"/>
      <point x="1202.5" y="1279.375"/>
      <point x="1059.25" y="1373.125"/>
      <point x="844.0" y="1373.125" type="curve" smooth="yes"/>
      <point x="540.75" y="1373.125"/>
      <point x="298.875" y="1226.125"/>
      <point x="298.875" y="943.5" type="curve" smooth="yes"/>
      <point x="298.875" y="836.5"/>
      <point x="370.5" y="756.625"/>
      <point x="428.875" y="731.75" type="curve"/>
      <point x="245.125" y="679.5"/>
      <point x="77.625" y="509.5"/>
      <point x="77.625" y="286.125" type="curve" smooth="yes"/>
      <point x="77.625" y="99.125"/>
      <point x="224.25" y="-9.75"/>
    </contour>
    <contour>
      <point x="525.875" y="153.5" type="curve" smooth="yes"/>
      <point x="397.375" y="153.5"/>
      <point x="277.125" y="191.625"/>
      <point x="277.125" y="328.0" type="curve" smooth="yes"/>
      <point x="277.125" y="531.375"/>
      <point x="457.125" y="624.375"/>
      <point x="654.75" y="624.375" type="curve" smooth="yes"/>
      <point x="803.25" y="624.375"/>
      <point x="897.5" y="580.375"/>
      <point x="897.5" y="460.75" type="curve" smooth="yes"/>
      <point x="897.5" y="267.5"/>
      <point x="732.0" y="153.5"/>
    </contour>
    <contour>
      <point x="696.25" y="792.375" type="curve" smooth="yes"/>
      <point x="563.875" y="792.375"/>
      <point x="486.75" y="840.5"/>
      <point x="486.75" y="956.125" type="curve" smooth="yes"/>
      <point x="486.75" y="1129.875"/>
      <point x="628.25" y="1221.125"/>
      <point x="807.0" y="1221.125" type="curve" smooth="yes"/>
      <point x="943.625" y="1221.125"/>
      <point x="1016.75" y="1172.75"/>
      <point x="1016.75" y="1061.875" type="curve" smooth="yes"/>
      <point x="1016.75" y="896.0"/>
      <point x="863.5" y="792.375"/>
    </contour>
  </outline>
</glyph>
<glyph name="nine" format="2">
  <advance width="1067.0"/>
  <unicode hex="0039"/>
  <outline>
    <contour>
      <point x="684.75" y="13.125" type="curve"/>
      <point x="847.375" y="286.375"/>
      <point x="1073.625" y="796.0"/>
      <point x="1073.625" y="1062.625" type="curve" smooth="yes"/>
      <point x="1073.625" y="1254.75"/>
      <point x="966.625" y="1364.0"/>
      <point x="742.875" y="1364.0" type="curve" smooth="yes"/>
      <point x="424.125" y="1364.0"/>
      <point x="167.375" y="1125.625"/>
      <point x="167.375" y="796.875" type="curve" smooth="yes"/>
      <point x="167.375" y="607.375"/>
      <point x="261.5" y="478.375"/>
      <point x="462.25" y="478.375" type="curve" smooth="yes"/>
      <point x="631.625" y="478.375"/>
      <point x="736.375" y="551.875"/>
      <point x="782.375" y="611.875" type="curve"/>
      <point x="710.75" y="372.875"/>
      <point x="512.875" y="73.625"/>
      <point x="455.875" y="-1.25" type="curve"/>
      <point x="537.0" y="-1.25"/>
      <point x="641.375" y="4.5"/>
    </contour>
    <contour>
      <point x="724.25" y="1216.875" type="curve" smooth="yes"/>
      <point x="837.5" y="1216.875"/>
      <point x="894.375" y="1157.375"/>
      <point x="894.375" y="1053.875" type="curve" smooth="yes"/>
      <point x="894.375" y="838.875"/>
      <point x="738.375" y="645.875"/>
      <point x="519.5" y="645.875" type="curve" smooth="yes"/>
      <point x="411.5" y="645.875"/>
      <point x="352.75" y="719.625"/>
      <point x="352.75" y="832.625" type="curve" smooth="yes"/>
      <point x="352.75" y="1050.375"/>
      <point x="505.0" y="1216.875"/>
    </contour>
  </outline>
</glyph>
<glyph name="colon" format="2">
  <advance width="564.0"/>
  <unicode hex="003A"/>
  <outline>
    <contour>
      <point x="142.875" y="-9.375" type="curve" smooth="yes"/>
      <point x="228.875" y="-9.375"/>
      <point x="299.125" y="49.125"/>
      <point x="299.125" y="131.625" type="curve" smooth="yes"/>
      <point x="299.125" y="218.0"/>
      <point x="235.625" y="290.375"/>
      <point x="140.875" y="290.375" type="curve" smooth="yes"/>
      <point x="52.625" y="290.375"/>
      <point x="-21.5" y="215.5"/>
      <point x="-21.5" y="131.5" type="curve" smooth="yes"/>
      <point x="-21.5" y="52.25"/>
      <point x="56.0" y="-9.375"/>
    </contour>
    <component base="period" xOffset="151.0" yOffset="726.125"/>
  </outline>
</glyph>
<glyph name="semicolon" format="2">
  <advance width="593.0"/>
  <unicode hex="003B"/>
  <outline>
    <contour>
      <point x="388.875" y="964.75" type="curve" smooth="yes"/>
      <point x="285.625" y="964.75"/>
      <point x="190.5" y="891.375"/>
      <point x="190.5" y="784.375" type="curve" smooth="yes"/>
      <point x="190.5" y="713.875"/>
      <point x="256.125" y="655.25"/>
      <point x="331.375" y="655.25" type="curve" smooth="yes"/>
      <point x="434.125" y="655.25"/>
      <point x="520.25" y="731.5"/>
      <point x="520.25" y="842.875" type="curve" smooth="yes"/>
      <point x="520.25" y="911.25"/>
      <point x="462.625" y="964.75"/>
    </contour>
    <contour>
      <point x="82.375" y="-309.375" type="curve"/>
      <point x="207.875" y="-224.25"/>
      <point x="328.0" y="-45.0"/>
      <point x="328.0" y="88.375" type="curve" smooth="yes"/>
      <point x="328.0" y="183.0"/>
      <point x="256.5" y="230.375"/>
      <point x="164.25" y="230.375" type="curve" smooth="yes"/>
      <point x="47.625" y="230.375"/>
      <point x="-40.125" y="158.25"/>
      <point x="-40.125" y="56.625" type="curve" smooth="yes"/>
      <point x="-40.125" y="-5.625"/>
      <point x="-9.125" y="-51.0"/>
      <point x="62.125" y="-51.0" type="curve" smooth="yes"/>
      <point x="124.375" y="-51.0"/>
      <point x="160.375" y="-19.25"/>
      <point x="173.75" y="12.75" type="curve"/>
      <point x="174.375" y="10.375"/>
      <point x="174.0" y="6.375"/>
      <point x="173.625" y="2.75" type="curve" smooth="yes"/>
      <point x="170.25" y="-54.375"/>
      <point x="53.375" y="-180.625"/>
      <point x="-10.375" y="-224.125" type="curve"/>
      <point x="4.75" y="-265.625"/>
      <point x="65.75" y="-301.875"/>
    </contour>
  </outline>
</glyph>
<glyph name="less" format="2">
  <advance width="807.0"/>
  <unicode hex="003C"/>
  <outline>
    <contour>
      <point x="826.625" y="1113.375" type="curve"/>
      <point x="727.5" y="1058.875"/>
      <point x="348.875" y="796.25"/>
      <point x="91.375" y="611.25" type="curve"/>
      <point x="49.375" y="471.125" type="line"/>
      <point x="249.75" y="402.25"/>
      <point x="451.0" y="313.5"/>
      <point x="627.25" y="230.5" type="curve"/>
      <point x="649.125" y="267.875"/>
      <point x="683.375" y="337.0"/>
      <point x="695.125" y="374.125" type="curve"/>
      <point x="639.375" y="413.625"/>
      <point x="330.875" y="538.875"/>
      <point x="184.0" y="590.125" type="curve"/>
      <point x="205.25" y="533.375" type="line"/>
      <point x="450.625" y="700.875"/>
      <point x="660.375" y="836.75"/>
      <point x="912.5" y="994.25" type="curve"/>
      <point x="909.375" y="1029.75"/>
      <point x="859.875" y="1088.125"/>
    </contour>
  </outline>
</glyph>
<glyph name="equal" format="2">
  <advance width="1050.0"/>
  <unicode hex="003D"/>
  <outline>
    <contour>
      <point x="201.875" y="1039.875" type="curve"/>
      <point x="184.375" y="1013.625"/>
      <point x="153.5" y="922.625"/>
      <point x="143.0" y="884.5" type="curve"/>
      <point x="310.5" y="897.625"/>
      <point x="936.5" y="922.125"/>
      <point x="1118.25" y="923.25" type="curve"/>
      <point x="1125.125" y="951.0"/>
      <point x="1147.5" y="1068.125"/>
      <point x="1150.625" y="1098.0" type="curve"/>
      <point x="915.625" y="1098.0"/>
      <point x="353.25" y="1068.875"/>
    </contour>
    <contour>
      <point x="56.875" y="600.0" type="curve"/>
      <point x="43.875" y="561.5"/>
      <point x="20.375" y="473.75"/>
      <point x="17.25" y="448.375" type="curve"/>
      <point x="243.0" y="456.625"/>
      <point x="820.5" y="454.25"/>
      <point x="997.125" y="454.25" type="curve"/>
      <point x="1005.0" y="482.0"/>
      <point x="1025.875" y="591.875"/>
      <point x="1028.625" y="622.375" type="curve"/>
      <point x="952.125" y="627.0"/>
      <point x="838.125" y="630.25"/>
      <point x="712.375" y="630.25" type="curve" smooth="yes"/>
      <point x="500.125" y="630.25"/>
      <point x="247.75" y="620.625"/>
    </contour>
  </outline>
</glyph>
<glyph name="greater" format="2">
  <advance width="790.0"/>
  <unicode hex="003E"/>
  <outline>
    <contour>
      <point x="221.625" y="1000.25" type="curve"/>
      <point x="338.75" y="919.125"/>
      <point x="588.625" y="733.375"/>
      <point x="681.25" y="656.25" type="curve"/>
      <point x="680.0" y="720.625" type="line"/>
      <point x="438.5" y="601.625"/>
      <point x="43.875" y="401.375"/>
      <point x="-2.75" y="380.25" type="curve"/>
      <point x="-2.75" y="347.375"/>
      <point x="21.5" y="273.75"/>
      <point x="32.0" y="247.125" type="curve"/>
      <point x="74.0" y="257.125"/>
      <point x="476.625" y="438.375"/>
      <point x="785.75" y="585.0" type="curve"/>
      <point x="826.375" y="746.0" type="line"/>
      <point x="653.0" y="893.0"/>
      <point x="404.375" y="1086.75"/>
      <point x="355.0" y="1100.75" type="curve"/>
      <point x="317.625" y="1082.875"/>
      <point x="256.25" y="1033.125"/>
    </contour>
  </outline>
</glyph>
<glyph name="question" format="2">
  <advance width="1036.0"/>
  <unicode hex="003F"/>
  <outline>
    <contour>
      <point x="593.75" y="411.125" type="curve"/>
      <point x="648.125" y="611.625"/>
      <point x="751.375" y="716.75"/>
      <point x="860.75" y="788.5" type="curve" smooth="yes"/>
      <point x="1018.75" y="892.5"/>
      <point x="1125.875" y="1017.75"/>
      <point x="1125.875" y="1212.375" type="curve" smooth="yes"/>
      <point x="1125.875" y="1387.125"/>
      <point x="997.625" y="1472.0"/>
      <point x="780.0" y="1472.0" type="curve" smooth="yes"/>
      <point x="548.875" y="1472.0"/>
      <point x="337.375" y="1361.875"/>
      <point x="217.625" y="1133.125" type="curve"/>
      <point x="365.0" y="1048.75" type="line"/>
      <point x="432.625" y="1159.875"/>
      <point x="531.0" y="1298.375"/>
      <point x="746.25" y="1298.375" type="curve" smooth="yes"/>
      <point x="864.375" y="1298.375"/>
      <point x="915.75" y="1254.125"/>
      <point x="915.75" y="1166.125" type="curve" smooth="yes"/>
      <point x="915.75" y="1044.125"/>
      <point x="833.375" y="952.375"/>
      <point x="701.5" y="870.125" type="curve" smooth="yes"/>
      <point x="524.5" y="758.25"/>
      <point x="439.25" y="596.5"/>
      <point x="393.125" y="424.5" type="curve"/>
      <point x="457.75" y="416.125"/>
      <point x="515.0" y="411.125"/>
    </contour>
    <contour>
      <point x="402.375" y="-10.0" type="curve" smooth="yes"/>
      <point x="496.375" y="-10.0"/>
      <point x="589.75" y="69.75"/>
      <point x="589.75" y="166.5" type="curve" smooth="yes"/>
      <point x="589.75" y="231.125"/>
      <point x="541.5" y="274.25"/>
      <point x="460.5" y="274.25" type="curve" smooth="yes"/>
      <point x="376.5" y="274.25"/>
      <point x="278.0" y="213.375"/>
      <point x="278.0" y="107.875" type="curve" smooth="yes"/>
      <point x="278.0" y="35.0"/>
      <point x="328.625" y="-10.0"/>
    </contour>
  </outline>
</glyph>
<glyph name="at" format="2">
  <advance width="1920.0"/>
  <unicode hex="0040"/>
  <outline>
    <contour>
      <point x="760.5" y="-41.0" type="curve" smooth="yes"/>
      <point x="1063.75" y="-41.0"/>
      <point x="1276.5" y="56.5"/>
      <point x="1382.25" y="178.0" type="curve"/>
      <point x="1270.125" y="285.25" type="line"/>
      <point x="1184.75" y="192.25"/>
      <point x="1041.125" y="109.0"/>
      <point x="797.625" y="109.0" type="curve" smooth="yes"/>
      <point x="473.125" y="109.0"/>
      <point x="298.875" y="269.75"/>
      <point x="298.875" y="534.125" type="curve" smooth="yes"/>
      <point x="298.875" y="1003.75"/>
      <point x="746.625" y="1341.75"/>
      <point x="1232.5" y="1341.75" type="curve" smooth="yes"/>
      <point x="1560.375" y="1341.75"/>
      <point x="1739.125" y="1196.375"/>
      <point x="1739.125" y="914.875" type="curve" smooth="yes"/>
      <point x="1739.125" y="726.625"/>
      <point x="1650.375" y="505.125"/>
      <point x="1501.0" y="505.125" type="curve" smooth="yes"/>
      <point x="1426.25" y="505.125"/>
      <point x="1402.0" y="537.5"/>
      <point x="1402.0" y="620.75" type="curve" smooth="yes"/>
      <point x="1402.0" y="656.625"/>
      <point x="1417.0" y="930.75"/>
      <point x="1434.5" y="1120.375" type="curve"/>
      <point x="1399.375" y="1118.625"/>
      <point x="1323.75" y="1114.875"/>
      <point x="1290.875" y="1113.0" type="curve"/>
      <point x="1286.625" y="1092.75"/>
      <point x="1280.625" y="1055.0"/>
      <point x="1278.375" y="1029.0" type="curve"/>
      <point x="1248.75" y="1059.0"/>
      <point x="1180.125" y="1089.625"/>
      <point x="1077.0" y="1089.625" type="curve" smooth="yes"/>
      <point x="824.125" y="1089.625"/>
      <point x="603.375" y="866.625"/>
      <point x="603.375" y="610.875" type="curve" smooth="yes"/>
      <point x="603.375" y="453.5"/>
      <point x="700.75" y="353.75"/>
      <point x="885.5" y="353.75" type="curve" smooth="yes"/>
      <point x="1040.75" y="353.75"/>
      <point x="1193.25" y="421.625"/>
      <point x="1260.0" y="532.5" type="curve"/>
      <point x="1258.75" y="418.625"/>
      <point x="1349.625" y="357.0"/>
      <point x="1470.625" y="357.0" type="curve" smooth="yes"/>
      <point x="1740.75" y="357.0"/>
      <point x="1906.125" y="630.75"/>
      <point x="1906.125" y="936.625" type="curve" smooth="yes"/>
      <point x="1906.125" y="1294.0"/>
      <point x="1656.5" y="1497.0"/>
      <point x="1252.0" y="1497.0" type="curve" smooth="yes"/>
      <point x="648.75" y="1497.0"/>
      <point x="111.0" y="1071.875"/>
      <point x="111.0" y="497.125" type="curve" smooth="yes"/>
      <point x="111.0" y="156.375"/>
      <point x="368.125" y="-41.0"/>
    </contour>
    <contour>
      <point x="936.125" y="509.0" type="curve" smooth="yes"/>
      <point x="848.75" y="509.0"/>
      <point x="785.5" y="558.75"/>
      <point x="785.5" y="650.375" type="curve" smooth="yes"/>
      <point x="785.5" y="805.5"/>
      <point x="907.5" y="943.375"/>
      <point x="1092.25" y="943.375" type="curve" smooth="yes"/>
      <point x="1166.625" y="943.375"/>
      <point x="1230.5" y="920.125"/>
      <point x="1262.625" y="887.625" type="curve"/>
      <point x="1251.0" y="676.0" type="line"/>
      <point x="1181.375" y="577.125"/>
      <point x="1074.25" y="509.0"/>
    </contour>
  </outline>
</glyph>
<glyph name="A" format="2">
  <advance width="1073.875"/>
  <unicode hex="0041"/>
  <anchor x="476.25" y="0.0" name="bottom"/>
  <anchor x="793.25" y="1.875" name="ogonek"/>
  <anchor x="839.25" y="1328.25" name="top"/>
  <outline>
    <contour>
      <point x="143.125" y="-15.0" type="curve"/>
      <point x="180.75" y="78.25"/>
      <point x="265.0" y="265.5"/>
      <point x="348.25" y="437.25" type="curve"/>
      <point x="388.25" y="445.25"/>
      <point x="646.75" y="466.0"/>
      <point x="753.375" y="466.75" type="curve"/>
      <point x="728.875" y="363.5"/>
      <point x="668.625" y="80.0"/>
      <point x="650.625" y="-15.0" type="curve"/>
      <point x="716.375" y="-15.0"/>
      <point x="817.375" y="-9.0"/>
      <point x="866.625" y="-0.5" type="curve"/>
      <point x="1000.5" y="681.75"/>
      <point x="1059.5" y="1089.0"/>
      <point x="1070.125" y="1323.0" type="curve"/>
      <point x="1021.75" y="1329.25"/>
      <point x="966.25" y="1332.375"/>
      <point x="913.625" y="1332.375" type="curve" smooth="yes"/>
      <point x="793.125" y="1332.375"/>
      <point x="658.5" y="1317.0"/>
      <point x="573.75" y="1304.75" type="curve"/>
      <point x="396.375" y="975.0"/>
      <point x="21.125" y="204.75"/>
      <point x="-71.375" y="-5.125" type="curve"/>
      <point x="-22.0" y="-10.125"/>
      <point x="91.875" y="-15.0"/>
    </contour>
    <contour>
      <point x="423.75" y="610.875" type="curve"/>
      <point x="534.375" y="849.125"/>
      <point x="644.5" y="1074.75"/>
      <point x="679.125" y="1142.5" type="curve"/>
      <point x="712.75" y="1147.0"/>
      <point x="839.5" y="1157.0"/>
      <point x="885.75" y="1157.0" type="curve"/>
      <point x="875.625" y="1051.0"/>
      <point x="810.75" y="724.5"/>
      <point x="794.25" y="642.25" type="curve"/>
      <point x="685.875" y="638.5"/>
      <point x="499.875" y="625.5"/>
    </contour>
  </outline>
</glyph>
<glyph name="B" format="2">
  <advance width="1174.0"/>
  <unicode hex="0042"/>
  <anchor x="444.585" y="0.0" name="bottom"/>
  <anchor x="790.507" y="1291.0" name="top"/>
  <outline>
    <contour>
      <point x="21.375" y="17.625" type="curve"/>
      <point x="73.625" y="7.5"/>
      <point x="153.25" y="3.25"/>
      <point x="230.125" y="3.25" type="curve" smooth="yes"/>
      <point x="638.375" y="3.25"/>
      <point x="1043.25" y="96.0"/>
      <point x="1043.25" y="448.75" type="curve" smooth="yes"/>
      <point x="1043.25" y="585.75"/>
      <point x="936.75" y="687.125"/>
      <point x="793.375" y="691.625" type="curve" smooth="yes"/>
      <point x="783.875" y="692.0"/>
      <point x="780.625" y="692.0"/>
      <point x="775.5" y="692.0" type="curve"/>
      <point x="931.25" y="724.25"/>
      <point x="1093.5" y="875.0"/>
      <point x="1093.5" y="1060.5" type="curve" smooth="yes"/>
      <point x="1093.5" y="1237.75"/>
      <point x="967.625" y="1306.0"/>
      <point x="783.875" y="1306.0" type="curve" smooth="yes"/>
      <point x="623.125" y="1306.0"/>
      <point x="468.0" y="1293.625"/>
      <point x="378.125" y="1285.0" type="curve"/>
      <point x="367.625" y="1247.875"/>
      <point x="69.75" y="199.0"/>
    </contour>
    <contour>
      <point x="276.5" y="189.875" type="curve"/>
      <point x="383.125" y="584.875" type="line"/>
      <point x="428.875" y="589.875"/>
      <point x="543.375" y="591.875"/>
      <point x="577.375" y="591.875" type="curve" smooth="yes"/>
      <point x="764.5" y="591.875"/>
      <point x="854.75" y="552.125"/>
      <point x="854.75" y="441.75" type="curve" smooth="yes"/>
      <point x="854.75" y="216.75"/>
      <point x="565.375" y="189.5"/>
      <point x="323.5" y="189.5" type="curve" smooth="yes"/>
      <point x="302.5" y="189.5"/>
      <point x="285.375" y="189.5"/>
    </contour>
    <contour>
      <point x="423.375" y="746.375" type="curve"/>
      <point x="526.5" y="1142.625" type="line"/>
      <point x="571.625" y="1148.875"/>
      <point x="656.0" y="1159.25"/>
      <point x="729.0" y="1159.25" type="curve" smooth="yes"/>
      <point x="838.5" y="1159.25"/>
      <point x="907.125" y="1126.125"/>
      <point x="907.125" y="1015.75" type="curve" smooth="yes"/>
      <point x="907.125" y="891.0"/>
      <point x="806.375" y="819.5"/>
      <point x="702.75" y="782.0" type="curve" smooth="yes"/>
      <point x="642.625" y="753.875"/>
      <point x="570.25" y="747.625"/>
    </contour>
  </outline>
</glyph>
<glyph name="C" format="2">
  <advance width="1137.0"/>
  <unicode hex="0043"/>
  <anchor x="408.094375" y="0.0" name="bottom"/>
  <anchor x="754.065125" y="1291.0" name="top"/>
  <outline>
    <contour>
      <point x="1024.0" y="250.0" type="curve"/>
      <point x="1009.0" y="291.125"/>
      <point x="946.875" y="370.25"/>
      <point x="912.25" y="398.375" type="curve"/>
      <point x="826.25" y="310.375"/>
      <point x="689.5" y="191.25"/>
      <point x="522.375" y="191.25" type="curve" smooth="yes"/>
      <point x="375.875" y="191.25"/>
      <point x="307.5" y="315.875"/>
      <point x="307.5" y="514.25" type="curve" smooth="yes"/>
      <point x="307.5" y="799.5"/>
      <point x="499.75" y="1143.875"/>
      <point x="774.625" y="1143.875" type="curve" smooth="yes"/>
      <point x="987.125" y="1143.875"/>
      <point x="1020.25" y="1000.0"/>
      <point x="1025.625" y="961.5" type="curve"/>
      <point x="1073.75" y="987.5"/>
      <point x="1166.375" y="1047.5"/>
      <point x="1208.5" y="1084.375" type="curve"/>
      <point x="1165.875" y="1236.0"/>
      <point x="995.5" y="1326.0"/>
      <point x="804.75" y="1326.0" type="curve" smooth="yes"/>
      <point x="394.25" y="1326.0"/>
      <point x="82.375" y="912.5"/>
      <point x="82.375" y="466.75" type="curve" smooth="yes"/>
      <point x="82.375" y="212.375"/>
      <point x="212.875" y="-9.625"/>
      <point x="490.375" y="-9.625" type="curve" smooth="yes"/>
      <point x="712.5" y="-9.625"/>
      <point x="890.5" y="106.75"/>
    </contour>
  </outline>
</glyph>
<glyph name="D" format="2">
  <advance width="1198.0"/>
  <unicode hex="0044"/>
  <anchor x="456.585" y="0.0" name="bottom"/>
  <anchor x="392.125" y="646.0" name="center"/>
  <anchor x="716.0" y="1291.0" name="top"/>
  <outline>
    <contour>
      <point x="93.375" y="-29.625" type="curve"/>
      <point x="818.375" y="-15.25"/>
      <point x="1121.125" y="270.75"/>
      <point x="1121.125" y="807.875" type="curve" smooth="yes"/>
      <point x="1121.125" y="1100.375"/>
      <point x="995.625" y="1325.0"/>
      <point x="643.25" y="1325.0" type="curve" smooth="yes"/>
      <point x="541.875" y="1325.0"/>
      <point x="393.375" y="1308.75"/>
      <point x="334.125" y="1299.0" type="curve"/>
      <point x="318.875" y="1224.5"/>
      <point x="129.375" y="203.625"/>
    </contour>
    <contour>
      <point x="333.125" y="176.0" type="curve"/>
      <point x="387.875" y="478.75"/>
      <point x="454.375" y="830.5"/>
      <point x="516.375" y="1147.375" type="curve"/>
      <point x="549.375" y="1149.625"/>
      <point x="610.375" y="1152.125"/>
      <point x="642.25" y="1152.125" type="curve" smooth="yes"/>
      <point x="854.25" y="1152.125"/>
      <point x="917.375" y="1003.0"/>
      <point x="917.375" y="792.375" type="curve" smooth="yes"/>
      <point x="917.375" y="481.125"/>
      <point x="766.125" y="201.0"/>
    </contour>
  </outline>
</glyph>
<glyph name="E" format="2">
  <advance width="957.0"/>
  <unicode hex="0045"/>
  <anchor x="336.74062499999997" y="0.0" name="bottom"/>
  <anchor x="587.75" y="0.0" name="ogonek"/>
  <anchor x="683.0" y="1314.75" name="top"/>
  <anchor x="223.691875" y="1291.0" name="topleft"/>
  <outline>
    <contour>
      <point x="690.0" y="-11.25" type="curve"/>
      <point x="704.5" y="13.875"/>
      <point x="747.75" y="124.5"/>
      <point x="767.5" y="191.875" type="curve"/>
      <point x="702.625" y="197.125"/>
      <point x="558.375" y="203.75"/>
      <point x="428.25" y="203.75" type="curve" smooth="yes"/>
      <point x="362.125" y="203.75"/>
      <point x="273.625" y="203.125"/>
      <point x="244.25" y="201.875" type="curve"/>
      <point x="270.875" y="301.375"/>
      <point x="351.125" y="596.25"/>
      <point x="363.875" y="640.125" type="curve"/>
      <point x="430.75" y="642.0"/>
      <point x="705.875" y="637.375"/>
      <point x="753.625" y="636.25" type="curve"/>
      <point x="795.625" y="805.0" type="line"/>
      <point x="705.5" y="804.25"/>
      <point x="485.0" y="795.625"/>
      <point x="409.125" y="793.75" type="curve"/>
      <point x="425.375" y="854.0"/>
      <point x="480.875" y="1053.5"/>
      <point x="501.375" y="1114.875" type="curve"/>
      <point x="1021.75" y="1155.875" type="line"/>
      <point x="1043.375" y="1215.5"/>
      <point x="1059.625" y="1262.25"/>
      <point x="1075.75" y="1322.5" type="curve"/>
      <point x="1020.75" y="1322.5"/>
      <point x="712.25" y="1309.875"/>
      <point x="338.5" y="1251.0" type="curve"/>
      <point x="311.25" y="1169.25"/>
      <point x="245.375" y="945.625"/>
      <point x="156.375" y="613.75" type="curve" smooth="yes"/>
      <point x="107.0" y="429.875"/>
      <point x="54.875" y="222.875"/>
      <point x="6.5" y="12.875" type="curve"/>
      <point x="91.5" y="11.125"/>
      <point x="188.125" y="8.75"/>
      <point x="272.5" y="6.125" type="curve" smooth="yes"/>
      <point x="417.5" y="3.5"/>
      <point x="548.75" y="-2.625"/>
    </contour>
  </outline>
</glyph>
<glyph name="F" format="2">
  <advance width="949.0"/>
  <unicode hex="0046"/>
  <anchor x="325.24062499999997" y="0.0" name="bottom"/>
  <anchor x="671.191875" y="1291.0" name="top"/>
  <outline>
    <contour>
      <point x="262.75" y="-16.25" type="line"/>
      <point x="315.875" y="181.625"/>
      <point x="369.375" y="434.375"/>
      <point x="402.375" y="605.125" type="curve"/>
      <point x="523.125" y="605.125"/>
      <point x="699.875" y="594.75"/>
      <point x="805.75" y="583.0" type="curve"/>
      <point x="824.0" y="631.5"/>
      <point x="843.5" y="695.125"/>
      <point x="855.125" y="745.25" type="curve"/>
      <point x="822.25" y="751.0"/>
      <point x="644.875" y="771.125"/>
      <point x="435.125" y="771.125" type="curve"/>
      <point x="459.625" y="881.875"/>
      <point x="495.75" y="1047.0"/>
      <point x="509.125" y="1123.875" type="curve"/>
      <point x="762.75" y="1123.875"/>
      <point x="940.25" y="1108.625"/>
      <point x="1014.0" y="1100.125" type="curve"/>
      <point x="1026.125" y="1145.625"/>
      <point x="1043.25" y="1221.375"/>
      <point x="1053.125" y="1280.0" type="curve"/>
      <point x="958.0" y="1294.625"/>
      <point x="858.75" y="1304.625"/>
      <point x="726.125" y="1307.125" type="curve" smooth="yes"/>
      <point x="622.75" y="1309.0"/>
      <point x="498.875" y="1308.875"/>
      <point x="350.625" y="1304.75" type="curve"/>
      <point x="267.375" y="904.375"/>
      <point x="159.25" y="424.875"/>
      <point x="49.5" y="-1.125" type="curve"/>
    </contour>
  </outline>
</glyph>
<glyph name="G" format="2">
  <advance width="1275.0"/>
  <unicode hex="0047"/>
  <anchor x="495.585" y="0.0" name="bottom"/>
  <anchor x="841.507" y="1291.0" name="top"/>
  <outline>
    <contour>
      <point x="596.625" y="-48.0" type="curve" smooth="yes"/>
      <point x="938.25" y="-48.0"/>
      <point x="1117.5" y="177.125"/>
      <point x="1199.375" y="484.875" type="curve" smooth="yes"/>
      <point x="1213.625" y="538.875"/>
      <point x="1225.25" y="602.375"/>
      <point x="1231.5" y="658.25" type="curve"/>
      <point x="1075.5" y="695.375"/>
      <point x="807.875" y="724.125"/>
      <point x="660.375" y="730.375" type="curve"/>
      <point x="646.25" y="692.0"/>
      <point x="624.625" y="612.75"/>
      <point x="616.625" y="576.375" type="curve"/>
      <point x="716.875" y="571.375"/>
      <point x="950.875" y="538.375"/>
      <point x="1007.375" y="526.125" type="curve"/>
      <point x="1003.25" y="505.0"/>
      <point x="997.25" y="477.625"/>
      <point x="991.125" y="454.25" type="curve" smooth="yes"/>
      <point x="945.625" y="286.875"/>
      <point x="841.25" y="134.625"/>
      <point x="624.0" y="134.625" type="curve" smooth="yes"/>
      <point x="403.75" y="134.625"/>
      <point x="317.75" y="248.375"/>
      <point x="317.75" y="446.625" type="curve" smooth="yes"/>
      <point x="317.75" y="776.625"/>
      <point x="509.0" y="1144.0"/>
      <point x="828.125" y="1144.0" type="curve" smooth="yes"/>
      <point x="970.875" y="1144.0"/>
      <point x="1046.0" y="1100.25"/>
      <point x="1093.75" y="976.875" type="curve"/>
      <point x="1158.0" y="1011.375"/>
      <point x="1247.625" y="1082.375"/>
      <point x="1278.5" y="1111.875" type="curve"/>
      <point x="1239.125" y="1222.5"/>
      <point x="1088.875" y="1338.0"/>
      <point x="859.375" y="1338.0" type="curve" smooth="yes"/>
      <point x="395.5" y="1338.0"/>
      <point x="109.5" y="902.0"/>
      <point x="109.5" y="421.375" type="curve" smooth="yes"/>
      <point x="109.5" y="125.625"/>
      <point x="280.875" y="-48.0"/>
    </contour>
  </outline>
</glyph>
<glyph name="H" format="2">
  <advance width="1094.0"/>
  <unicode hex="0048"/>
  <anchor x="442.344375" y="0.0" name="bottom"/>
  <anchor x="717.25" y="1063.0" name="center"/>
  <anchor x="732.065125" y="1291.0" name="top"/>
  <anchor x="223.507" y="1291.0" name="topleft"/>
  <outline>
    <contour>
      <point x="44.5" y="0.625" type="curve"/>
      <point x="96.875" y="0.625"/>
      <point x="216.0" y="5.75"/>
      <point x="254.875" y="10.75" type="curve"/>
      <point x="259.75" y="35.5"/>
      <point x="330.75" y="363.5"/>
      <point x="378.0" y="576.125" type="curve"/>
      <point x="445.375" y="576.125"/>
      <point x="694.625" y="582.375"/>
      <point x="764.25" y="584.375" type="curve"/>
      <point x="719.0" y="430.375"/>
      <point x="660.625" y="215.0"/>
      <point x="609.5" y="-0.5" type="curve"/>
      <point x="675.625" y="-0.5"/>
      <point x="765.0" y="2.0"/>
      <point x="800.25" y="5.75" type="curve"/>
      <point x="819.625" y="85.25"/>
      <point x="858.25" y="234.75"/>
      <point x="904.375" y="391.25" type="curve" smooth="yes"/>
      <point x="997.0" y="715.25"/>
      <point x="1133.0" y="1160.25"/>
      <point x="1190.375" y="1299.0" type="curve"/>
      <point x="1164.375" y="1303.375"/>
      <point x="1102.125" y="1306.5"/>
      <point x="1048.5" y="1306.5" type="curve" smooth="yes"/>
      <point x="1023.0" y="1306.5"/>
      <point x="995.375" y="1305.375"/>
      <point x="981.25" y="1304.0" type="curve"/>
      <point x="929.375" y="1148.25"/>
      <point x="858.75" y="913.5"/>
      <point x="816.0" y="770.125" type="curve"/>
      <point x="742.75" y="768.25"/>
      <point x="492.375" y="757.5"/>
      <point x="416.75" y="749.5" type="curve"/>
      <point x="425.0" y="783.75"/>
      <point x="454.625" y="908.625"/>
      <point x="486.5" y="1030.625" type="curve" smooth="yes"/>
      <point x="509.125" y="1118.0"/>
      <point x="536.25" y="1221.5"/>
      <point x="556.125" y="1292.0" type="curve"/>
      <point x="503.75" y="1292.0"/>
      <point x="379.125" y="1285.0"/>
      <point x="353.375" y="1282.0" type="curve"/>
      <point x="336.625" y="1234.875"/>
      <point x="315.75" y="1162.375"/>
      <point x="292.625" y="1074.5" type="curve" smooth="yes"/>
      <point x="201.875" y="729.0"/>
      <point x="68.25" y="148.25"/>
    </contour>
  </outline>
</glyph>
<glyph name="I" format="2">
  <advance width="524.875"/>
  <unicode hex="0049"/>
  <anchor x="118.875" y="0.0" name="bottom"/>
  <anchor x="207.0" y="-9.0" name="ogonek"/>
  <anchor x="464.875" y="1291.0" name="top"/>
  <anchor x="229.25" y="1291.0" name="topleft"/>
  <outline>
    <contour>
      <point x="207.0" y="-9.0" type="curve"/>
      <point x="234.0" y="64.0"/>
      <point x="329.625" y="412.0"/>
      <point x="372.0" y="569.875" type="curve" smooth="yes"/>
      <point x="428.125" y="780.5"/>
      <point x="500.5" y="1074.875"/>
      <point x="558.375" y="1321.125" type="curve"/>
      <point x="507.25" y="1321.125"/>
      <point x="398.75" y="1318.25"/>
      <point x="369.375" y="1316.25" type="curve"/>
      <point x="294.625" y="1052.0"/>
      <point x="228.625" y="812.375"/>
      <point x="178.25" y="623.125" type="curve" smooth="yes"/>
      <point x="125.875" y="425.5"/>
      <point x="53.875" y="144.75"/>
      <point x="19.625" y="-0.5" type="curve"/>
      <point x="67.25" y="-7.375"/>
      <point x="161.625" y="-9.0"/>
    </contour>
  </outline>
</glyph>
<glyph name="J" format="2">
  <advance width="1178.0"/>
  <unicode hex="004A"/>
  <anchor x="446.585" y="0.0" name="bottom"/>
  <anchor x="1078.875" y="1291.0" name="top"/>
  <outline>
    <contour>
      <point x="458.75" y="-19.0" type="curve" smooth="yes"/>
      <point x="763.625" y="-19.0"/>
      <point x="954.5" y="197.125"/>
      <point x="1057.875" y="595.875" type="curve" smooth="yes"/>
      <point x="1107.625" y="786.25"/>
      <point x="1175.375" y="1130.625"/>
      <point x="1204.875" y="1300.75" type="curve"/>
      <point x="1177.75" y="1304.375"/>
      <point x="1145.0" y="1306.375"/>
      <point x="1106.0" y="1306.375" type="curve" smooth="yes"/>
      <point x="1068.25" y="1306.375"/>
      <point x="1022.625" y="1301.75"/>
      <point x="989.25" y="1295.0" type="curve"/>
      <point x="986.875" y="1273.0"/>
      <point x="901.125" y="798.75"/>
      <point x="846.125" y="592.375" type="curve" smooth="yes"/>
      <point x="778.25" y="339.25"/>
      <point x="669.625" y="175.875"/>
      <point x="495.625" y="175.875" type="curve" smooth="yes"/>
      <point x="325.5" y="175.875"/>
      <point x="265.625" y="326.875"/>
      <point x="265.625" y="497.875" type="curve"/>
      <point x="208.875" y="478.0"/>
      <point x="89.375" y="428.0"/>
      <point x="47.0" y="403.125" type="curve"/>
      <point x="53.875" y="158.0"/>
      <point x="191.375" y="-19.0"/>
    </contour>
  </outline>
</glyph>
<glyph name="K" format="2">
  <advance width="1081.25"/>
  <unicode hex="004B"/>
  <anchor x="415.585" y="0.0" name="bottom"/>
  <anchor x="761.507" y="1291.0" name="top"/>
  <outline>
    <contour>
      <point x="41.375" y="-32.0" type="curve"/>
      <point x="125.5" y="-24.5"/>
      <point x="229.0" y="-13.875"/>
      <point x="258.0" y="-11.25" type="curve"/>
      <point x="266.0" y="19.125"/>
      <point x="337.0" y="340.125"/>
      <point x="378.25" y="541.5" type="curve"/>
      <point x="399.625" y="550.75"/>
      <point x="445.5" y="574.125"/>
      <point x="471.5" y="591.125" type="curve"/>
      <point x="598.5" y="399.375"/>
      <point x="693.625" y="50.125"/>
      <point x="701.75" y="-0.625" type="curve"/>
      <point x="761.0" y="17.875"/>
      <point x="863.5" y="64.125"/>
      <point x="905.25" y="89.5" type="curve"/>
      <point x="890.0" y="162.875"/>
      <point x="759.625" y="510.75"/>
      <point x="628.125" y="697.125" type="curve"/>
      <point x="901.375" y="873.25"/>
      <point x="1135.25" y="1109.875"/>
      <point x="1199.625" y="1184.25" type="curve"/>
      <point x="1174.25" y="1199.125"/>
      <point x="1102.25" y="1248.75"/>
      <point x="1055.0" y="1292.25" type="curve"/>
      <point x="862.5" y="1065.75"/>
      <point x="580.875" y="855.125"/>
      <point x="419.625" y="752.125" type="curve"/>
      <point x="463.875" y="962.0"/>
      <point x="523.625" y="1234.125"/>
      <point x="536.0" y="1297.0" type="curve"/>
      <point x="517.75" y="1300.875"/>
      <point x="482.0" y="1304.125"/>
      <point x="443.25" y="1304.125" type="curve" smooth="yes"/>
      <point x="408.625" y="1304.125"/>
      <point x="365.875" y="1301.625"/>
      <point x="337.375" y="1296.0" type="curve"/>
      <point x="283.25" y="1033.875"/>
      <point x="113.125" y="262.5"/>
    </contour>
  </outline>
</glyph>
<glyph name="L" format="2">
  <advance width="961.0"/>
  <unicode hex="004C"/>
  <anchor x="338.585" y="0.0" name="bottom"/>
  <anchor x="511.68" y="646.0" name="center"/>
  <anchor x="480.5" y="1297.5" name="top"/>
  <anchor x="628.5" y="908.5" name="topright"/>
  <outline>
    <contour>
      <point x="18.375" y="12.875" type="curve"/>
      <point x="118.375" y="8.75"/>
      <point x="227.125" y="7.375"/>
      <point x="341.625" y="10.5" type="curve" smooth="yes"/>
      <point x="464.625" y="13.625"/>
      <point x="603.75" y="21.5"/>
      <point x="757.375" y="37.375" type="curve"/>
      <point x="775.625" y="94.125"/>
      <point x="801.125" y="192.125"/>
      <point x="807.625" y="230.875" type="curve"/>
      <point x="635.0" y="230.875"/>
      <point x="427.625" y="221.0"/>
      <point x="286.875" y="212.875" type="curve"/>
      <point x="304.25" y="264.25"/>
      <point x="329.125" y="348.0"/>
      <point x="357.625" y="448.25" type="curve" smooth="yes"/>
      <point x="442.625" y="737.875"/>
      <point x="542.125" y="1101.5"/>
      <point x="582.875" y="1292.0" type="curve"/>
      <point x="570.125" y="1294.5"/>
      <point x="521.75" y="1297.5"/>
      <point x="490.125" y="1297.5" type="curve" smooth="yes"/>
      <point x="441.625" y="1297.5"/>
      <point x="388.0" y="1292.75"/>
      <point x="364.875" y="1289.5" type="curve"/>
      <point x="332.625" y="1151.25"/>
      <point x="263.0" y="883.25"/>
      <point x="194.5" y="627.375" type="curve" smooth="yes"/>
      <point x="126.0" y="371.125"/>
      <point x="53.5" y="122.875"/>
    </contour>
  </outline>
</glyph>
<glyph name="M" format="2">
  <advance width="1421.375"/>
  <unicode hex="004D"/>
  <anchor x="554.625" y="0.0" name="bottom"/>
  <anchor x="900.625" y="1291.0" name="top"/>
  <outline>
    <contour>
      <point x="-10.0" y="-11.125" type="curve"/>
      <point x="57.75" y="-11.125"/>
      <point x="148.375" y="-8.5"/>
      <point x="195.875" y="-6.125" type="curve"/>
      <point x="215.625" y="66.375"/>
      <point x="373.125" y="654.0"/>
      <point x="462.75" y="987.625" type="curve"/>
      <point x="470.375" y="803.25"/>
      <point x="486.125" y="90.375"/>
      <point x="483.875" y="50.875" type="curve"/>
      <point x="507.75" y="44.25"/>
      <point x="583.5" y="37.625"/>
      <point x="631.625" y="39.125" type="curve"/>
      <point x="696.0" y="119.75"/>
      <point x="1097.125" y="750.625"/>
      <point x="1198.5" y="942.875" type="curve"/>
      <point x="1177.75" y="863.75"/>
      <point x="1123.625" y="657.375"/>
      <point x="1077.625" y="494.0" type="curve" smooth="yes"/>
      <point x="1028.0" y="317.25"/>
      <point x="974.875" y="138.75"/>
      <point x="927.125" y="5.875" type="curve"/>
      <point x="969.375" y="2.125"/>
      <point x="1056.125" y="-2.875"/>
      <point x="1118.75" y="-2.875" type="curve"/>
      <point x="1166.875" y="134.875"/>
      <point x="1250.5" y="420.375"/>
      <point x="1317.625" y="671.875" type="curve" smooth="yes"/>
      <point x="1379.125" y="901.625"/>
      <point x="1430.375" y="1123.375"/>
      <point x="1437.875" y="1249.125" type="curve"/>
      <point x="1386.75" y="1257.5"/>
      <point x="1262.0" y="1262.5"/>
      <point x="1205.875" y="1262.5" type="curve"/>
      <point x="1125.625" y="1099.25"/>
      <point x="750.75" y="476.0"/>
      <point x="633.125" y="279.125" type="curve"/>
      <point x="645.875" y="476.75"/>
      <point x="610.875" y="1231.125"/>
      <point x="609.625" y="1262.0" type="curve"/>
      <point x="596.0" y="1262.0"/>
      <point x="439.125" y="1260.625"/>
      <point x="353.875" y="1251.5" type="curve"/>
      <point x="276.125" y="1004.75"/>
      <point x="77.0" y="313.25"/>
    </contour>
  </outline>
</glyph>
<glyph name="N" format="2">
  <advance width="1282.0"/>
  <unicode hex="004E"/>
  <anchor x="498.585" y="0.0" name="bottom"/>
  <anchor x="844.507" y="1291.0" name="top"/>
  <outline>
    <contour>
      <point x="280.375" y="-5.75" type="curve"/>
      <point x="316.25" y="127.875"/>
      <point x="492.75" y="843.0"/>
      <point x="516.125" y="963.25" type="curve"/>
      <point x="582.5" y="760.0"/>
      <point x="766.625" y="121.125"/>
      <point x="797.375" y="4.0" type="curve"/>
      <point x="822.25" y="0.0"/>
      <point x="858.5" y="-1.125"/>
      <point x="896.0" y="-1.125" type="curve" smooth="yes"/>
      <point x="923.375" y="-1.125"/>
      <point x="951.625" y="-0.75"/>
      <point x="980.625" y="0.625" type="curve"/>
      <point x="999.375" y="36.125"/>
      <point x="1054.375" y="210.5"/>
      <point x="1102.0" y="391.0" type="curve" smooth="yes"/>
      <point x="1166.875" y="638.5"/>
      <point x="1267.25" y="1042.625"/>
      <point x="1307.25" y="1231.375" type="curve"/>
      <point x="1271.375" y="1244.75"/>
      <point x="1166.5" y="1256.75"/>
      <point x="1105.5" y="1256.75" type="curve"/>
      <point x="887.875" y="290.125" type="line"/>
      <point x="828.625" y="539.5"/>
      <point x="718.75" y="953.5"/>
      <point x="600.75" y="1254.125" type="curve"/>
      <point x="551.875" y="1263.0"/>
      <point x="438.125" y="1270.25"/>
      <point x="396.75" y="1270.25" type="curve"/>
      <point x="379.875" y="1195.375"/>
      <point x="341.25" y="1046.25"/>
      <point x="300.625" y="894.125" type="curve" smooth="yes"/>
      <point x="216.25" y="574.5"/>
      <point x="80.375" y="60.875"/>
      <point x="65.875" y="2.25" type="curve"/>
      <point x="108.875" y="-1.5"/>
      <point x="211.25" y="-7.0"/>
    </contour>
  </outline>
</glyph>
<glyph name="O" format="2">
  <advance width="1354.0"/>
  <unicode hex="004F"/>
  <anchor x="534.585" y="0.0" name="bottom"/>
  <anchor x="655.375" y="646.0" name="center"/>
  <anchor x="813.125" y="0.0" name="ogonek"/>
  <anchor x="880.507" y="1291.0" name="top"/>
  <anchor x="223.507" y="1291.0" name="topleft"/>
  <anchor x="1177.375" y="1179.375" name="topright"/>
  <outline>
    <contour>
      <point x="553.375" y="-51.0" type="curve" smooth="yes"/>
      <point x="1021.375" y="-51.0"/>
      <point x="1273.875" y="335.375"/>
      <point x="1273.875" y="831.375" type="curve" smooth="yes"/>
      <point x="1273.875" y="1099.5"/>
      <point x="1167.625" y="1320.0"/>
      <point x="848.25" y="1320.0" type="curve" smooth="yes"/>
      <point x="383.5" y="1320.0"/>
      <point x="114.0" y="919.125"/>
      <point x="114.0" y="414.625" type="curve" smooth="yes"/>
      <point x="114.0" y="144.375"/>
      <point x="245.875" y="-51.0"/>
    </contour>
    <contour>
      <point x="575.25" y="148.125" type="curve" smooth="yes"/>
      <point x="391.125" y="148.125"/>
      <point x="320.25" y="290.25"/>
      <point x="320.25" y="463.0" type="curve" smooth="yes"/>
      <point x="320.25" y="827.625"/>
      <point x="499.25" y="1147.5"/>
      <point x="834.625" y="1147.5" type="curve" smooth="yes"/>
      <point x="1028.5" y="1147.5"/>
      <point x="1084.875" y="982.75"/>
      <point x="1084.875" y="813.625" type="curve" smooth="yes"/>
      <point x="1084.875" y="452.375"/>
      <point x="904.75" y="148.125"/>
    </contour>
  </outline>
</glyph>
<glyph name="P" format="2">
  <advance width="1010.0"/>
  <unicode hex="0050"/>
  <anchor x="355.24062499999997" y="0.0" name="bottom"/>
  <anchor x="701.191875" y="1291.0" name="top"/>
  <outline>
    <contour>
      <point x="-13.5" y="-17.75" type="curve"/>
      <point x="30.625" y="-20.625"/>
      <point x="145.125" y="-22.75"/>
      <point x="191.125" y="-22.75" type="curve"/>
      <point x="254.625" y="185.625"/>
      <point x="354.5" y="527.25"/>
      <point x="375.0" y="602.875" type="curve"/>
      <point x="421.125" y="594.5"/>
      <point x="492.125" y="588.375"/>
      <point x="541.5" y="588.375" type="curve" smooth="yes"/>
      <point x="845.25" y="588.375"/>
      <point x="1072.125" y="742.875"/>
      <point x="1072.125" y="1026.5" type="curve" smooth="yes"/>
      <point x="1072.125" y="1199.25"/>
      <point x="946.625" y="1287.0"/>
      <point x="737.875" y="1287.0" type="curve" smooth="yes"/>
      <point x="592.375" y="1287.0"/>
      <point x="474.625" y="1271.75"/>
      <point x="367.75" y="1251.0" type="curve"/>
      <point x="223.75" y="810.125"/>
      <point x="59.125" y="240.625"/>
    </contour>
    <contour>
      <point x="418.875" y="772.875" type="curve"/>
      <point x="430.125" y="810.875"/>
      <point x="514.75" y="1100.75"/>
      <point x="518.375" y="1121.75" type="curve"/>
      <point x="596.25" y="1131.625"/>
      <point x="665.875" y="1136.5"/>
      <point x="717.25" y="1136.5" type="curve" smooth="yes"/>
      <point x="826.875" y="1136.5"/>
      <point x="892.375" y="1097.25"/>
      <point x="892.375" y="990.25" type="curve" smooth="yes"/>
      <point x="892.375" y="836.875"/>
      <point x="750.0" y="757.75"/>
      <point x="571.875" y="757.75" type="curve" smooth="yes"/>
      <point x="512.5" y="757.75"/>
      <point x="460.5" y="764.5"/>
    </contour>
  </outline>
</glyph>
<glyph name="Q" format="2">
  <advance width="1291.0"/>
  <unicode hex="0051"/>
  <anchor x="503.585" y="0.0" name="bottom"/>
  <anchor x="849.507" y="1291.0" name="top"/>
  <outline>
    <contour>
      <point x="979.0" y="-89.5" type="curve"/>
      <point x="1023.375" y="-54.5"/>
      <point x="1078.625" y="1.375"/>
      <point x="1113.25" y="44.625" type="curve"/>
      <point x="1042.875" y="70.625"/>
      <point x="972.125" y="110.75"/>
      <point x="932.875" y="165.25" type="curve"/>
      <point x="1138.0" y="310.5"/>
      <point x="1232.125" y="601.25"/>
      <point x="1232.125" y="873.0" type="curve" smooth="yes"/>
      <point x="1232.125" y="1127.375"/>
      <point x="1120.5" y="1299.0"/>
      <point x="829.0" y="1299.0" type="curve" smooth="yes"/>
      <point x="420.625" y="1299.0"/>
      <point x="135.625" y="861.875"/>
      <point x="135.625" y="419.125" type="curve" smooth="yes"/>
      <point x="135.625" y="178.25"/>
      <point x="244.875" y="-2.875"/>
      <point x="503.875" y="-2.875" type="curve" smooth="yes"/>
      <point x="653.25" y="-2.875"/>
      <point x="749.375" y="55.5"/>
      <point x="784.0" y="81.5" type="curve"/>
      <point x="808.75" y="44.5"/>
      <point x="925.125" y="-66.125"/>
    </contour>
    <contour>
      <point x="715.375" y="228.625" type="curve"/>
      <point x="695.375" y="212.25"/>
      <point x="641.875" y="171.125"/>
      <point x="551.375" y="171.125" type="curve" smooth="yes"/>
      <point x="387.375" y="171.125"/>
      <point x="337.125" y="283.375"/>
      <point x="337.125" y="436.875" type="curve" smooth="yes"/>
      <point x="337.125" y="780.625"/>
      <point x="511.5" y="1136.0"/>
      <point x="814.125" y="1136.0" type="curve" smooth="yes"/>
      <point x="990.125" y="1136.0"/>
      <point x="1052.25" y="1024.5"/>
      <point x="1052.25" y="853.75" type="curve" smooth="yes"/>
      <point x="1052.25" y="661.25"/>
      <point x="990.875" y="415.0"/>
      <point x="854.0" y="292.375" type="curve"/>
      <point x="802.875" y="360.625"/>
      <point x="773.25" y="474.25"/>
      <point x="759.25" y="548.0" type="curve"/>
      <point x="719.875" y="527.375"/>
      <point x="643.75" y="481.5"/>
      <point x="615.125" y="460.875" type="curve"/>
      <point x="630.75" y="384.0"/>
      <point x="674.5" y="275.75"/>
    </contour>
  </outline>
</glyph>
<glyph name="R" format="2">
  <advance width="1094.0"/>
  <unicode hex="0052"/>
  <anchor x="404.585" y="0.0" name="bottom"/>
  <anchor x="692.0" y="1324.75" name="top"/>
  <outline>
    <contour>
      <point x="32.75" y="-27.125" type="curve"/>
      <point x="102.625" y="-27.125"/>
      <point x="201.25" y="-24.375"/>
      <point x="253.125" y="-14.25" type="curve"/>
      <point x="286.25" y="141.875"/>
      <point x="367.25" y="542.125"/>
      <point x="376.375" y="599.125" type="curve"/>
      <point x="415.25" y="599.5"/>
      <point x="524.75" y="609.0"/>
      <point x="607.125" y="629.625" type="curve"/>
      <point x="641.75" y="511.875"/>
      <point x="653.125" y="198.375"/>
      <point x="653.125" y="-17.25" type="curve"/>
      <point x="677.25" y="-15.875"/>
      <point x="792.875" y="14.125"/>
      <point x="860.5" y="47.125" type="curve"/>
      <point x="857.875" y="173.375"/>
      <point x="827.125" y="546.0"/>
      <point x="780.625" y="678.0" type="curve"/>
      <point x="959.25" y="744.25"/>
      <point x="1070.125" y="856.875"/>
      <point x="1070.125" y="1049.75" type="curve" smooth="yes"/>
      <point x="1070.125" y="1248.625"/>
      <point x="938.25" y="1324.75"/>
      <point x="728.5" y="1324.75" type="curve" smooth="yes"/>
      <point x="600.375" y="1324.75"/>
      <point x="413.25" y="1314.125"/>
      <point x="316.75" y="1303.0" type="curve"/>
      <point x="223.625" y="845.75"/>
      <point x="114.375" y="312.0"/>
    </contour>
    <contour>
      <point x="405.0" y="758.125" type="curve"/>
      <point x="413.625" y="806.125"/>
      <point x="467.75" y="1103.5"/>
      <point x="477.0" y="1161.75" type="curve"/>
      <point x="503.75" y="1164.75"/>
      <point x="641.625" y="1175.75"/>
      <point x="684.625" y="1175.75" type="curve" smooth="yes"/>
      <point x="806.75" y="1175.75"/>
      <point x="885.125" y="1143.625"/>
      <point x="885.125" y="1024.625" type="curve" smooth="yes"/>
      <point x="885.125" y="862.875"/>
      <point x="776.875" y="815.875"/>
      <point x="597.125" y="779.5" type="curve" smooth="yes"/>
      <point x="519.125" y="764.5"/>
      <point x="463.125" y="758.125"/>
    </contour>
  </outline>
</glyph>
<glyph name="S" format="2">
  <advance width="1152.0"/>
  <unicode hex="0053"/>
  <anchor x="473.625" y="0.0" name="bottom"/>
  <anchor x="735.0" y="1325.25" name="top"/>
  <outline>
    <contour>
      <point x="473.625" y="-12.375" type="curve" smooth="yes"/>
      <point x="765.875" y="-12.375"/>
      <point x="1042.375" y="151.25"/>
      <point x="1042.375" y="458.875" type="curve" smooth="yes"/>
      <point x="1042.375" y="679.375"/>
      <point x="856.25" y="755.625"/>
      <point x="640.125" y="826.625" type="curve" smooth="yes"/>
      <point x="547.625" y="855.125"/>
      <point x="459.625" y="893.125"/>
      <point x="459.625" y="994.0" type="curve" smooth="yes"/>
      <point x="459.625" y="1127.375"/>
      <point x="585.375" y="1192.875"/>
      <point x="725.25" y="1192.875" type="curve" smooth="yes"/>
      <point x="906.625" y="1192.875"/>
      <point x="1004.625" y="1097.0"/>
      <point x="1043.5" y="1037.375" type="curve"/>
      <point x="1082.625" y="1061.625"/>
      <point x="1145.875" y="1128.125"/>
      <point x="1180.625" y="1174.75" type="curve"/>
      <point x="1129.5" y="1259.25"/>
      <point x="952.0" y="1349.0"/>
      <point x="743.625" y="1349.0" type="curve" smooth="yes"/>
      <point x="482.625" y="1349.0"/>
      <point x="258.75" y="1220.125"/>
      <point x="258.75" y="962.875" type="curve" smooth="yes"/>
      <point x="258.75" y="791.375"/>
      <point x="392.375" y="711.625"/>
      <point x="575.25" y="649.5" type="curve" smooth="yes"/>
      <point x="736.875" y="598.5"/>
      <point x="839.5" y="540.875"/>
      <point x="839.5" y="419.375" type="curve" smooth="yes"/>
      <point x="839.5" y="243.875"/>
      <point x="676.125" y="152.625"/>
      <point x="503.875" y="152.625" type="curve" smooth="yes"/>
      <point x="300.875" y="152.625"/>
      <point x="206.125" y="330.75"/>
      <point x="168.875" y="407.5" type="curve"/>
      <point x="124.875" y="386.625"/>
      <point x="23.125" y="296.0"/>
      <point x="1.5" y="273.75" type="curve"/>
      <point x="52.5" y="146.75"/>
      <point x="224.75" y="-12.375"/>
    </contour>
  </outline>
</glyph>
<glyph name="T" format="2">
  <advance width="1039.0"/>
  <unicode hex="0054"/>
  <anchor x="401.75" y="0.0" name="bottom"/>
  <anchor x="550.8" y="646.0" name="center"/>
  <anchor x="723.507" y="1291.0" name="top"/>
  <outline>
    <contour>
      <point x="211.125" y="1139.875" type="curve"/>
      <point x="306.375" y="1143.0"/>
      <point x="488.375" y="1149.125"/>
      <point x="594.375" y="1153.0" type="curve"/>
      <point x="583.875" y="1114.25"/>
      <point x="569.75" y="1063.25"/>
      <point x="554.0" y="1004.0" type="curve" smooth="yes"/>
      <point x="474.0" y="706.5"/>
      <point x="344.25" y="185.25"/>
      <point x="300.375" y="-14.0" type="curve"/>
      <point x="348.75" y="-14.0"/>
      <point x="466.5" y="-8.25"/>
      <point x="517.5" y="-0.375" type="curve"/>
      <point x="533.25" y="71.375"/>
      <point x="748.75" y="982.75"/>
      <point x="790.5" y="1154.75" type="curve"/>
      <point x="899.0" y="1153.625"/>
      <point x="1096.625" y="1151.125"/>
      <point x="1152.375" y="1149.25" type="curve"/>
      <point x="1168.0" y="1185.25"/>
      <point x="1190.25" y="1253.875"/>
      <point x="1205.125" y="1318.625" type="curve"/>
      <point x="1095.25" y="1333.125"/>
      <point x="954.875" y="1337.875"/>
      <point x="809.625" y="1337.875" type="curve" smooth="yes"/>
      <point x="609.75" y="1337.875"/>
      <point x="400.125" y="1328.5"/>
      <point x="245.625" y="1319.625" type="curve"/>
      <point x="237.5" y="1288.875"/>
      <point x="214.5" y="1181.125"/>
    </contour>
  </outline>
</glyph>
<glyph name="U" format="2">
  <advance width="1212.0"/>
  <unicode hex="0055"/>
  <anchor x="463.585" y="0.0" name="bottom"/>
  <anchor x="670.75" y="0.0" name="ogonek"/>
  <anchor x="839.375" y="1322.375" name="top"/>
  <anchor x="1226.625" y="1174.0" name="topright"/>
  <outline>
    <contour>
      <point x="491.625" y="-37.0" type="curve" smooth="yes"/>
      <point x="892.875" y="-37.0"/>
      <point x="1052.875" y="347.125"/>
      <point x="1194.875" y="870.125" type="curve" smooth="yes"/>
      <point x="1236.0" y="1021.75"/>
      <point x="1270.5" y="1193.125"/>
      <point x="1283.75" y="1308.5" type="curve"/>
      <point x="1257.75" y="1317.125"/>
      <point x="1143.125" y="1329.25"/>
      <point x="1074.625" y="1329.25" type="curve"/>
      <point x="1055.5" y="1181.875"/>
      <point x="980.75" y="869.875"/>
      <point x="941.5" y="721.25" type="curve" smooth="yes"/>
      <point x="852.875" y="385.0"/>
      <point x="723.75" y="191.75"/>
      <point x="547.875" y="191.75" type="curve" smooth="yes"/>
      <point x="432.0" y="191.75"/>
      <point x="373.75" y="264.875"/>
      <point x="373.75" y="407.75" type="curve" smooth="yes"/>
      <point x="373.75" y="507.25"/>
      <point x="413.0" y="685.25"/>
      <point x="463.25" y="870.25" type="curve" smooth="yes"/>
      <point x="508.25" y="1039.0"/>
      <point x="566.375" y="1216.125"/>
      <point x="615.125" y="1351.875" type="curve"/>
      <point x="584.5" y="1356.375"/>
      <point x="540.75" y="1360.125"/>
      <point x="494.75" y="1360.125" type="curve" smooth="yes"/>
      <point x="461.75" y="1360.125"/>
      <point x="423.5" y="1357.0"/>
      <point x="390.0" y="1353.125" type="curve"/>
      <point x="337.25" y="1190.75"/>
      <point x="286.875" y="1027.375"/>
      <point x="248.375" y="876.875" type="curve" smooth="yes"/>
      <point x="194.375" y="665.75"/>
      <point x="159.25" y="482.125"/>
      <point x="159.25" y="338.5" type="curve" smooth="yes"/>
      <point x="159.25" y="101.375"/>
      <point x="247.75" y="-37.0"/>
    </contour>
  </outline>
</glyph>
<glyph name="V" format="2">
  <advance width="1172.375"/>
  <unicode hex="0056"/>
  <anchor x="444.11562499999997" y="0.0" name="bottom"/>
  <anchor x="790.066875" y="1291.0" name="top"/>
  <outline>
    <contour>
      <point x="466.0" y="-20.125" type="curve" smooth="yes"/>
      <point x="514.125" y="-20.125"/>
      <point x="555.625" y="-19.125"/>
      <point x="583.625" y="-16.0" type="curve"/>
      <point x="612.125" y="28.375"/>
      <point x="946.0" y="569.75"/>
      <point x="1310.25" y="1316.625" type="curve"/>
      <point x="1254.875" y="1343.25"/>
      <point x="1165.5" y="1358.5"/>
      <point x="1096.625" y="1361.625" type="curve"/>
      <point x="1080.875" y="1318.875"/>
      <point x="779.75" y="669.375"/>
      <point x="513.625" y="199.875" type="curve"/>
      <point x="516.25" y="537.625"/>
      <point x="510.75" y="1197.125"/>
      <point x="510.75" y="1360.25" type="curve"/>
      <point x="457.25" y="1360.25"/>
      <point x="346.625" y="1347.5"/>
      <point x="286.625" y="1329.75" type="curve"/>
      <point x="286.625" y="1098.75"/>
      <point x="298.625" y="256.625"/>
      <point x="335.0" y="-10.0" type="curve"/>
      <point x="361.75" y="-16.0"/>
      <point x="415.75" y="-20.125"/>
    </contour>
  </outline>
</glyph>
<glyph name="W" format="2">
  <advance width="1344.0"/>
  <unicode hex="0057"/>
  <anchor x="529.585" y="0.0" name="bottom"/>
  <anchor x="875.507" y="1291.0" name="top"/>
  <outline>
    <contour>
      <point x="723.75" y="-16.25" type="curve"/>
      <point x="925.5" y="2.125" type="line"/>
      <point x="969.375" y="78.375"/>
      <point x="1282.125" y="757.625"/>
      <point x="1444.875" y="1366.625" type="curve"/>
      <point x="1235.875" y="1346.25" type="line"/>
      <point x="1158.625" y="1058.375"/>
      <point x="990.25" y="553.0"/>
      <point x="860.75" y="251.125" type="curve"/>
      <point x="864.5" y="411.375"/>
      <point x="869.0" y="848.0"/>
      <point x="871.125" y="889.875" type="curve"/>
      <point x="715.5" y="881.875" type="line"/>
      <point x="681.75" y="834.625"/>
      <point x="396.25" y="458.125"/>
      <point x="305.125" y="299.125" type="curve"/>
      <point x="380.125" y="641.875"/>
      <point x="478.25" y="1002.125"/>
      <point x="569.125" y="1340.0" type="curve"/>
      <point x="354.375" y="1348.5" type="line"/>
      <point x="228.625" y="879.5"/>
      <point x="149.75" y="438.625"/>
      <point x="74.5" y="2.875" type="curve"/>
      <point x="271.25" y="-3.875" type="line"/>
      <point x="315.5" y="59.75"/>
      <point x="653.125" y="527.25"/>
      <point x="712.0" y="619.75" type="curve"/>
      <point x="708.875" y="510.0"/>
      <point x="717.25" y="148.25"/>
    </contour>
  </outline>
</glyph>
<glyph name="X" format="2">
  <advance width="1165.5"/>
  <unicode hex="0058"/>
  <anchor x="445.469375" y="0.0" name="bottom"/>
  <anchor x="791.440125" y="1291.0" name="top"/>
  <outline>
    <contour>
      <point x="539.875" y="670.875" type="curve"/>
      <point x="442.0" y="554.125"/>
      <point x="169.125" y="255.5"/>
      <point x="-47.0" y="45.375" type="curve"/>
      <point x="25.125" y="15.625"/>
      <point x="98.125" y="-3.625"/>
      <point x="166.375" y="-11.0" type="curve"/>
      <point x="191.375" y="14.375"/>
      <point x="552.875" y="393.5"/>
      <point x="619.875" y="485.5" type="curve"/>
      <point x="684.75" y="301.375"/>
      <point x="734.375" y="89.875"/>
      <point x="755.75" y="-29.625" type="curve"/>
      <point x="814.5" y="-21.5"/>
      <point x="899.375" y="1.125"/>
      <point x="964.125" y="36.625" type="curve"/>
      <point x="930.0" y="176.125"/>
      <point x="812.25" y="530.5"/>
      <point x="756.0" y="651.75" type="curve"/>
      <point x="848.875" y="738.25"/>
      <point x="1137.5" y="1038.875"/>
      <point x="1277.625" y="1242.375" type="curve"/>
      <point x="1249.125" y="1268.5"/>
      <point x="1149.375" y="1304.625"/>
      <point x="1074.125" y="1315.5" type="curve"/>
      <point x="1029.25" y="1235.25"/>
      <point x="859.0" y="984.75"/>
      <point x="691.875" y="806.625" type="curve"/>
      <point x="628.5" y="1028.0"/>
      <point x="555.125" y="1254.875"/>
      <point x="516.875" y="1335.125" type="curve"/>
      <point x="456.75" y="1326.375"/>
      <point x="343.5" y="1290.625"/>
      <point x="279.625" y="1263.25" type="curve"/>
      <point x="314.125" y="1204.75"/>
      <point x="465.125" y="910.875"/>
    </contour>
  </outline>
</glyph>
<glyph name="Y" format="2">
  <advance width="1065.0"/>
  <unicode hex="0059"/>
  <anchor x="411.0" y="0.0" name="bottom"/>
  <anchor x="757.0" y="1291.0" name="top"/>
  <anchor x="244.0" y="1291.0" name="topleft"/>
  <outline>
    <contour>
      <point x="450.875" y="524.25" type="curve"/>
      <point x="405.375" y="395.125"/>
      <point x="345.25" y="185.375"/>
      <point x="298.375" y="2.75" type="curve"/>
      <point x="329.75" y="-2.875"/>
      <point x="372.625" y="-6.125"/>
      <point x="413.0" y="-6.125" type="curve" smooth="yes"/>
      <point x="450.0" y="-6.125"/>
      <point x="486.75" y="-2.875"/>
      <point x="503.25" y="0.75" type="curve"/>
      <point x="509.625" y="27.5"/>
      <point x="543.125" y="158.25"/>
      <point x="566.125" y="247.25" type="curve" smooth="yes"/>
      <point x="584.875" y="318.875"/>
      <point x="623.875" y="464.5"/>
      <point x="642.375" y="536.375" type="curve"/>
      <point x="894.75" y="864.75"/>
      <point x="1093.5" y="1103.375"/>
      <point x="1210.5" y="1222.625" type="curve"/>
      <point x="1173.5" y="1252.625"/>
      <point x="1094.875" y="1291.5"/>
      <point x="1025.625" y="1305.25" type="curve"/>
      <point x="937.125" y="1210.375"/>
      <point x="646.25" y="821.375"/>
      <point x="583.0" y="733.875" type="curve"/>
      <point x="548.5" y="874.25"/>
      <point x="494.5" y="1266.375"/>
      <point x="489.625" y="1320.625" type="curve"/>
      <point x="434.625" y="1317.5"/>
      <point x="362.25" y="1304.875"/>
      <point x="278.5" y="1276.25" type="curve"/>
      <point x="300.25" y="1136.25"/>
      <point x="405.5" y="631.75"/>
    </contour>
  </outline>
</glyph>
<glyph name="Z" format="2">
  <advance width="1044.0"/>
  <unicode hex="005A"/>
  <anchor x="379.585" y="0.0" name="bottom"/>
  <anchor x="552.68" y="646.0" name="center"/>
  <anchor x="725.507" y="1291.0" name="top"/>
  <outline>
    <contour>
      <point x="813.625" y="-14.0" type="curve"/>
      <point x="823.125" y="4.875"/>
      <point x="841.875" y="53.625"/>
      <point x="855.25" y="98.875" type="curve" smooth="yes"/>
      <point x="866.5" y="137.625"/>
      <point x="876.625" y="177.875"/>
      <point x="881.125" y="202.0" type="curve"/>
      <point x="809.5" y="198.875"/>
      <point x="727.125" y="196.375"/>
      <point x="649.25" y="196.375" type="curve" smooth="yes"/>
      <point x="495.125" y="196.375"/>
      <point x="338.125" y="201.5"/>
      <point x="259.75" y="208.625" type="curve"/>
      <point x="385.875" y="319.625"/>
      <point x="929.125" y="879.5"/>
      <point x="1152.375" y="1165.0" type="curve"/>
      <point x="1158.625" y="1179.375"/>
      <point x="1169.375" y="1213.625"/>
      <point x="1179.625" y="1252.25" type="curve" smooth="yes"/>
      <point x="1186.5" y="1278.125"/>
      <point x="1194.0" y="1311.125"/>
      <point x="1195.75" y="1330.0" type="curve"/>
      <point x="1159.75" y="1331.5"/>
      <point x="1037.5" y="1330.375"/>
      <point x="1004.875" y="1329.75" type="curve" smooth="yes"/>
      <point x="814.375" y="1326.0"/>
      <point x="539.5" y="1306.625"/>
      <point x="369.25" y="1294.0" type="curve"/>
      <point x="361.75" y="1274.75"/>
      <point x="351.875" y="1242.375"/>
      <point x="343.0" y="1207.5" type="curve" smooth="yes"/>
      <point x="334.875" y="1176.25"/>
      <point x="327.125" y="1139.75"/>
      <point x="323.25" y="1119.0" type="curve"/>
      <point x="525.0" y="1134.5"/>
      <point x="853.25" y="1156.0"/>
      <point x="923.375" y="1156.625" type="curve"/>
      <point x="797.375" y="1003.25"/>
      <point x="248.25" y="407.875"/>
      <point x="17.75" y="205.5" type="curve"/>
      <point x="5.875" y="160.75"/>
      <point x="-17.75" y="61.5"/>
      <point x="-25.25" y="22.0" type="curve"/>
      <point x="298.75" y="-4.25"/>
      <point x="577.625" y="-14.0"/>
    </contour>
  </outline>
</glyph>
<glyph name="bracketleft" format="2">
  <advance width="735.0"/>
  <unicode hex="005B"/>
  <outline>
    <contour>
      <point x="69.375" y="-526.625" type="curve" smooth="yes"/>
      <point x="184.375" y="-526.625"/>
      <point x="289.0" y="-521.375"/>
      <point x="357.625" y="-514.625" type="curve"/>
      <point x="370.125" y="-484.625"/>
      <point x="398.125" y="-403.125"/>
      <point x="410.0" y="-361.625" type="curve"/>
      <point x="358.875" y="-362.875"/>
      <point x="273.75" y="-362.5"/>
      <point x="205.75" y="-361.75" type="curve" smooth="yes"/>
      <point x="131.875" y="-360.625"/>
      <point x="69.25" y="-359.5"/>
      <point x="51.875" y="-357.875" type="curve"/>
      <point x="81.625" y="-192.125"/>
      <point x="159.125" y="129.75"/>
      <point x="246.875" y="457.0" type="curve" smooth="yes"/>
      <point x="346.75" y="830.0"/>
      <point x="462.375" y="1215.75"/>
      <point x="553.75" y="1447.875" type="curve"/>
      <point x="692.0" y="1460.375"/>
      <point x="884.75" y="1474.875"/>
      <point x="953.5" y="1474.875" type="curve"/>
      <point x="960.0" y="1488.75"/>
      <point x="972.0" y="1515.75"/>
      <point x="983.75" y="1546.625" type="curve" smooth="yes"/>
      <point x="992.75" y="1572.0"/>
      <point x="1000.75" y="1597.125"/>
      <point x="1005.625" y="1619.5" type="curve"/>
      <point x="829.875" y="1618.75"/>
      <point x="552.0" y="1601.25"/>
      <point x="412.625" y="1575.5" type="curve"/>
      <point x="314.5" y="1342.375"/>
      <point x="188.5" y="952.75"/>
      <point x="75.625" y="532.125" type="curve" smooth="yes"/>
      <point x="-20.375" y="175.0"/>
      <point x="-106.75" y="-201.625"/>
      <point x="-160.75" y="-519.75" type="curve"/>
      <point x="-87.25" y="-524.25"/>
      <point x="-7.75" y="-526.625"/>
    </contour>
  </outline>
</glyph>
<glyph name="backslash" format="2">
  <advance width="725.0"/>
  <unicode hex="005C"/>
  <outline>
    <contour>
      <point x="573.125" y="-15.25" type="curve"/>
      <point x="469.5" y="403.25"/>
      <point x="399.25" y="1130.5"/>
      <point x="399.25" y="1469.5" type="curve"/>
      <point x="333.75" y="1465.75"/>
      <point x="253.375" y="1446.375"/>
      <point x="222.125" y="1421.375" type="curve"/>
      <point x="237.125" y="878.875"/>
      <point x="289.25" y="381.375"/>
      <point x="391.0" y="-93.125" type="curve"/>
      <point x="442.125" y="-81.25"/>
      <point x="510.375" y="-53.5"/>
    </contour>
  </outline>
</glyph>
<glyph name="bracketright" format="2">
  <advance width="619.0"/>
  <unicode hex="005D"/>
  <outline>
    <contour>
      <point x="647.625" y="522.375" type="curve" smooth="yes"/>
      <point x="769.125" y="976.5"/>
      <point x="834.625" y="1355.5"/>
      <point x="851.25" y="1601.25" type="curve"/>
      <point x="729.75" y="1620.875"/>
      <point x="612.0" y="1627.75"/>
      <point x="477.25" y="1627.75" type="curve" smooth="yes"/>
      <point x="436.375" y="1627.75"/>
      <point x="387.0" y="1627.375"/>
      <point x="347.0" y="1626.625" type="curve"/>
      <point x="334.0" y="1595.0"/>
      <point x="317.0" y="1540.5"/>
      <point x="305.75" y="1500.375" type="curve"/>
      <point x="310.375" y="1492.5"/>
      <point x="324.125" y="1485.0"/>
      <point x="343.875" y="1478.25" type="curve" smooth="yes"/>
      <point x="430.625" y="1477.5"/>
      <point x="566.125" y="1475.0"/>
      <point x="648.5" y="1465.625" type="curve"/>
      <point x="637.125" y="1300.125"/>
      <point x="555.125" y="908.875"/>
      <point x="448.25" y="510.25" type="curve" smooth="yes"/>
      <point x="365.625" y="202.625"/>
      <point x="267.75" y="-111.125"/>
      <point x="177.875" y="-329.375" type="curve"/>
      <point x="134.25" y="-340.0"/>
      <point x="-80.125" y="-357.875"/>
      <point x="-168.0" y="-357.875" type="curve"/>
      <point x="-178.0" y="-391.875"/>
      <point x="-199.0" y="-470.5"/>
      <point x="-208.0" y="-510.875" type="curve"/>
      <point x="-82.75" y="-510.875"/>
      <point x="155.5" y="-501.75"/>
      <point x="319.625" y="-469.375" type="curve"/>
      <point x="437.5" y="-175.25"/>
      <point x="555.125" y="177.25"/>
    </contour>
  </outline>
</glyph>
<glyph name="asciicircum" format="2">
  <advance width="1032.0"/>
  <unicode hex="005E"/>
  <outline>
    <contour>
      <point x="858.5" y="1325.0" type="curve"/>
      <point x="844.75" y="1329.625"/>
      <point x="813.0" y="1333.25"/>
      <point x="777.875" y="1333.25" type="curve" smooth="yes"/>
      <point x="746.875" y="1333.25"/>
      <point x="713.25" y="1330.75"/>
      <point x="689.0" y="1326.0" type="curve"/>
      <point x="544.0" y="1217.0"/>
      <point x="269.75" y="976.0"/>
      <point x="107.25" y="812.0" type="curve"/>
      <point x="137.75" y="772.25"/>
      <point x="194.5" y="742.125"/>
      <point x="237.75" y="730.75" type="curve"/>
      <point x="338.625" y="838.625"/>
      <point x="639.875" y="1112.625"/>
      <point x="806.75" y="1230.875" type="curve"/>
      <point x="722.125" y="1231.25" type="line"/>
      <point x="788.125" y="1142.625"/>
      <point x="906.75" y="854.0"/>
      <point x="919.25" y="740.875" type="curve"/>
      <point x="989.375" y="756.25"/>
      <point x="1043.875" y="777.125"/>
      <point x="1081.25" y="805.0" type="curve"/>
      <point x="1049.0" y="987.5"/>
      <point x="925.75" y="1231.5"/>
    </contour>
  </outline>
</glyph>
<glyph name="underscore" format="2">
  <advance width="1549.0"/>
  <unicode hex="005F"/>
  <outline>
    <contour>
      <point x="256.875" y="14.375" type="curve" smooth="yes"/>
      <point x="187.5" y="14.375"/>
      <point x="0.125" y="14.375"/>
      <point x="-59.0" y="16.375" type="curve"/>
      <point x="-68.5" y="-28.125"/>
      <point x="-85.625" y="-124.75"/>
      <point x="-88.25" y="-149.125" type="curve"/>
      <point x="268.625" y="-155.0"/>
      <point x="724.0" y="-158.625"/>
      <point x="965.75" y="-158.625" type="curve" smooth="yes"/>
      <point x="1123.375" y="-158.625"/>
      <point x="1235.5" y="-156.5"/>
      <point x="1302.875" y="-153.5" type="curve"/>
      <point x="1320.125" y="-112.875"/>
      <point x="1344.125" y="-43.875"/>
      <point x="1365.5" y="36.25" type="curve"/>
      <point x="1157.375" y="27.5"/>
      <point x="697.5" y="14.375"/>
    </contour>
  </outline>
</glyph>
<glyph name="a" format="2">
  <advance width="1295.0"/>
  <unicode hex="0061"/>
  <anchor x="475.625" y="0.0" name="bottom"/>
  <anchor x="1052.75" y="6.25" name="ogonek"/>
  <anchor x="749.25" y="1063.0" name="top"/>
  <outline>
    <contour>
      <point x="402.25" y="-20.625" type="curve" smooth="yes"/>
      <point x="603.75" y="-20.625"/>
      <point x="793.875" y="76.875"/>
      <point x="852.875" y="157.75" type="curve"/>
      <point x="852.875" y="48.625"/>
      <point x="897.875" y="-4.125"/>
      <point x="996.875" y="-4.125" type="curve" smooth="yes"/>
      <point x="1091.625" y="-4.125"/>
      <point x="1182.25" y="55.75"/>
      <point x="1220.25" y="168.125" type="curve"/>
      <point x="1150.25" y="274.875" type="line"/>
      <point x="1126.25" y="207.5"/>
      <point x="1088.125" y="168.875"/>
      <point x="1045.25" y="168.875" type="curve" smooth="yes"/>
      <point x="1017.875" y="168.875"/>
      <point x="1003.375" y="177.25"/>
      <point x="1003.375" y="216.375" type="curve" smooth="yes"/>
      <point x="1003.375" y="292.875"/>
      <point x="1034.125" y="405.625"/>
      <point x="1064.5" y="512.25" type="curve" smooth="yes"/>
      <point x="1086.125" y="590.375"/>
      <point x="1101.0" y="668.375"/>
      <point x="1101.0" y="732.125" type="curve" smooth="yes"/>
      <point x="1101.0" y="960.0"/>
      <point x="944.75" y="1062.875"/>
      <point x="699.875" y="1062.875" type="curve" smooth="yes"/>
      <point x="484.625" y="1062.875"/>
      <point x="287.625" y="969.5"/>
      <point x="166.375" y="839.625" type="curve"/>
      <point x="299.0" y="733.25" type="line"/>
      <point x="376.25" y="822.5"/>
      <point x="510.75" y="900.0"/>
      <point x="664.625" y="900.0" type="curve" smooth="yes"/>
      <point x="806.25" y="900.0"/>
      <point x="909.625" y="847.75"/>
      <point x="919.0" y="733.0" type="curve" smooth="yes"/>
      <point x="924.625" y="691.0"/>
      <point x="923.125" y="652.75"/>
      <point x="916.875" y="617.75" type="curve"/>
      <point x="888.75" y="632.625"/>
      <point x="747.875" y="668.75"/>
      <point x="616.125" y="668.75" type="curve" smooth="yes"/>
      <point x="319.875" y="668.75"/>
      <point x="27.875" y="555.125"/>
      <point x="27.875" y="265.0" type="curve" smooth="yes"/>
      <point x="27.875" y="64.875"/>
      <point x="172.125" y="-20.625"/>
    </contour>
    <contour>
      <point x="466.875" y="136.375" type="curve" smooth="yes"/>
      <point x="310.125" y="136.375"/>
      <point x="232.875" y="180.25"/>
      <point x="232.875" y="298.125" type="curve" smooth="yes"/>
      <point x="232.875" y="453.375"/>
      <point x="430.25" y="524.875"/>
      <point x="606.0" y="524.875" type="curve" smooth="yes"/>
      <point x="742.75" y="524.875"/>
      <point x="853.875" y="495.5"/>
      <point x="888.625" y="482.0" type="curve"/>
      <point x="871.5" y="425.125"/>
      <point x="854.875" y="363.75"/>
      <point x="834.25" y="281.875" type="curve"/>
      <point x="744.125" y="198.375"/>
      <point x="596.375" y="136.375"/>
    </contour>
  </outline>
</glyph>
<glyph name="b" format="2">
  <advance width="1200.0"/>
  <unicode hex="0062"/>
  <anchor x="445.344375" y="0.0" name="bottom"/>
  <anchor x="838.67625" y="1470.0" name="top"/>
  <outline>
    <contour>
      <point x="59.75" y="-14.5" type="curve"/>
      <point x="110.625" y="-19.375"/>
      <point x="211.375" y="-19.625"/>
      <point x="268.0" y="-19.0" type="curve"/>
      <point x="272.5" y="6.75"/>
      <point x="288.25" y="74.375"/>
      <point x="297.875" y="113.375" type="curve"/>
      <point x="325.5" y="74.875"/>
      <point x="422.25" y="3.75"/>
      <point x="577.375" y="3.75" type="curve" smooth="yes"/>
      <point x="912.0" y="3.75"/>
      <point x="1096.125" y="282.625"/>
      <point x="1096.125" y="570.375" type="curve" smooth="yes"/>
      <point x="1096.125" y="800.0"/>
      <point x="1009.875" y="921.125"/>
      <point x="793.375" y="921.125" type="curve" smooth="yes"/>
      <point x="623.375" y="921.125"/>
      <point x="486.0" y="806.625"/>
      <point x="436.25" y="759.75" type="curve"/>
      <point x="489.25" y="1013.875"/>
      <point x="553.375" y="1289.75"/>
      <point x="590.125" y="1435.375" type="curve"/>
      <point x="497.125" y="1423.375"/>
      <point x="411.5" y="1411.25"/>
      <point x="392.5" y="1407.875" type="curve"/>
      <point x="335.5" y="1195.875"/>
      <point x="91.125" y="149.5"/>
    </contour>
    <contour>
      <point x="336.25" y="278.625" type="curve"/>
      <point x="343.75" y="312.375"/>
      <point x="390.75" y="537.75"/>
      <point x="397.625" y="572.875" type="curve"/>
      <point x="461.875" y="639.0"/>
      <point x="589.875" y="753.625"/>
      <point x="729.75" y="753.625" type="curve" smooth="yes"/>
      <point x="869.75" y="753.625"/>
      <point x="904.25" y="676.25"/>
      <point x="904.25" y="533.625" type="curve" smooth="yes"/>
      <point x="904.25" y="336.25"/>
      <point x="778.875" y="183.25"/>
      <point x="573.5" y="183.25" type="curve" smooth="yes"/>
      <point x="442.375" y="183.25"/>
      <point x="359.5" y="249.75"/>
    </contour>
  </outline>
</glyph>
<glyph name="c" format="2">
  <advance width="1026.0"/>
  <unicode hex="0063"/>
  <anchor x="400.5" y="0.0" name="bottom"/>
  <anchor x="648.905625" y="1063.0" name="top"/>
  <outline>
    <contour>
      <point x="878.5" y="207.5" type="curve"/>
      <point x="766.875" y="341.625" type="line"/>
      <point x="748.75" y="314.625"/>
      <point x="634.375" y="193.0"/>
      <point x="467.375" y="193.0" type="curve" smooth="yes"/>
      <point x="317.875" y="193.0"/>
      <point x="263.5" y="288.75"/>
      <point x="263.5" y="422.375" type="curve" smooth="yes"/>
      <point x="263.5" y="684.125"/>
      <point x="416.125" y="934.125"/>
      <point x="668.375" y="934.125" type="curve" smooth="yes"/>
      <point x="845.375" y="934.125"/>
      <point x="869.375" y="810.75"/>
      <point x="872.625" y="779.75" type="curve"/>
      <point x="1033.5" y="870.625" type="line"/>
      <point x="1004.875" y="991.625"/>
      <point x="877.125" y="1094.75"/>
      <point x="691.625" y="1094.75" type="curve" smooth="yes"/>
      <point x="319.75" y="1094.75"/>
      <point x="64.375" y="778.375"/>
      <point x="64.375" y="391.75" type="curve" smooth="yes"/>
      <point x="64.375" y="161.5"/>
      <point x="174.0" y="-7.0"/>
      <point x="418.75" y="-7.0" type="curve" smooth="yes"/>
      <point x="635.875" y="-7.0"/>
      <point x="810.875" y="110.0"/>
    </contour>
  </outline>
</glyph>
<glyph name="d" format="2">
  <advance width="1195.0"/>
  <unicode hex="0064"/>
  <anchor x="444.49062499999997" y="0.0" name="bottom"/>
  <anchor x="1074.0" y="1205.125" name="center"/>
  <anchor x="838.04375" y="1470.0" name="top"/>
  <anchor x="1240.125" y="1007.375" name="topright"/>
  <outline>
    <contour>
      <point x="730.25" y="3.0" type="curve"/>
      <point x="764.875" y="-0.625"/>
      <point x="867.25" y="-2.375"/>
      <point x="905.125" y="-2.375" type="curve"/>
      <point x="1032.375" y="478.5"/>
      <point x="1159.125" y="938.0"/>
      <point x="1321.0" y="1404.875" type="curve"/>
      <point x="1277.5" y="1414.875"/>
      <point x="1207.0" y="1420.25"/>
      <point x="1154.0" y="1420.25" type="curve"/>
      <point x="1122.75" y="1337.75"/>
      <point x="1001.5" y="987.5"/>
      <point x="961.125" y="842.875" type="curve"/>
      <point x="931.125" y="885.5"/>
      <point x="818.25" y="959.0"/>
      <point x="638.0" y="959.0" type="curve" smooth="yes"/>
      <point x="297.875" y="959.0"/>
      <point x="59.125" y="725.25"/>
      <point x="59.125" y="380.25" type="curve" smooth="yes"/>
      <point x="59.125" y="153.75"/>
      <point x="197.125" y="3.875"/>
      <point x="396.375" y="3.875" type="curve" smooth="yes"/>
      <point x="640.375" y="3.875"/>
      <point x="749.0" y="139.75"/>
      <point x="773.75" y="171.875" type="curve"/>
      <point x="765.0" y="140.25"/>
      <point x="738.25" y="37.625"/>
    </contour>
    <contour>
      <point x="466.75" y="188.5" type="curve" smooth="yes"/>
      <point x="338.25" y="188.5"/>
      <point x="251.625" y="264.0"/>
      <point x="251.625" y="422.25" type="curve" smooth="yes"/>
      <point x="251.625" y="650.5"/>
      <point x="404.375" y="790.625"/>
      <point x="633.125" y="790.625" type="curve" smooth="yes"/>
      <point x="771.875" y="790.625"/>
      <point x="873.875" y="724.375"/>
      <point x="909.25" y="683.375" type="curve"/>
      <point x="893.625" y="628.25"/>
      <point x="838.625" y="440.75"/>
      <point x="820.0" y="377.75" type="curve"/>
      <point x="778.625" y="331.125"/>
      <point x="646.625" y="188.5"/>
    </contour>
  </outline>
</glyph>
<glyph name="e" format="2">
  <advance width="1103.625"/>
  <unicode hex="0065"/>
  <anchor x="416.125" y="10.0" name="bottom"/>
  <anchor x="636.75" y="39.875" name="ogonek"/>
  <anchor x="731.375" y="1063.0" name="top"/>
  <outline>
    <contour>
      <point x="964.25" y="223.25" type="curve"/>
      <point x="951.875" y="272.375"/>
      <point x="880.375" y="360.25"/>
      <point x="866.375" y="373.875" type="curve"/>
      <point x="823.0" y="337.375"/>
      <point x="693.125" y="194.0"/>
      <point x="496.875" y="194.0" type="curve" smooth="yes"/>
      <point x="354.5" y="194.0"/>
      <point x="259.5" y="283.75"/>
      <point x="259.5" y="403.125" type="curve" smooth="yes"/>
      <point x="259.5" y="437.25"/>
      <point x="263.125" y="469.5"/>
      <point x="269.375" y="492.0" type="curve"/>
      <point x="339.75" y="502.25"/>
      <point x="516.875" y="515.125"/>
      <point x="645.5" y="518.25" type="curve" smooth="yes"/>
      <point x="757.375" y="521.375"/>
      <point x="984.0" y="520.75"/>
      <point x="1011.625" y="520.0" type="curve"/>
      <point x="1039.75" y="595.125"/>
      <point x="1054.875" y="669.625"/>
      <point x="1054.875" y="742.25" type="curve" smooth="yes"/>
      <point x="1054.875" y="943.125"/>
      <point x="938.375" y="1067.375"/>
      <point x="718.875" y="1067.375" type="curve" smooth="yes"/>
      <point x="352.875" y="1067.375"/>
      <point x="64.375" y="796.375"/>
      <point x="64.375" y="398.0" type="curve" smooth="yes"/>
      <point x="64.375" y="146.625"/>
      <point x="215.625" y="10.875"/>
      <point x="458.25" y="10.875" type="curve" smooth="yes"/>
      <point x="722.375" y="10.875"/>
      <point x="889.375" y="148.125"/>
    </contour>
    <contour>
      <point x="304.625" y="625.25" type="curve"/>
      <point x="341.625" y="811.125"/>
      <point x="519.75" y="926.625"/>
      <point x="693.75" y="926.625" type="curve" smooth="yes"/>
      <point x="830.875" y="926.625"/>
      <point x="880.75" y="840.5"/>
      <point x="881.5" y="748.375" type="curve" smooth="yes"/>
      <point x="881.5" y="715.25"/>
      <point x="877.75" y="678.375"/>
      <point x="870.375" y="652.125" type="curve"/>
      <point x="857.125" y="652.5"/>
      <point x="759.875" y="651.375"/>
      <point x="667.0" y="649.5" type="curve" smooth="yes"/>
      <point x="506.875" y="646.375"/>
      <point x="361.125" y="634.375"/>
    </contour>
  </outline>
</glyph>
<glyph name="f" format="2">
  <advance width="896.0"/>
  <unicode hex="0066"/>
  <anchor x="305.585" y="0.0" name="bottom"/>
  <anchor x="699.47" y="1470.0" name="top"/>
  <outline>
    <contour>
      <point x="165.875" y="-4.375" type="curve"/>
      <point x="224.5" y="-3.75"/>
      <point x="331.75" y="3.0"/>
      <point x="389.375" y="13.375" type="curve"/>
      <point x="390.875" y="92.5"/>
      <point x="418.375" y="445.0"/>
      <point x="430.125" y="542.5" type="curve"/>
      <point x="531.375" y="554.625"/>
      <point x="694.75" y="564.5"/>
      <point x="713.75" y="564.5" type="curve"/>
      <point x="727.875" y="615.375"/>
      <point x="743.625" y="685.875"/>
      <point x="749.125" y="730.375" type="curve"/>
      <point x="689.625" y="732.625"/>
      <point x="520.5" y="722.125"/>
      <point x="453.0" y="715.875" type="curve"/>
      <point x="459.875" y="765.125"/>
      <point x="473.125" y="843.375"/>
      <point x="486.875" y="895.5" type="curve" smooth="yes"/>
      <point x="525.375" y="1041.25"/>
      <point x="602.125" y="1172.625"/>
      <point x="744.0" y="1172.625" type="curve" smooth="yes"/>
      <point x="871.875" y="1172.625"/>
      <point x="902.875" y="1030.0"/>
      <point x="914.0" y="990.5" type="curve"/>
      <point x="943.0" y="1015.25"/>
      <point x="1029.25" y="1100.625"/>
      <point x="1068.25" y="1146.125" type="curve"/>
      <point x="1056.25" y="1203.75"/>
      <point x="983.125" y="1363.875"/>
      <point x="765.875" y="1363.875" type="curve" smooth="yes"/>
      <point x="519.125" y="1363.875"/>
      <point x="356.875" y="1156.125"/>
      <point x="292.25" y="913.625" type="curve" smooth="yes"/>
      <point x="273.625" y="843.125"/>
      <point x="258.375" y="761.0"/>
      <point x="248.0" y="685.75" type="curve"/>
      <point x="219.75" y="680.75"/>
      <point x="92.5" y="650.625"/>
      <point x="64.875" y="641.0" type="curve"/>
      <point x="54.0" y="594.875"/>
      <point x="45.375" y="507.375"/>
      <point x="44.75" y="469.375" type="curve"/>
      <point x="89.75" y="484.375"/>
      <point x="171.5" y="504.625"/>
      <point x="219.5" y="513.25" type="curve"/>
      <point x="197.875" y="347.375"/>
      <point x="167.25" y="14.25"/>
    </contour>
  </outline>
</glyph>
<glyph name="g" format="2">
  <advance width="1231.0"/>
  <unicode hex="0067"/>
  <anchor x="331.572" y="-530.0" name="bottom"/>
  <anchor x="758.415" y="1063.0" name="top"/>
  <outline>
    <contour>
      <point x="577.25" y="230.875" type="curve" smooth="yes"/>
      <point x="890.25" y="230.875"/>
      <point x="1127.375" y="428.5"/>
      <point x="1127.375" y="740.75" type="curve" smooth="yes"/>
      <point x="1127.375" y="793.5"/>
      <point x="1117.125" y="840.125"/>
      <point x="1097.25" y="880.375" type="curve"/>
      <point x="1155.625" y="936.625"/>
      <point x="1247.5" y="1004.375"/>
      <point x="1286.25" y="1025.375" type="curve"/>
      <point x="1267.125" y="1055.125"/>
      <point x="1224.75" y="1125.5"/>
      <point x="1211.0" y="1154.875" type="curve"/>
      <point x="1150.875" y="1119.875"/>
      <point x="1064.75" y="1050.0"/>
      <point x="1006.375" y="983.75" type="curve"/>
      <point x="944.5" y="1030.125"/>
      <point x="856.375" y="1056.0"/>
      <point x="743.25" y="1056.0" type="curve" smooth="yes"/>
      <point x="430.375" y="1056.0"/>
      <point x="168.375" y="862.625"/>
      <point x="168.375" y="559.125" type="curve" smooth="yes"/>
      <point x="168.375" y="493.125"/>
      <point x="183.375" y="427.875"/>
      <point x="220.875" y="372.625" type="curve"/>
      <point x="137.375" y="344.125"/>
      <point x="65.5" y="274.25"/>
      <point x="65.5" y="189.875" type="curve" smooth="yes"/>
      <point x="65.5" y="148.5"/>
      <point x="86.625" y="106.875"/>
      <point x="133.875" y="75.875" type="curve"/>
      <point x="-12.875" y="22.375"/>
      <point x="-127.625" y="-84.25"/>
      <point x="-127.625" y="-235.625" type="curve" smooth="yes"/>
      <point x="-127.625" y="-423.75"/>
      <point x="63.5" y="-499.0"/>
      <point x="337.0" y="-499.0" type="curve" smooth="yes"/>
      <point x="662.375" y="-499.0"/>
      <point x="935.875" y="-392.375"/>
      <point x="935.875" y="-97.25" type="curve" smooth="yes"/>
      <point x="935.875" y="49.25"/>
      <point x="819.0" y="122.625"/>
      <point x="632.125" y="122.625" type="curve" smooth="yes"/>
      <point x="521.375" y="122.625"/>
      <point x="441.75" y="121.125"/>
      <point x="353.875" y="118.875" type="curve" smooth="yes"/>
      <point x="276.75" y="118.875"/>
      <point x="237.25" y="159.0"/>
      <point x="237.25" y="201.875" type="curve" smooth="yes"/>
      <point x="237.25" y="240.125"/>
      <point x="270.25" y="273.25"/>
      <point x="325.25" y="294.875" type="curve"/>
      <point x="383.875" y="256.125"/>
      <point x="465.875" y="230.875"/>
    </contour>
    <contour>
      <point x="367.875" y="-367.125" type="curve" smooth="yes"/>
      <point x="202.5" y="-367.125"/>
      <point x="77.125" y="-321.25"/>
      <point x="77.125" y="-212.125" type="curve" smooth="yes"/>
      <point x="77.125" y="-93.75"/>
      <point x="201.125" y="-27.625"/>
      <point x="319.875" y="-27.625" type="curve" smooth="yes"/>
      <point x="558.875" y="-27.625" type="line" smooth="yes"/>
      <point x="645.375" y="-27.625"/>
      <point x="735.5" y="-51.25"/>
      <point x="735.5" y="-145.375" type="curve" smooth="yes"/>
      <point x="735.5" y="-309.0"/>
      <point x="553.625" y="-367.125"/>
    </contour>
    <contour>
      <point x="587.75" y="388.5" type="curve" smooth="yes"/>
      <point x="452.125" y="388.5"/>
      <point x="375.125" y="468.625"/>
      <point x="375.125" y="583.875" type="curve" smooth="yes"/>
      <point x="375.125" y="782.5"/>
      <point x="537.25" y="899.0"/>
      <point x="733.75" y="899.0" type="curve" smooth="yes"/>
      <point x="867.375" y="899.0"/>
      <point x="941.25" y="818.875"/>
      <point x="941.25" y="705.0" type="curve" smooth="yes"/>
      <point x="941.25" y="511.0"/>
      <point x="790.5" y="388.5"/>
    </contour>
  </outline>
</glyph>
<glyph name="h" format="2">
  <advance width="1123.0"/>
  <unicode hex="0068"/>
  <anchor x="394.844375" y="0.0" name="bottom"/>
  <anchor x="516.125" y="1236.5" name="center"/>
  <anchor x="446.5" y="1403.25" name="top"/>
  <outline>
    <contour>
      <point x="180.5" y="-20.0" type="curve"/>
      <point x="221.5" y="73.875"/>
      <point x="302.875" y="328.75"/>
      <point x="362.875" y="550.125" type="curve"/>
      <point x="408.375" y="613.75"/>
      <point x="548.875" y="734.375"/>
      <point x="695.625" y="734.375" type="curve" smooth="yes"/>
      <point x="781.125" y="734.375"/>
      <point x="820.875" y="687.375"/>
      <point x="820.875" y="609.25" type="curve" smooth="yes"/>
      <point x="820.875" y="479.0"/>
      <point x="697.125" y="164.625"/>
      <point x="623.375" y="-3.5" type="curve"/>
      <point x="649.125" y="-8.875"/>
      <point x="685.0" y="-12.375"/>
      <point x="721.625" y="-12.375" type="curve" smooth="yes"/>
      <point x="756.0" y="-12.375"/>
      <point x="791.125" y="-10.5"/>
      <point x="822.375" y="-6.125" type="curve"/>
      <point x="910.375" y="205.875"/>
      <point x="1027.375" y="523.0"/>
      <point x="1027.375" y="684.0" type="curve" smooth="yes"/>
      <point x="1027.375" y="831.5"/>
      <point x="957.875" y="910.5"/>
      <point x="798.875" y="910.5" type="curve" smooth="yes"/>
      <point x="654.875" y="910.5"/>
      <point x="496.875" y="833.75"/>
      <point x="416.5" y="748.25" type="curve"/>
      <point x="485.75" y="1019.5"/>
      <point x="543.5" y="1292.0"/>
      <point x="553.125" y="1443.0" type="curve"/>
      <point x="516.125" y="1441.75"/>
      <point x="386.125" y="1421.25"/>
      <point x="364.75" y="1414.25" type="curve"/>
      <point x="323.125" y="1211.5"/>
      <point x="261.875" y="936.0"/>
      <point x="192.5" y="676.75" type="curve" smooth="yes"/>
      <point x="116.75" y="392.125"/>
      <point x="31.125" y="125.375"/>
      <point x="-22.75" y="-15.125" type="curve"/>
      <point x="-6.125" y="-21.0"/>
      <point x="35.0" y="-24.125"/>
      <point x="78.875" y="-24.125" type="curve" smooth="yes"/>
      <point x="117.5" y="-24.125"/>
      <point x="157.125" y="-22.625"/>
    </contour>
  </outline>
</glyph>
<glyph name="i" format="2">
  <advance width="610.0"/>
  <unicode hex="0069"/>
  <anchor x="158.5" y="0.0" name="bottom"/>
  <outline>
    <contour>
      <point x="237.375" y="-0.75" type="curve"/>
      <point x="275.875" y="89.25"/>
      <point x="389.875" y="472.0"/>
      <point x="455.75" y="720.125" type="curve" smooth="yes"/>
      <point x="480.375" y="812.75"/>
      <point x="499.375" y="896.5"/>
      <point x="504.875" y="932.0" type="curve"/>
      <point x="462.375" y="932.0"/>
      <point x="360.875" y="926.375"/>
      <point x="318.5" y="922.125" type="curve"/>
      <point x="258.75" y="717.25"/>
      <point x="66.625" y="87.625"/>
      <point x="28.625" y="0.625" type="curve"/>
      <point x="58.125" y="-3.625"/>
      <point x="92.5" y="-6.0"/>
      <point x="129.75" y="-6.0" type="curve" smooth="yes"/>
      <point x="171.25" y="-6.0"/>
      <point x="216.125" y="-2.75"/>
    </contour>
    <contour>
      <point x="471.5" y="1083.875" type="curve" smooth="yes"/>
      <point x="566.375" y="1083.875"/>
      <point x="641.0" y="1169.25"/>
      <point x="641.0" y="1265.125" type="curve" smooth="yes"/>
      <point x="641.0" y="1325.0"/>
      <point x="598.75" y="1371.125"/>
      <point x="533.5" y="1371.125" type="curve" smooth="yes"/>
      <point x="432.5" y="1371.125"/>
      <point x="350.75" y="1287.875"/>
      <point x="350.75" y="1186.375" type="curve" smooth="yes"/>
      <point x="350.75" y="1125.875"/>
      <point x="398.125" y="1083.875"/>
    </contour>
  </outline>
</glyph>
<glyph name="j" format="2">
  <advance width="650.125"/>
  <unicode hex="006A"/>
  <outline>
    <contour>
      <point x="410.75" y="184.375" type="curve" smooth="yes"/>
      <point x="476.125" y="436.0"/>
      <point x="520.125" y="753.125"/>
      <point x="531.375" y="948.625" type="curve"/>
      <point x="321.125" y="936.5" type="line"/>
      <point x="301.125" y="699.125"/>
      <point x="253.125" y="407.375"/>
      <point x="192.875" y="180.25" type="curve" smooth="yes"/>
      <point x="135.375" y="-35.375"/>
      <point x="46.25" y="-302.0"/>
      <point x="-108.375" y="-302.0" type="curve" smooth="yes"/>
      <point x="-226.25" y="-302.0"/>
      <point x="-275.25" y="-183.75"/>
      <point x="-283.375" y="-84.0" type="curve"/>
      <point x="-339.25" y="-103.25"/>
      <point x="-428.25" y="-145.125"/>
      <point x="-488.5" y="-183.375" type="curve"/>
      <point x="-468.5" y="-359.875"/>
      <point x="-330.875" y="-478.875"/>
      <point x="-134.875" y="-478.875" type="curve" smooth="yes"/>
      <point x="169.375" y="-478.875"/>
      <point x="309.0" y="-211.625"/>
    </contour>
    <contour>
      <point x="490.125" y="1376.375" type="curve" smooth="yes"/>
      <point x="392.75" y="1376.375"/>
      <point x="311.375" y="1299.125"/>
      <point x="311.375" y="1206.25" type="curve" smooth="yes"/>
      <point x="311.375" y="1145.375"/>
      <point x="363.125" y="1098.75"/>
      <point x="434.75" y="1098.75" type="curve" smooth="yes"/>
      <point x="528.375" y="1098.75"/>
      <point x="616.25" y="1175.125"/>
      <point x="616.25" y="1262.0" type="curve" smooth="yes"/>
      <point x="616.25" y="1319.875"/>
      <point x="570.5" y="1376.375"/>
    </contour>
  </outline>
</glyph>
<glyph name="k" format="2">
  <advance width="1156.0"/>
  <unicode hex="006B"/>
  <anchor x="448.344375" y="0.0" name="bottom"/>
  <anchor x="841.67625" y="1470.0" name="top"/>
  <outline>
    <contour>
      <point x="780.75" y="-42.625" type="curve"/>
      <point x="820.0" y="-31.875"/>
      <point x="949.125" y="15.5"/>
      <point x="976.5" y="30.25" type="curve"/>
      <point x="902.125" y="243.375"/>
      <point x="734.5" y="537.75"/>
      <point x="677.0" y="594.0" type="curve"/>
      <point x="783.0" y="661.875"/>
      <point x="1073.75" y="810.125"/>
      <point x="1179.75" y="861.5" type="curve"/>
      <point x="1167.0" y="895.875"/>
      <point x="1117.25" y="982.375"/>
      <point x="1087.5" y="1009.625" type="curve"/>
      <point x="937.625" y="937.625"/>
      <point x="557.375" y="748.125"/>
      <point x="406.875" y="613.75" type="curve"/>
      <point x="457.375" y="774.25"/>
      <point x="574.125" y="1170.625"/>
      <point x="650.75" y="1439.25" type="curve"/>
      <point x="624.5" y="1447.375"/>
      <point x="587.75" y="1451.0"/>
      <point x="548.125" y="1451.0" type="curve" smooth="yes"/>
      <point x="517.625" y="1451.0"/>
      <point x="486.0" y="1449.5"/>
      <point x="459.625" y="1447.625" type="curve"/>
      <point x="382.125" y="1209.375"/>
      <point x="62.875" y="157.25"/>
      <point x="7.125" y="-26.5" type="curve"/>
      <point x="34.875" y="-30.625"/>
      <point x="71.5" y="-34.125"/>
      <point x="111.0" y="-34.125" type="curve" smooth="yes"/>
      <point x="143.375" y="-34.125"/>
      <point x="176.75" y="-31.75"/>
      <point x="206.75" y="-27.875" type="curve"/>
      <point x="226.125" y="28.5"/>
      <point x="299.375" y="255.375"/>
      <point x="333.0" y="371.0" type="curve"/>
      <point x="353.75" y="388.625"/>
      <point x="478.5" y="467.875"/>
      <point x="520.375" y="493.375" type="curve"/>
      <point x="591.25" y="416.125"/>
      <point x="742.875" y="82.625"/>
    </contour>
  </outline>
</glyph>
<glyph name="l" format="2">
  <advance width="645.0"/>
  <unicode hex="006C"/>
  <anchor x="165.585" y="0.0" name="bottom"/>
  <anchor x="362.528" y="735.0" name="center"/>
  <anchor x="559.47" y="1470.0" name="top"/>
  <anchor x="537.375" y="1031.125" name="topright"/>
  <outline>
    <contour>
      <point x="497.875" y="64.375" type="curve"/>
      <point x="493.875" y="81.875"/>
      <point x="463.0" y="196.125"/>
      <point x="452.5" y="217.0" type="curve"/>
      <point x="420.0" y="175.0"/>
      <point x="380.625" y="145.5"/>
      <point x="327.125" y="145.5" type="curve" smooth="yes"/>
      <point x="273.875" y="145.5"/>
      <point x="256.0" y="184.375"/>
      <point x="256.0" y="242.625" type="curve" smooth="yes"/>
      <point x="256.0" y="412.125"/>
      <point x="469.625" y="1059.875"/>
      <point x="593.875" y="1426.0" type="curve"/>
      <point x="557.875" y="1430.125"/>
      <point x="525.5" y="1432.5"/>
      <point x="490.375" y="1432.5" type="curve" smooth="yes"/>
      <point x="466.25" y="1432.5"/>
      <point x="434.125" y="1431.125"/>
      <point x="404.75" y="1429.0" type="curve"/>
      <point x="304.5" y="1128.0"/>
      <point x="59.0" y="387.375"/>
      <point x="59.0" y="156.5" type="curve" smooth="yes"/>
      <point x="59.0" y="36.5"/>
      <point x="120.0" y="-36.125"/>
      <point x="261.0" y="-36.125" type="curve" smooth="yes"/>
      <point x="371.0" y="-36.125"/>
      <point x="454.875" y="20.25"/>
    </contour>
  </outline>
</glyph>
<glyph name="m" format="2">
  <advance width="1858.0"/>
  <unicode hex="006D"/>
  <anchor x="786.585" y="0.0" name="bottom"/>
  <anchor x="1071.415" y="1063.0" name="top"/>
  <outline>
    <contour>
      <point x="40.25" y="-8.875" type="curve"/>
      <point x="65.875" y="-13.25"/>
      <point x="119.875" y="-16.375"/>
      <point x="171.25" y="-16.375" type="curve" smooth="yes"/>
      <point x="194.5" y="-16.375"/>
      <point x="233.625" y="-14.375"/>
      <point x="245.625" y="-13.375" type="curve"/>
      <point x="250.25" y="28.375"/>
      <point x="290.0" y="264.0"/>
      <point x="363.625" y="583.625" type="curve"/>
      <point x="393.5" y="674.25"/>
      <point x="577.5" y="859.5"/>
      <point x="727.875" y="859.5" type="curve" smooth="yes"/>
      <point x="827.875" y="859.5"/>
      <point x="864.0" y="806.875"/>
      <point x="864.0" y="693.25" type="curve" smooth="yes"/>
      <point x="864.0" y="541.5"/>
      <point x="790.75" y="245.25"/>
      <point x="717.0" y="-7.0" type="curve"/>
      <point x="735.625" y="-11.0"/>
      <point x="779.375" y="-13.0"/>
      <point x="818.375" y="-13.0" type="curve" smooth="yes"/>
      <point x="851.25" y="-13.0"/>
      <point x="886.875" y="-11.0"/>
      <point x="908.25" y="-9.0" type="curve"/>
      <point x="927.375" y="65.375"/>
      <point x="948.0" y="142.25"/>
      <point x="968.0" y="212.75" type="curve" smooth="yes"/>
      <point x="1060.0" y="545.125"/>
      <point x="1187.125" y="866.625"/>
      <point x="1435.0" y="866.625" type="curve" smooth="yes"/>
      <point x="1522.25" y="866.625"/>
      <point x="1561.625" y="812.875"/>
      <point x="1561.625" y="708.5" type="curve" smooth="yes"/>
      <point x="1561.625" y="536.5"/>
      <point x="1449.0" y="232.375"/>
      <point x="1348.375" y="-16.875" type="curve"/>
      <point x="1382.375" y="-20.375"/>
      <point x="1418.375" y="-21.75"/>
      <point x="1451.0" y="-21.75" type="curve" smooth="yes"/>
      <point x="1484.25" y="-21.75"/>
      <point x="1518.75" y="-19.75"/>
      <point x="1551.0" y="-16.125" type="curve"/>
      <point x="1644.375" y="242.0"/>
      <point x="1753.875" y="576.125"/>
      <point x="1753.875" y="777.5" type="curve" smooth="yes"/>
      <point x="1753.875" y="944.375"/>
      <point x="1675.625" y="1045.875"/>
      <point x="1491.875" y="1045.875" type="curve" smooth="yes"/>
      <point x="1255.0" y="1045.875"/>
      <point x="1092.5" y="858.75"/>
      <point x="1007.375" y="667.625" type="curve"/>
      <point x="1018.0" y="715.625"/>
      <point x="1025.5" y="768.125"/>
      <point x="1023.625" y="817.375" type="curve" smooth="yes"/>
      <point x="1016.875" y="932.5"/>
      <point x="957.0" y="1033.375"/>
      <point x="809.125" y="1033.375" type="curve" smooth="yes"/>
      <point x="585.0" y="1033.375"/>
      <point x="451.0" y="872.875"/>
      <point x="415.625" y="815.625" type="curve"/>
      <point x="422.625" y="846.125"/>
      <point x="454.0" y="985.375"/>
      <point x="465.375" y="1027.0" type="curve"/>
      <point x="422.75" y="1026.375"/>
      <point x="308.625" y="1011.75"/>
      <point x="265.25" y="999.25" type="curve"/>
      <point x="196.5" y="742.5"/>
      <point x="80.5" y="231.625"/>
    </contour>
  </outline>
</glyph>
<glyph name="n" format="2">
  <advance width="1330.0"/>
  <unicode hex="006E"/>
  <anchor x="522.585" y="0.0" name="bottom"/>
  <anchor x="807.415" y="1063.0" name="top"/>
  <outline>
    <contour>
      <point x="232.5" y="-12.75" type="curve"/>
      <point x="276.25" y="95.25"/>
      <point x="371.25" y="361.125"/>
      <point x="469.125" y="698.125" type="curve"/>
      <point x="555.875" y="764.0"/>
      <point x="728.25" y="871.75"/>
      <point x="906.875" y="871.75" type="curve" smooth="yes"/>
      <point x="1017.875" y="871.75"/>
      <point x="1061.25" y="818.375"/>
      <point x="1061.25" y="726.5" type="curve" smooth="yes"/>
      <point x="1061.25" y="568.75"/>
      <point x="926.75" y="219.375"/>
      <point x="832.0" y="-3.0" type="curve"/>
      <point x="854.0" y="-6.625"/>
      <point x="894.0" y="-8.625"/>
      <point x="937.125" y="-8.625" type="curve" smooth="yes"/>
      <point x="979.5" y="-8.625"/>
      <point x="1020.625" y="-6.0"/>
      <point x="1040.625" y="-3.0" type="curve"/>
      <point x="1143.125" y="269.875"/>
      <point x="1271.125" y="639.75"/>
      <point x="1271.125" y="823.75" type="curve" smooth="yes"/>
      <point x="1271.125" y="977.375"/>
      <point x="1196.125" y="1060.0"/>
      <point x="992.5" y="1060.0" type="curve" smooth="yes"/>
      <point x="822.375" y="1060.0"/>
      <point x="607.75" y="955.125"/>
      <point x="517.75" y="874.375" type="curve"/>
      <point x="531.5" y="916.875"/>
      <point x="557.625" y="1018.25"/>
      <point x="561.0" y="1039.625" type="curve"/>
      <point x="540.25" y="1043.5"/>
      <point x="508.75" y="1044.625"/>
      <point x="478.625" y="1044.625" type="curve" smooth="yes"/>
      <point x="431.375" y="1044.625"/>
      <point x="383.625" y="1040.875"/>
      <point x="349.875" y="1036.0" type="curve"/>
      <point x="205.75" y="499.0"/>
      <point x="113.75" y="215.875"/>
      <point x="28.25" y="-7.375" type="curve"/>
      <point x="50.25" y="-9.75"/>
      <point x="98.125" y="-12.5"/>
      <point x="132.125" y="-13.25" type="curve" smooth="yes"/>
      <point x="168.125" y="-14.0"/>
      <point x="205.875" y="-13.375"/>
    </contour>
  </outline>
</glyph>
<glyph name="o" format="2">
  <advance width="1171.25"/>
  <unicode hex="006F"/>
  <anchor x="433.375" y="0.0" name="bottom"/>
  <anchor x="575.375" y="532.0" name="center"/>
  <anchor x="656.25" y="0.0" name="ogonek"/>
  <anchor x="717.375" y="1063.0" name="top"/>
  <anchor x="988.0" y="941.0" name="topright"/>
  <outline>
    <contour>
      <point x="477.0" y="-30.75" type="curve" smooth="yes"/>
      <point x="865.5" y="-30.75"/>
      <point x="1095.25" y="281.75"/>
      <point x="1095.25" y="674.875" type="curve" smooth="yes"/>
      <point x="1095.25" y="919.5"/>
      <point x="980.375" y="1069.875"/>
      <point x="719.75" y="1069.875" type="curve" smooth="yes"/>
      <point x="322.375" y="1069.875"/>
      <point x="66.125" y="753.0"/>
      <point x="66.125" y="353.125" type="curve" smooth="yes"/>
      <point x="66.125" y="121.625"/>
      <point x="199.75" y="-30.75"/>
    </contour>
    <contour>
      <point x="500.375" y="148.25" type="curve" smooth="yes"/>
      <point x="343.875" y="148.25"/>
      <point x="266.25" y="253.375"/>
      <point x="266.25" y="400.0" type="curve" smooth="yes"/>
      <point x="266.25" y="655.875"/>
      <point x="427.375" y="916.125"/>
      <point x="686.0" y="916.125" type="curve" smooth="yes"/>
      <point x="843.75" y="916.125"/>
      <point x="912.375" y="810.875"/>
      <point x="912.375" y="656.5" type="curve" smooth="yes"/>
      <point x="912.375" y="397.625"/>
      <point x="756.375" y="148.25"/>
    </contour>
  </outline>
</glyph>
<glyph name="p" format="2">
  <advance width="1210.25"/>
  <unicode hex="0070"/>
  <anchor x="457.585" y="0.0" name="bottom"/>
  <anchor x="742.415" y="1063.0" name="top"/>
  <outline>
    <contour>
      <point x="-174.75" y="-438.75" type="curve"/>
      <point x="-134.875" y="-438.75"/>
      <point x="-39.625" y="-434.875"/>
      <point x="33.125" y="-420.75" type="curve"/>
      <point x="83.5" y="-297.875"/>
      <point x="231.875" y="135.125"/>
      <point x="254.25" y="209.0" type="curve"/>
      <point x="284.25" y="161.5"/>
      <point x="423.875" y="84.875"/>
      <point x="572.875" y="84.875" type="curve" smooth="yes"/>
      <point x="930.375" y="84.875"/>
      <point x="1157.25" y="377.625"/>
      <point x="1157.25" y="737.0" type="curve" smooth="yes"/>
      <point x="1157.25" y="947.875"/>
      <point x="1062.625" y="1078.625"/>
      <point x="846.5" y="1078.625" type="curve" smooth="yes"/>
      <point x="666.375" y="1078.625"/>
      <point x="522.75" y="980.625"/>
      <point x="465.625" y="926.375" type="curve"/>
      <point x="479.875" y="974.375"/>
      <point x="499.0" y="1046.75"/>
      <point x="505.125" y="1080.5" type="curve"/>
      <point x="440.75" y="1080.5"/>
      <point x="360.5" y="1073.125"/>
      <point x="303.5" y="1057.625" type="curve"/>
      <point x="226.75" y="771.875"/>
      <point x="13.375" y="64.25"/>
    </contour>
    <contour>
      <point x="584.875" y="282.125" type="curve" smooth="yes"/>
      <point x="426.625" y="282.125"/>
      <point x="342.0" y="360.625"/>
      <point x="311.25" y="396.5" type="curve"/>
      <point x="325.875" y="441.25"/>
      <point x="407.375" y="717.75"/>
      <point x="419.75" y="761.5" type="curve"/>
      <point x="466.5" y="806.5"/>
      <point x="609.125" y="910.625"/>
      <point x="769.125" y="910.625" type="curve" smooth="yes"/>
      <point x="907.375" y="910.625"/>
      <point x="959.125" y="840.0"/>
      <point x="959.125" y="707.75" type="curve" smooth="yes"/>
      <point x="959.125" y="470.25"/>
      <point x="830.625" y="282.125"/>
    </contour>
  </outline>
</glyph>
<glyph name="q" format="2">
  <advance width="1207.0"/>
  <unicode hex="0071"/>
  <anchor x="461.585" y="0.0" name="bottom"/>
  <anchor x="746.415" y="1063.0" name="top"/>
  <outline>
    <contour>
      <point x="802.125" y="-456.375" type="curve"/>
      <point x="818.875" y="-343.25"/>
      <point x="856.75" y="-115.75"/>
      <point x="918.125" y="112.875" type="curve" smooth="yes"/>
      <point x="997.0" y="407.25"/>
      <point x="1123.25" y="776.375"/>
      <point x="1238.25" y="1061.125" type="curve"/>
      <point x="1187.375" y="1076.25"/>
      <point x="1120.25" y="1089.0"/>
      <point x="1065.875" y="1090.25" type="curve"/>
      <point x="1055.875" y="1071.375"/>
      <point x="1024.625" y="995.125"/>
      <point x="1014.5" y="963.25" type="curve"/>
      <point x="960.625" y="1022.625"/>
      <point x="852.875" y="1085.25"/>
      <point x="694.125" y="1085.25" type="curve" smooth="yes"/>
      <point x="324.125" y="1085.25"/>
      <point x="114.0" y="784.625"/>
      <point x="114.0" y="392.0" type="curve" smooth="yes"/>
      <point x="114.0" y="179.5"/>
      <point x="206.5" y="29.5"/>
      <point x="431.625" y="29.5" type="curve" smooth="yes"/>
      <point x="589.625" y="29.5"/>
      <point x="703.0" y="101.375"/>
      <point x="744.625" y="147.125" type="curve"/>
      <point x="689.875" y="-56.625"/>
      <point x="635.75" y="-288.125"/>
      <point x="611.875" y="-445.625" type="curve"/>
      <point x="661.25" y="-451.125"/>
      <point x="732.25" y="-456.375"/>
    </contour>
    <contour>
      <point x="490.375" y="225.0" type="curve" smooth="yes"/>
      <point x="359.125" y="225.0"/>
      <point x="309.375" y="313.0"/>
      <point x="309.375" y="436.25" type="curve" smooth="yes"/>
      <point x="309.375" y="686.875"/>
      <point x="455.5" y="902.0"/>
      <point x="692.625" y="902.0" type="curve" smooth="yes"/>
      <point x="833.375" y="902.0"/>
      <point x="934.25" y="822.25"/>
      <point x="954.875" y="802.375" type="curve"/>
      <point x="920.375" y="712.875"/>
      <point x="824.25" y="432.75"/>
      <point x="797.375" y="346.625" type="curve"/>
      <point x="752.5" y="306.75"/>
      <point x="623.125" y="225.0"/>
    </contour>
  </outline>
</glyph>
<glyph name="r" format="2">
  <advance width="853.0"/>
  <unicode hex="0072"/>
  <anchor x="288.49062499999997" y="0.0" name="bottom"/>
  <anchor x="573.009375" y="1063.0" name="top"/>
  <outline>
    <contour>
      <point x="370.0" y="886.375" type="curve"/>
      <point x="372.0" y="926.625"/>
      <point x="372.75" y="1012.75"/>
      <point x="372.75" y="1061.5" type="curve"/>
      <point x="350.25" y="1060.125"/>
      <point x="251.125" y="1041.125"/>
      <point x="193.5" y="1024.625" type="curve"/>
      <point x="190.875" y="723.25"/>
      <point x="109.625" y="312.25"/>
      <point x="27.25" y="-1.75" type="curve"/>
      <point x="95.5" y="-3.625"/>
      <point x="188.0" y="-2.75"/>
      <point x="246.625" y="3.25" type="curve"/>
      <point x="277.375" y="119.75"/>
      <point x="345.0" y="512.25"/>
      <point x="358.75" y="699.875" type="curve"/>
      <point x="447.625" y="796.0"/>
      <point x="590.75" y="870.75"/>
      <point x="709.625" y="870.75" type="curve" smooth="yes"/>
      <point x="782.5" y="870.75"/>
      <point x="826.0" y="851.5"/>
      <point x="854.125" y="838.0" type="curve"/>
      <point x="948.375" y="1039.0" type="line"/>
      <point x="918.75" y="1057.0"/>
      <point x="839.5" y="1071.125"/>
      <point x="770.75" y="1071.125" type="curve" smooth="yes"/>
      <point x="623.375" y="1071.125"/>
      <point x="457.375" y="986.25"/>
    </contour>
  </outline>
</glyph>
<glyph name="s" format="2">
  <advance width="992.375"/>
  <unicode hex="0073"/>
  <anchor x="338.875" y="-63.75" name="bottom"/>
  <anchor x="651.0" y="1107.75" name="top"/>
  <outline>
    <contour>
      <point x="363.25" y="-81.375" type="curve" smooth="yes"/>
      <point x="632.375" y="-81.375"/>
      <point x="876.125" y="54.0"/>
      <point x="876.125" y="313.625" type="curve" smooth="yes"/>
      <point x="876.125" y="470.875"/>
      <point x="765.625" y="571.625"/>
      <point x="586.75" y="638.75" type="curve" smooth="yes"/>
      <point x="467.125" y="685.0"/>
      <point x="396.25" y="734.625"/>
      <point x="396.25" y="807.375" type="curve" smooth="yes"/>
      <point x="396.25" y="919.5"/>
      <point x="545.125" y="959.625"/>
      <point x="654.625" y="959.625" type="curve" smooth="yes"/>
      <point x="758.875" y="959.625"/>
      <point x="845.375" y="911.75"/>
      <point x="897.875" y="869.875" type="curve"/>
      <point x="945.0" y="914.125"/>
      <point x="1000.5" y="986.375"/>
      <point x="1020.5" y="1020.625" type="curve"/>
      <point x="963.875" y="1068.5"/>
      <point x="838.5" y="1118.875"/>
      <point x="672.75" y="1118.875" type="curve" smooth="yes"/>
      <point x="452.125" y="1118.875"/>
      <point x="205.75" y="1016.25"/>
      <point x="205.75" y="791.625" type="curve" smooth="yes"/>
      <point x="205.75" y="637.875"/>
      <point x="308.75" y="564.125"/>
      <point x="471.875" y="497.875" type="curve" smooth="yes"/>
      <point x="600.375" y="446.5"/>
      <point x="680.0" y="390.5"/>
      <point x="680.0" y="295.375" type="curve" smooth="yes"/>
      <point x="680.0" y="158.625"/>
      <point x="539.125" y="90.625"/>
      <point x="398.125" y="90.625" type="curve" smooth="yes"/>
      <point x="260.25" y="90.625"/>
      <point x="139.125" y="185.625"/>
      <point x="79.375" y="283.125" type="curve"/>
      <point x="40.625" y="251.25"/>
      <point x="-47.75" y="146.625"/>
      <point x="-74.875" y="110.625" type="curve"/>
      <point x="-13.125" y="11.5"/>
      <point x="164.875" y="-81.375"/>
    </contour>
  </outline>
</glyph>
<glyph name="t" format="2">
  <advance width="964.0"/>
  <unicode hex="0074"/>
  <anchor x="480.875" y="-40.5" name="bottom"/>
  <anchor x="449.5" y="532.0" name="center"/>
  <anchor x="626.625" y="1430.375" name="top"/>
  <anchor x="751.75" y="1257.25" name="topright"/>
  <outline>
    <contour>
      <point x="765.5" y="174.625" type="curve"/>
      <point x="754.875" y="187.0"/>
      <point x="689.625" y="284.25"/>
      <point x="676.375" y="298.0" type="curve"/>
      <point x="648.75" y="240.5"/>
      <point x="589.25" y="134.0"/>
      <point x="503.125" y="134.0" type="curve" smooth="yes"/>
      <point x="444.875" y="134.0"/>
      <point x="427.25" y="175.875"/>
      <point x="427.25" y="243.625" type="curve" smooth="yes"/>
      <point x="427.25" y="372.5"/>
      <point x="550.875" y="788.0"/>
      <point x="594.375" y="917.625" type="curve"/>
      <point x="646.0" y="921.25"/>
      <point x="716.125" y="925.0"/>
      <point x="770.125" y="926.5" type="curve" smooth="yes"/>
      <point x="847.125" y="928.75"/>
      <point x="941.125" y="926.875"/>
      <point x="954.125" y="926.25" type="curve"/>
      <point x="965.75" y="968.125"/>
      <point x="983.375" y="1043.125"/>
      <point x="987.5" y="1080.125" type="curve"/>
      <point x="972.5" y="1080.75"/>
      <point x="880.125" y="1083.875"/>
      <point x="786.125" y="1082.0" type="curve" smooth="yes"/>
      <point x="749.875" y="1081.25"/>
      <point x="679.875" y="1077.875"/>
      <point x="639.5" y="1075.875" type="curve"/>
      <point x="651.25" y="1119.25"/>
      <point x="663.0" y="1163.75"/>
      <point x="674.0" y="1204.5" type="curve" smooth="yes"/>
      <point x="702.625" y="1310.875"/>
      <point x="726.375" y="1416.0"/>
      <point x="727.875" y="1432.125" type="curve"/>
      <point x="540.625" y="1421.375" type="line"/>
      <point x="533.75" y="1384.5"/>
      <point x="520.5" y="1326.75"/>
      <point x="506.125" y="1269.875" type="curve" smooth="yes"/>
      <point x="488.625" y="1202.0"/>
      <point x="468.25" y="1129.0"/>
      <point x="447.875" y="1064.5" type="curve"/>
      <point x="349.875" y="1058.625"/>
      <point x="240.625" y="1044.5"/>
      <point x="163.0" y="1033.625" type="curve"/>
      <point x="157.625" y="1014.125"/>
      <point x="137.625" y="926.125"/>
      <point x="133.125" y="863.375" type="curve"/>
      <point x="161.875" y="870.125"/>
      <point x="270.375" y="888.75"/>
      <point x="404.75" y="901.5" type="curve"/>
      <point x="365.25" y="786.375"/>
      <point x="240.75" y="351.25"/>
      <point x="240.75" y="193.25" type="curve" smooth="yes"/>
      <point x="240.75" y="57.375"/>
      <point x="298.25" y="-40.5"/>
      <point x="447.625" y="-40.5" type="curve" smooth="yes"/>
      <point x="622.0" y="-40.5"/>
      <point x="714.875" y="78.75"/>
    </contour>
  </outline>
</glyph>
<glyph name="u" format="2">
  <advance width="1178.0"/>
  <unicode hex="0075"/>
  <anchor x="442.99062499999997" y="0.0" name="bottom"/>
  <anchor x="669.25" y="0.0" name="ogonek"/>
  <anchor x="727.509375" y="1063.0" name="top"/>
  <anchor x="1085.125" y="925.75" name="topright"/>
  <outline>
    <contour>
      <point x="943.625" y="999.625" type="curve"/>
      <point x="932.375" y="865.5"/>
      <point x="909.375" y="738.125"/>
      <point x="876.75" y="618.5" type="curve" smooth="yes"/>
      <point x="792.625" y="308.125"/>
      <point x="658.25" y="132.125"/>
      <point x="490.875" y="132.125" type="curve" smooth="yes"/>
      <point x="376.5" y="132.125"/>
      <point x="316.25" y="204.5"/>
      <point x="316.25" y="356.25" type="curve" smooth="yes"/>
      <point x="316.25" y="534.75"/>
      <point x="399.875" y="802.0"/>
      <point x="484.125" y="1025.625" type="curve"/>
      <point x="459.5" y="1033.375"/>
      <point x="416.875" y="1038.625"/>
      <point x="376.625" y="1040.5" type="curve" smooth="yes"/>
      <point x="346.75" y="1042.375"/>
      <point x="306.75" y="1042.125"/>
      <point x="282.375" y="1041.25" type="curve"/>
      <point x="192.25" y="784.0"/>
      <point x="107.5" y="519.5"/>
      <point x="107.5" y="314.25" type="curve" smooth="yes"/>
      <point x="107.5" y="96.875"/>
      <point x="198.125" y="-49.625"/>
      <point x="454.25" y="-49.625" type="curve" smooth="yes"/>
      <point x="803.5" y="-49.625"/>
      <point x="980.75" y="249.25"/>
      <point x="1075.875" y="606.625" type="curve" smooth="yes"/>
      <point x="1110.5" y="737.0"/>
      <point x="1131.625" y="874.375"/>
      <point x="1144.875" y="1004.25" type="curve"/>
      <point x="1123.875" y="1007.875"/>
      <point x="1079.375" y="1010.125"/>
      <point x="1047.125" y="1010.125" type="curve" smooth="yes"/>
      <point x="1009.375" y="1010.125"/>
      <point x="964.625" y="1005.5"/>
    </contour>
  </outline>
</glyph>
<glyph name="v" format="2">
  <advance width="1007.0"/>
  <unicode hex="0076"/>
  <anchor x="361.585" y="0.0" name="bottom"/>
  <anchor x="646.415" y="1063.0" name="top"/>
  <outline>
    <contour>
      <point x="920.0" y="1091.0" type="curve"/>
      <point x="805.375" y="846.75"/>
      <point x="556.375" y="440.375"/>
      <point x="417.25" y="232.0" type="curve"/>
      <point x="382.75" y="417.0"/>
      <point x="352.25" y="838.75"/>
      <point x="352.25" y="1092.0" type="curve"/>
      <point x="302.875" y="1079.5"/>
      <point x="203.25" y="1056.375"/>
      <point x="169.0" y="1047.0" type="curve"/>
      <point x="180.75" y="740.75"/>
      <point x="212.0" y="307.25"/>
      <point x="279.0" y="-5.875" type="curve"/>
      <point x="299.625" y="-9.0"/>
      <point x="330.875" y="-11.875"/>
      <point x="363.5" y="-11.875" type="curve" smooth="yes"/>
      <point x="397.125" y="-11.875"/>
      <point x="431.125" y="-9.75"/>
      <point x="453.875" y="-5.875" type="curve"/>
      <point x="643.25" y="262.0"/>
      <point x="988.375" y="816.5"/>
      <point x="1102.125" y="1040.625" type="curve"/>
      <point x="1090.5" y="1046.375"/>
      <point x="1006.375" y="1074.125"/>
    </contour>
  </outline>
</glyph>
<glyph name="w" format="2">
  <advance width="1520.0"/>
  <unicode hex="0077"/>
  <anchor x="617.585" y="0.0" name="bottom"/>
  <anchor x="902.415" y="1063.0" name="top"/>
  <outline>
    <contour>
      <point x="325.5" y="7.0" type="curve" smooth="yes"/>
      <point x="473.875" y="7.0"/>
      <point x="604.375" y="120.25"/>
      <point x="677.25" y="266.5" type="curve"/>
      <point x="690.5" y="135.0"/>
      <point x="738.75" y="14.375"/>
      <point x="898.625" y="14.375" type="curve" smooth="yes"/>
      <point x="1188.625" y="14.375"/>
      <point x="1367.25" y="409.875"/>
      <point x="1471.0" y="790.0" type="curve" smooth="yes"/>
      <point x="1489.875" y="859.125"/>
      <point x="1512.875" y="965.25"/>
      <point x="1527.375" y="1036.75" type="curve"/>
      <point x="1503.125" y="1039.125"/>
      <point x="1461.125" y="1041.625"/>
      <point x="1432.25" y="1041.625" type="curve" smooth="yes"/>
      <point x="1404.75" y="1041.625"/>
      <point x="1377.625" y="1041.625"/>
      <point x="1348.875" y="1041.0" type="curve"/>
      <point x="1333.0" y="973.0"/>
      <point x="1310.0" y="877.0"/>
      <point x="1293.375" y="815.625" type="curve" smooth="yes"/>
      <point x="1204.75" y="485.625"/>
      <point x="1071.125" y="179.875"/>
      <point x="916.875" y="179.875" type="curve" smooth="yes"/>
      <point x="847.125" y="179.875"/>
      <point x="821.75" y="234.75"/>
      <point x="821.75" y="325.75" type="curve" smooth="yes"/>
      <point x="821.75" y="456.0"/>
      <point x="871.75" y="645.625"/>
      <point x="976.5" y="1036.0" type="curve"/>
      <point x="936.5" y="1039.0"/>
      <point x="840.875" y="1040.375"/>
      <point x="800.25" y="1040.375" type="curve"/>
      <point x="783.25" y="967.5"/>
      <point x="758.5" y="866.875"/>
      <point x="739.875" y="797.5" type="curve" smooth="yes"/>
      <point x="649.875" y="463.125"/>
      <point x="522.625" y="197.375"/>
      <point x="381.375" y="197.375" type="curve" smooth="yes"/>
      <point x="315.375" y="197.375"/>
      <point x="288.25" y="250.75"/>
      <point x="288.25" y="337.0" type="curve" smooth="yes"/>
      <point x="288.25" y="496.25"/>
      <point x="394.0" y="818.75"/>
      <point x="481.125" y="1051.5" type="curve"/>
      <point x="428.75" y="1055.75"/>
      <point x="345.75" y="1058.75"/>
      <point x="294.125" y="1058.75" type="curve"/>
      <point x="195.75" y="793.125"/>
      <point x="96.75" y="501.5"/>
      <point x="96.75" y="289.5" type="curve" smooth="yes"/>
      <point x="96.75" y="121.125"/>
      <point x="159.125" y="7.0"/>
    </contour>
  </outline>
</glyph>
<glyph name="x" format="2">
  <advance width="1142.0"/>
  <unicode hex="0078"/>
  <anchor x="428.585" y="0.0" name="bottom"/>
  <anchor x="713.415" y="1063.0" name="top"/>
  <outline>
    <contour>
      <point x="82.5" y="-13.5" type="curve"/>
      <point x="175.75" y="56.625"/>
      <point x="421.875" y="291.375"/>
      <point x="591.0" y="458.375" type="curve"/>
      <point x="650.625" y="351.5"/>
      <point x="734.375" y="117.75"/>
      <point x="763.375" y="-17.25" type="curve"/>
      <point x="817.875" y="5.875"/>
      <point x="904.125" y="50.25"/>
      <point x="946.375" y="82.0" type="curve"/>
      <point x="899.0" y="230.5"/>
      <point x="804.875" y="468.875"/>
      <point x="738.25" y="591.625" type="curve"/>
      <point x="896.875" y="729.0"/>
      <point x="1103.5" y="955.25"/>
      <point x="1199.875" y="1073.125" type="curve"/>
      <point x="1167.625" y="1097.75"/>
      <point x="1084.25" y="1135.375"/>
      <point x="1038.75" y="1156.5" type="curve"/>
      <point x="935.75" y="1018.375"/>
      <point x="792.75" y="862.75"/>
      <point x="653.125" y="726.875" type="curve"/>
      <point x="612.875" y="827.625"/>
      <point x="433.875" y="1074.0"/>
      <point x="369.375" y="1152.125" type="curve"/>
      <point x="322.875" y="1128.75"/>
      <point x="221.25" y="1061.875"/>
      <point x="197.25" y="1038.5" type="curve"/>
      <point x="272.5" y="950.75"/>
      <point x="416.5" y="780.625"/>
      <point x="519.25" y="599.875" type="curve"/>
      <point x="364.75" y="460.0"/>
      <point x="35.75" y="166.75"/>
      <point x="-28.75" y="115.75" type="curve"/>
      <point x="-11.875" y="82.375"/>
      <point x="52.125" y="15.375"/>
    </contour>
  </outline>
</glyph>
<glyph name="y" format="2">
  <advance width="1079.0"/>
  <unicode hex="0079"/>
  <anchor x="397.585" y="0.0" name="bottom"/>
  <anchor x="682.415" y="1063.0" name="top"/>
  <outline>
    <contour>
      <point x="182.25" y="-527.875" type="curve" smooth="yes"/>
      <point x="502.625" y="-527.875"/>
      <point x="701.75" y="-285.625"/>
      <point x="810.375" y="56.0" type="curve" smooth="yes"/>
      <point x="886.0" y="293.75"/>
      <point x="967.5" y="557.25"/>
      <point x="1019.25" y="749.375" type="curve" smooth="yes"/>
      <point x="1039.5" y="825.25"/>
      <point x="1056.375" y="892.75"/>
      <point x="1068.875" y="948.875" type="curve"/>
      <point x="1036.375" y="957.125"/>
      <point x="999.75" y="960.75"/>
      <point x="960.875" y="960.75" type="curve" smooth="yes"/>
      <point x="938.0" y="960.75"/>
      <point x="914.75" y="959.375"/>
      <point x="893.25" y="957.0" type="curve"/>
      <point x="889.0" y="935.875"/>
      <point x="828.125" y="724.875"/>
      <point x="783.625" y="598.5" type="curve" smooth="yes"/>
      <point x="701.875" y="356.25"/>
      <point x="575.75" y="223.5"/>
      <point x="426.125" y="223.5" type="curve" smooth="yes"/>
      <point x="330.375" y="223.5"/>
      <point x="298.0" y="294.75"/>
      <point x="298.0" y="394.375" type="curve" smooth="yes"/>
      <point x="298.0" y="545.75"/>
      <point x="383.125" y="818.75"/>
      <point x="444.875" y="978.25" type="curve"/>
      <point x="430.5" y="982.125"/>
      <point x="384.375" y="984.375"/>
      <point x="340.75" y="984.375" type="curve" smooth="yes"/>
      <point x="304.25" y="984.375"/>
      <point x="267.5" y="982.625"/>
      <point x="249.125" y="979.125" type="curve"/>
      <point x="172.625" y="741.25"/>
      <point x="102.625" y="505.125"/>
      <point x="102.625" y="326.375" type="curve" smooth="yes"/>
      <point x="102.625" y="151.25"/>
      <point x="170.625" y="40.375"/>
      <point x="353.5" y="40.375" type="curve" smooth="yes"/>
      <point x="530.125" y="40.375"/>
      <point x="639.625" y="129.75"/>
      <point x="686.0" y="208.875" type="curve"/>
      <point x="608.125" y="-74.0"/>
      <point x="453.625" y="-349.0"/>
      <point x="214.75" y="-349.0" type="curve" smooth="yes"/>
      <point x="78.0" y="-349.0"/>
      <point x="-45.875" y="-271.625"/>
      <point x="-89.0" y="-232.25" type="curve"/>
      <point x="-124.125" y="-266.125"/>
      <point x="-200.75" y="-358.875"/>
      <point x="-225.125" y="-397.375" type="curve"/>
      <point x="-158.75" y="-454.375"/>
      <point x="-4.0" y="-527.875"/>
    </contour>
  </outline>
</glyph>
<glyph name="z" format="2">
  <advance width="1074.0"/>
  <unicode hex="007A"/>
  <anchor x="362.5" y="0.0" name="bottom"/>
  <anchor x="504.5" y="532.0" name="center"/>
  <anchor x="646.5" y="1063.0" name="top"/>
  <outline>
    <contour>
      <point x="845.625" y="5.125" type="curve"/>
      <point x="858.625" y="29.875"/>
      <point x="900.625" y="165.625"/>
      <point x="906.75" y="190.25" type="curve"/>
      <point x="825.5" y="181.0"/>
      <point x="656.25" y="173.75"/>
      <point x="505.75" y="173.75" type="curve" smooth="yes"/>
      <point x="389.75" y="173.75"/>
      <point x="276.375" y="176.875"/>
      <point x="242.25" y="182.875" type="curve"/>
      <point x="354.125" y="292.375"/>
      <point x="910.25" y="767.375"/>
      <point x="1076.125" y="887.875" type="curve"/>
      <point x="1082.5" y="911.75"/>
      <point x="1109.5" y="1026.75"/>
      <point x="1109.5" y="1039.375" type="curve"/>
      <point x="990.375" y="1043.125"/>
      <point x="849.875" y="1044.375"/>
      <point x="728.0" y="1044.375" type="curve" smooth="yes"/>
      <point x="510.875" y="1044.375"/>
      <point x="304.125" y="1038.75"/>
      <point x="240.125" y="1037.5" type="curve"/>
      <point x="188.875" y="876.5" type="line"/>
      <point x="207.125" y="879.875"/>
      <point x="380.25" y="884.875"/>
      <point x="526.375" y="884.875" type="curve" smooth="yes"/>
      <point x="639.5" y="884.875"/>
      <point x="781.375" y="885.125"/>
      <point x="817.125" y="882.875" type="curve"/>
      <point x="696.5" y="790.625"/>
      <point x="120.125" y="311.0"/>
      <point x="-10.25" y="185.0" type="curve"/>
      <point x="-65.125" y="12.0" type="line"/>
      <point x="56.75" y="-1.25"/>
      <point x="234.375" y="-6.0"/>
      <point x="410.875" y="-6.0" type="curve" smooth="yes"/>
      <point x="570.875" y="-6.0"/>
      <point x="733.25" y="-0.625"/>
    </contour>
  </outline>
</glyph>
<glyph name="braceleft" format="2">
  <advance width="665.0"/>
  <unicode hex="007B"/>
  <outline>
    <contour>
      <point x="284.0" y="-396.875" type="curve"/>
      <point x="323.25" y="-354.25"/>
      <point x="354.25" y="-307.375"/>
      <point x="383.75" y="-261.25" type="curve"/>
      <point x="301.25" y="-243.625"/>
      <point x="264.0" y="-168.125"/>
      <point x="264.0" y="-75.875" type="curve" smooth="yes"/>
      <point x="264.0" y="19.375"/>
      <point x="299.5" y="94.375"/>
      <point x="336.375" y="168.5" type="curve" smooth="yes"/>
      <point x="372.0" y="239.75"/>
      <point x="404.625" y="309.875"/>
      <point x="404.625" y="395.0" type="curve" smooth="yes"/>
      <point x="404.625" y="534.0"/>
      <point x="286.875" y="588.75"/>
      <point x="171.375" y="599.875" type="curve"/>
      <point x="165.0" y="583.625" type="line"/>
      <point x="307.5" y="593.125"/>
      <point x="451.625" y="698.5"/>
      <point x="495.375" y="879.125" type="curve" smooth="yes"/>
      <point x="508.875" y="933.0"/>
      <point x="510.625" y="971.125"/>
      <point x="510.625" y="1008.0" type="curve" smooth="yes"/>
      <point x="510.625" y="1045.625"/>
      <point x="512.75" y="1082.375"/>
      <point x="526.375" y="1134.25" type="curve" smooth="yes"/>
      <point x="561.875" y="1268.0"/>
      <point x="676.625" y="1401.625"/>
      <point x="838.125" y="1422.0" type="curve"/>
      <point x="838.75" y="1460.375"/>
      <point x="836.125" y="1535.375"/>
      <point x="817.375" y="1560.75" type="curve"/>
      <point x="570.125" y="1543.125"/>
      <point x="403.875" y="1373.625"/>
      <point x="352.875" y="1174.75" type="curve" smooth="yes"/>
      <point x="340.125" y="1124.25"/>
      <point x="336.375" y="1086.25"/>
      <point x="335.625" y="1045.875" type="curve" smooth="yes"/>
      <point x="334.875" y="1007.875"/>
      <point x="332.375" y="967.375"/>
      <point x="323.625" y="912.875" type="curve" smooth="yes"/>
      <point x="302.375" y="778.125"/>
      <point x="228.25" y="685.625"/>
      <point x="92.625" y="664.125" type="curve"/>
      <point x="83.875" y="647.375"/>
      <point x="74.5" y="618.25"/>
      <point x="67.75" y="592.0" type="curve" smooth="yes"/>
      <point x="60.625" y="564.0"/>
      <point x="54.5" y="531.625"/>
      <point x="54.5" y="512.875" type="curve"/>
      <point x="161.0" y="488.125"/>
      <point x="224.375" y="437.625"/>
      <point x="224.375" y="353.25" type="curve" smooth="yes"/>
      <point x="224.375" y="268.75"/>
      <point x="192.5" y="204.5"/>
      <point x="159.375" y="137.75" type="curve" smooth="yes"/>
      <point x="123.5" y="65.75"/>
      <point x="85.75" y="-11.0"/>
      <point x="85.75" y="-122.375" type="curve" smooth="yes"/>
      <point x="85.75" y="-266.0"/>
      <point x="151.0" y="-380.0"/>
    </contour>
  </outline>
</glyph>
<glyph name="bar" format="2">
  <advance width="487.0"/>
  <unicode hex="007C"/>
  <outline>
    <contour>
      <point x="35.25" y="-557.75" type="curve"/>
      <point x="81.125" y="-448.125"/>
      <point x="152.875" y="-202.625"/>
      <point x="231.25" y="88.75" type="curve" smooth="yes"/>
      <point x="356.25" y="553.25"/>
      <point x="509.625" y="1173.5"/>
      <point x="589.875" y="1533.75" type="curve"/>
      <point x="538.75" y="1533.75"/>
      <point x="451.5" y="1529.75"/>
      <point x="421.375" y="1526.75" type="curve"/>
      <point x="298.0" y="1107.375"/>
      <point x="192.375" y="728.125"/>
      <point x="104.875" y="403.5" type="curve" smooth="yes"/>
      <point x="-5.5" y="-6.375"/>
      <point x="-85.0" y="-331.75"/>
      <point x="-133.5" y="-545.625" type="curve"/>
      <point x="-86.625" y="-555.125"/>
      <point x="-10.125" y="-557.75"/>
    </contour>
  </outline>
</glyph>
<glyph name="braceright" format="2">
  <advance width="614.0"/>
  <unicode hex="007D"/>
  <outline>
    <contour>
      <point x="-94.25" y="-400.75" type="curve"/>
      <point x="132.125" y="-378.625"/>
      <point x="306.5" y="-196.625"/>
      <point x="337.125" y="7.25" type="curve" smooth="yes"/>
      <point x="347.75" y="52.375"/>
      <point x="349.625" y="90.75"/>
      <point x="348.875" y="128.875" type="curve" smooth="yes"/>
      <point x="348.125" y="166.75"/>
      <point x="350.625" y="203.375"/>
      <point x="360.0" y="245.125" type="curve" smooth="yes"/>
      <point x="383.125" y="388.0"/>
      <point x="460.25" y="502.375"/>
      <point x="592.25" y="521.625" type="curve"/>
      <point x="605.125" y="537.625"/>
      <point x="617.75" y="568.5"/>
      <point x="625.125" y="596.125" type="curve" smooth="yes"/>
      <point x="632.375" y="622.0"/>
      <point x="633.5" y="651.875"/>
      <point x="633.5" y="677.625" type="curve"/>
      <point x="539.375" y="690.125"/>
      <point x="462.0" y="726.125"/>
      <point x="462.0" y="813.125" type="curve" smooth="yes"/>
      <point x="462.0" y="886.375"/>
      <point x="495.625" y="953.625"/>
      <point x="532.875" y="1026.625" type="curve" smooth="yes"/>
      <point x="575.625" y="1110.625"/>
      <point x="621.5" y="1201.25"/>
      <point x="621.5" y="1313.875" type="curve" smooth="yes"/>
      <point x="621.5" y="1447.875"/>
      <point x="559.375" y="1561.875"/>
      <point x="426.625" y="1581.125" type="curve"/>
      <point x="392.375" y="1547.25"/>
      <point x="342.375" y="1488.25"/>
      <point x="313.5" y="1447.875" type="curve"/>
      <point x="410.125" y="1431.125"/>
      <point x="441.625" y="1358.75"/>
      <point x="441.625" y="1269.875" type="curve" smooth="yes"/>
      <point x="441.625" y="1166.875"/>
      <point x="401.625" y="1088.625"/>
      <point x="362.5" y="1013.5" type="curve" smooth="yes"/>
      <point x="325.25" y="941.75"/>
      <point x="289.875" y="873.125"/>
      <point x="289.875" y="789.0" type="curve" smooth="yes"/>
      <point x="289.875" y="648.625"/>
      <point x="420.875" y="592.125"/>
      <point x="522.75" y="584.625" type="curve"/>
      <point x="531.25" y="606.0" type="line"/>
      <point x="382.375" y="602.875"/>
      <point x="225.375" y="456.125"/>
      <point x="196.0" y="268.0" type="curve" smooth="yes"/>
      <point x="186.0" y="219.0"/>
      <point x="185.25" y="182.25"/>
      <point x="186.375" y="145.5" type="curve" smooth="yes"/>
      <point x="187.5" y="109.875"/>
      <point x="187.0" y="74.625"/>
      <point x="177.625" y="29.375" type="curve" smooth="yes"/>
      <point x="150.75" y="-122.25"/>
      <point x="54.5" y="-232.375"/>
      <point x="-118.875" y="-265.875" type="curve"/>
      <point x="-118.875" y="-323.0"/>
      <point x="-107.25" y="-376.625"/>
    </contour>
  </outline>
</glyph>
<glyph name="asciitilde" format="2">
  <advance width="1115.0"/>
  <unicode hex="007E"/>
  <outline>
    <contour>
      <point x="226.625" y="736.25" type="curve"/>
      <point x="334.875" y="653.875" type="line"/>
      <point x="359.5" y="714.125"/>
      <point x="412.0" y="789.25"/>
      <point x="492.125" y="789.25" type="curve" smooth="yes"/>
      <point x="535.625" y="789.25"/>
      <point x="574.25" y="753.0"/>
      <point x="615.5" y="712.375" type="curve" smooth="yes"/>
      <point x="666.0" y="662.0"/>
      <point x="723.875" y="606.125"/>
      <point x="805.125" y="606.125" type="curve" smooth="yes"/>
      <point x="941.0" y="606.125"/>
      <point x="1018.125" y="739.0"/>
      <point x="1033.25" y="796.875" type="curve"/>
      <point x="917.25" y="859.25" type="line"/>
      <point x="897.75" y="796.375"/>
      <point x="857.875" y="741.375"/>
      <point x="797.375" y="741.375" type="curve" smooth="yes"/>
      <point x="739.75" y="741.375"/>
      <point x="698.875" y="781.375"/>
      <point x="657.875" y="824.125" type="curve" smooth="yes"/>
      <point x="612.0" y="871.625"/>
      <point x="561.0" y="919.25"/>
      <point x="482.5" y="919.25" type="curve" smooth="yes"/>
      <point x="357.75" y="919.25"/>
      <point x="256.25" y="819.5"/>
    </contour>
  </outline>
</glyph>
<glyph name="exclamdown" format="2">
  <advance width="708.0"/>
  <unicode hex="00A1"/>
  <outline>
    <contour>
      <point x="343.625" y="677.0" type="curve"/>
      <point x="267.0" y="408.0"/>
      <point x="67.75" y="-222.375"/>
      <point x="-1.125" y="-396.125" type="curve"/>
      <point x="219.75" y="-406.375" type="line"/>
      <point x="294.625" y="-180.75"/>
      <point x="435.25" y="349.75"/>
      <point x="510.375" y="668.125" type="curve"/>
      <point x="475.875" y="673.125"/>
      <point x="379.25" y="677.0"/>
    </contour>
    <contour>
      <point x="510.125" y="1093.0" type="curve" smooth="yes"/>
      <point x="411.625" y="1093.0"/>
      <point x="320.25" y="1018.0"/>
      <point x="320.25" y="919.5" type="curve" smooth="yes"/>
      <point x="320.25" y="847.0"/>
      <point x="375.5" y="794.5"/>
      <point x="455.5" y="794.5" type="curve" smooth="yes"/>
      <point x="558.75" y="794.5"/>
      <point x="651.125" y="865.125"/>
      <point x="651.125" y="970.125" type="curve" smooth="yes"/>
      <point x="651.125" y="1039.5"/>
      <point x="599.5" y="1093.0"/>
    </contour>
  </outline>
</glyph>
<glyph name="cent" format="2">
  <advance width="1026.0"/>
  <unicode hex="00A2"/>
  <anchor x="389.875" y="119.125" name="bottom"/>
  <anchor x="638.280625" y="1182.125" name="top"/>
  <outline>
    <contour>
      <point x="774.75" y="1318.0" type="curve"/>
      <point x="654.25" y="991.875"/>
      <point x="367.125" y="365.625"/>
      <point x="178.25" y="15.875" type="curve"/>
      <point x="205.875" y="0.125"/>
      <point x="254.5" y="-12.625"/>
      <point x="298.125" y="-17.0" type="curve"/>
      <point x="428.125" y="211.375"/>
      <point x="756.375" y="939.5"/>
      <point x="881.75" y="1303.375" type="curve"/>
      <point x="867.75" y="1311.0"/>
      <point x="811.0" y="1318.0"/>
    </contour>
    <component base="c" xOffset="-10.625" yOffset="119.125"/>
  </outline>
</glyph>
<glyph name="sterling" format="2">
  <advance width="1140.0"/>
  <unicode hex="00A3"/>
  <outline>
    <contour>
      <point x="218.0" y="569.375" type="curve" smooth="yes"/>
      <point x="398.25" y="569.375"/>
      <point x="723.375" y="587.625"/>
      <point x="818.0" y="613.625" type="curve"/>
      <point x="827.75" y="649.0"/>
      <point x="846.375" y="732.0"/>
      <point x="848.625" y="760.0" type="curve"/>
      <point x="753.0" y="740.75"/>
      <point x="434.875" y="722.5"/>
      <point x="250.5" y="722.5" type="curve" smooth="yes"/>
      <point x="203.875" y="722.5"/>
      <point x="165.625" y="723.5"/>
      <point x="137.5" y="725.875" type="curve"/>
      <point x="93.625" y="575.375" type="line"/>
      <point x="116.0" y="571.375"/>
      <point x="160.25" y="569.375"/>
    </contour>
    <component base="sterlira"/>
  </outline>
</glyph>
<glyph name="currency" format="2">
  <advance width="974.0"/>
  <unicode hex="00A4"/>
  <outline>
    <contour>
      <point x="30.625" y="78.25" type="curve"/>
      <point x="114.25" y="146.375"/>
      <point x="274.375" y="292.0"/>
      <point x="327.375" y="339.375" type="curve"/>
      <point x="227.875" y="421.125" type="line"/>
      <point x="137.375" y="352.625"/>
      <point x="19.875" y="260.125"/>
      <point x="-62.25" y="190.875" type="curve"/>
      <point x="-45.125" y="166.375"/>
      <point x="13.625" y="100.5"/>
    </contour>
    <contour>
      <point x="690.375" y="101.625" type="curve"/>
      <point x="727.0" y="126.125"/>
      <point x="797.875" y="186.75"/>
      <point x="822.125" y="214.0" type="curve"/>
      <point x="782.5" y="260.125"/>
      <point x="724.375" y="338.25"/>
      <point x="675.75" y="394.375" type="curve"/>
      <point x="548.0" y="309.0" type="line"/>
      <point x="580.125" y="275.875"/>
      <point x="640.625" y="171.375"/>
    </contour>
    <contour>
      <point x="293.5" y="678.5" type="curve"/>
      <point x="415.0" y="781.0" type="line"/>
      <point x="378.625" y="855.75"/>
      <point x="319.75" y="948.375"/>
      <point x="273.0" y="1001.125" type="curve"/>
      <point x="239.375" y="981.125"/>
      <point x="152.0" y="915.875"/>
      <point x="130.0" y="895.75" type="curve"/>
      <point x="176.625" y="827.625"/>
      <point x="236.0" y="744.0"/>
    </contour>
    <contour>
      <point x="747.125" y="684.125" type="line"/>
      <point x="828.875" y="739.625"/>
      <point x="923.625" y="812.625"/>
      <point x="1015.75" y="884.5" type="curve"/>
      <point x="1004.875" y="907.125"/>
      <point x="953.875" y="979.125"/>
      <point x="936.75" y="997.625" type="curve"/>
      <point x="844.625" y="923.0"/>
      <point x="744.5" y="841.375"/>
      <point x="672.75" y="783.125" type="curve"/>
    </contour>
    <component base="degree" xOffset="-126.0" yOffset="-656.0"/>
  </outline>
</glyph>
<glyph name="yen" format="2">
  <advance width="1065.0"/>
  <unicode hex="00A5"/>
  <anchor x="402.25" y="0.0" name="bottom"/>
  <anchor x="748.25" y="1291.0" name="top"/>
  <anchor x="235.25" y="1291.0" name="topleft"/>
  <outline>
    <contour>
      <point x="122.875" y="488.0" type="curve"/>
      <point x="232.5" y="490.625"/>
      <point x="828.875" y="499.625"/>
      <point x="922.875" y="499.625" type="curve"/>
      <point x="932.125" y="534.5"/>
      <point x="938.625" y="583.125"/>
      <point x="942.375" y="627.875" type="curve"/>
      <point x="865.625" y="637.875"/>
      <point x="746.75" y="642.25"/>
      <point x="614.125" y="642.25" type="curve" smooth="yes"/>
      <point x="442.875" y="642.25"/>
      <point x="323.875" y="637.25"/>
      <point x="179.0" y="626.875" type="curve"/>
      <point x="166.75" y="602.75"/>
      <point x="136.0" y="534.25"/>
    </contour>
    <contour>
      <point x="859.0" y="250.5" type="curve"/>
      <point x="871.75" y="291.0"/>
      <point x="881.0" y="345.75"/>
      <point x="886.0" y="377.25" type="curve"/>
      <point x="807.125" y="381.875"/>
      <point x="697.25" y="384.75"/>
      <point x="582.375" y="384.75" type="curve" smooth="yes"/>
      <point x="386.625" y="384.75"/>
      <point x="239.875" y="380.875"/>
      <point x="95.625" y="371.625" type="curve"/>
      <point x="76.125" y="332.625"/>
      <point x="58.125" y="291.875"/>
      <point x="47.375" y="251.75" type="curve"/>
      <point x="142.0" y="253.0"/>
      <point x="754.25" y="251.625"/>
    </contour>
    <component base="Y" xOffset="-8.75"/>
  </outline>
</glyph>
<glyph name="brokenbar" format="2">
  <advance width="432.0"/>
  <unicode hex="00A6"/>
  <outline>
    <contour>
      <point x="50.125" y="272.125" type="curve"/>
      <point x="6.5" y="110.25"/>
      <point x="-99.375" y="-350.875"/>
      <point x="-122.125" y="-467.375" type="curve"/>
      <point x="-81.25" y="-467.375"/>
      <point x="8.5" y="-462.5"/>
      <point x="37.875" y="-453.375" type="curve"/>
      <point x="61.5" y="-344.625"/>
      <point x="196.25" y="174.0"/>
      <point x="223.25" y="277.0" type="curve"/>
      <point x="173.625" y="277.0"/>
      <point x="102.375" y="275.875"/>
    </contour>
    <contour>
      <point x="176.625" y="719.125" type="curve"/>
      <point x="195.625" y="717.625"/>
      <point x="281.0" y="715.0"/>
      <point x="349.875" y="716.875" type="curve"/>
      <point x="384.75" y="852.0"/>
      <point x="517.5" y="1329.0"/>
      <point x="565.375" y="1485.25" type="curve"/>
      <point x="539.25" y="1498.625"/>
      <point x="464.5" y="1502.0"/>
      <point x="418.75" y="1502.0" type="curve"/>
      <point x="369.875" y="1363.5"/>
      <point x="248.625" y="988.0"/>
    </contour>
  </outline>
</glyph>
<glyph name="section" format="2">
  <advance width="1000.0"/>
  <unicode hex="00A7"/>
  <outline>
    <contour>
      <point x="578.125" y="731.125" type="curve"/>
      <point x="453.625" y="828.25" type="line"/>
      <point x="277.375" y="787.0"/>
      <point x="123.875" y="688.875"/>
      <point x="123.875" y="512.5" type="curve" smooth="yes"/>
      <point x="123.875" y="371.75"/>
      <point x="245.0" y="298.875"/>
      <point x="398.125" y="240.25" type="curve" smooth="yes"/>
      <point x="542.625" y="184.25"/>
      <point x="617.75" y="131.375"/>
      <point x="617.75" y="38.875" type="curve" smooth="yes"/>
      <point x="617.75" y="-99.5"/>
      <point x="475.375" y="-182.0"/>
      <point x="327.0" y="-182.0" type="curve" smooth="yes"/>
      <point x="187.25" y="-182.0"/>
      <point x="41.0" y="-100.75"/>
      <point x="-25.25" y="-7.0" type="curve"/>
      <point x="-65.5" y="-34.75"/>
      <point x="-140.375" y="-120.375"/>
      <point x="-168.375" y="-160.75" type="curve"/>
      <point x="-94.625" y="-266.125"/>
      <point x="109.125" y="-350.25"/>
      <point x="301.0" y="-350.25" type="curve" smooth="yes"/>
      <point x="562.875" y="-350.25"/>
      <point x="800.25" y="-194.5"/>
      <point x="800.25" y="56.0" type="curve" smooth="yes"/>
      <point x="800.25" y="201.5"/>
      <point x="701.0" y="309.625"/>
      <point x="516.625" y="372.375" type="curve" smooth="yes"/>
      <point x="398.625" y="414.625"/>
      <point x="313.875" y="472.375"/>
      <point x="313.875" y="550.0" type="curve" smooth="yes"/>
      <point x="313.875" y="661.75"/>
      <point x="467.0" y="722.625"/>
    </contour>
    <contour>
      <point x="564.125" y="323.375" type="curve"/>
      <point x="643.5" y="202.625" type="line"/>
      <point x="813.5" y="269.625"/>
      <point x="960.25" y="390.125"/>
      <point x="960.25" y="567.875" type="curve" smooth="yes"/>
      <point x="960.25" y="715.125"/>
      <point x="840.0" y="807.5"/>
      <point x="657.875" y="874.0" type="curve" smooth="yes"/>
      <point x="542.625" y="917.875"/>
      <point x="462.875" y="967.75"/>
      <point x="462.875" y="1042.25" type="curve" smooth="yes"/>
      <point x="462.875" y="1154.625"/>
      <point x="591.5" y="1198.625"/>
      <point x="717.5" y="1198.625" type="curve" smooth="yes"/>
      <point x="823.25" y="1198.625"/>
      <point x="920.625" y="1154.5"/>
      <point x="974.25" y="1112.625" type="curve"/>
      <point x="1023.25" y="1157.25"/>
      <point x="1077.875" y="1232.0"/>
      <point x="1092.25" y="1252.75" type="curve"/>
      <point x="1028.875" y="1304.375"/>
      <point x="888.875" y="1357.875"/>
      <point x="731.75" y="1357.875" type="curve" smooth="yes"/>
      <point x="488.375" y="1357.875"/>
      <point x="282.125" y="1239.25"/>
      <point x="282.125" y="1001.25" type="curve" smooth="yes"/>
      <point x="282.125" y="863.25"/>
      <point x="375.75" y="799.75"/>
      <point x="525.875" y="741.875" type="curve" smooth="yes"/>
      <point x="668.75" y="686.875"/>
      <point x="777.125" y="633.75"/>
      <point x="777.125" y="547.625" type="curve" smooth="yes"/>
      <point x="777.125" y="447.125"/>
      <point x="668.75" y="356.0"/>
    </contour>
  </outline>
</glyph>
<glyph name="copyright" format="2">
  <advance width="1745.0"/>
  <unicode hex="00A9"/>
  <outline>
    <contour>
      <point x="750.375" y="-68.0" type="curve" smooth="yes"/>
      <point x="1289.875" y="-68.0"/>
      <point x="1691.25" y="276.75"/>
      <point x="1691.25" y="808.875" type="curve" smooth="yes"/>
      <point x="1691.25" y="1143.5"/>
      <point x="1467.0" y="1350.0"/>
      <point x="1079.875" y="1350.0" type="curve" smooth="yes"/>
      <point x="511.0" y="1350.0"/>
      <point x="94.125" y="1003.375"/>
      <point x="94.125" y="452.625" type="curve" smooth="yes"/>
      <point x="94.125" y="137.625"/>
      <point x="332.75" y="-68.0"/>
    </contour>
    <contour>
      <point x="765.375" y="85.125" type="curve" smooth="yes"/>
      <point x="490.125" y="85.125"/>
      <point x="299.625" y="226.625"/>
      <point x="299.625" y="495.25" type="curve" smooth="yes"/>
      <point x="299.625" y="903.75"/>
      <point x="628.25" y="1203.0"/>
      <point x="1043.0" y="1203.0" type="curve" smooth="yes"/>
      <point x="1343.25" y="1203.0"/>
      <point x="1500.0" y="1051.375"/>
      <point x="1500.0" y="795.5" type="curve" smooth="yes"/>
      <point x="1500.0" y="364.0"/>
      <point x="1194.0" y="85.125"/>
    </contour>
    <contour>
      <point x="818.75" y="283.75" type="curve" smooth="yes"/>
      <point x="971.75" y="283.75"/>
      <point x="1128.0" y="357.75"/>
      <point x="1231.25" y="494.75" type="curve"/>
      <point x="1206.875" y="523.875"/>
      <point x="1164.875" y="561.125"/>
      <point x="1131.125" y="581.0" type="curve"/>
      <point x="1066.125" y="511.0"/>
      <point x="972.25" y="437.125"/>
      <point x="859.75" y="437.125" type="curve" smooth="yes"/>
      <point x="786.375" y="437.125"/>
      <point x="693.875" y="456.875"/>
      <point x="693.875" y="571.0" type="curve" smooth="yes"/>
      <point x="693.875" y="723.625"/>
      <point x="830.0" y="846.75"/>
      <point x="983.875" y="846.75" type="curve" smooth="yes"/>
      <point x="1074.625" y="846.75"/>
      <point x="1139.5" y="815.625"/>
      <point x="1152.5" y="784.75" type="curve"/>
      <point x="1185.125" y="810.625"/>
      <point x="1234.0" y="855.625"/>
      <point x="1276.625" y="900.75" type="curve"/>
      <point x="1240.625" y="959.75"/>
      <point x="1144.75" y="988.75"/>
      <point x="1032.125" y="988.75" type="curve" smooth="yes"/>
      <point x="767.125" y="988.75"/>
      <point x="537.625" y="797.625"/>
      <point x="537.625" y="534.25" type="curve" smooth="yes"/>
      <point x="537.625" y="377.75"/>
      <point x="635.0" y="283.75"/>
    </contour>
  </outline>
</glyph>
<glyph name="ordfeminine" format="2">
  <advance width="750.0"/>
  <unicode hex="00AA"/>
  <outline>
    <contour>
      <point x="602.625" y="715.75" type="curve"/>
      <point x="622.25" y="712.25"/>
      <point x="665.625" y="710.25"/>
      <point x="696.625" y="710.25" type="curve" smooth="yes"/>
      <point x="708.75" y="710.25"/>
      <point x="735.375" y="710.875"/>
      <point x="739.875" y="711.875" type="curve"/>
      <point x="800.75" y="860.625"/>
      <point x="866.875" y="1050.25"/>
      <point x="866.875" y="1182.125" type="curve" smooth="yes"/>
      <point x="866.875" y="1333.875"/>
      <point x="787.75" y="1422.375"/>
      <point x="594.25" y="1422.375" type="curve" smooth="yes"/>
      <point x="450.75" y="1422.375"/>
      <point x="332.75" y="1370.125"/>
      <point x="250.5" y="1300.75" type="curve"/>
      <point x="325.25" y="1206.625" type="line"/>
      <point x="376.625" y="1254.625"/>
      <point x="465.5" y="1295.125"/>
      <point x="564.375" y="1295.125" type="curve" smooth="yes"/>
      <point x="666.75" y="1295.125"/>
      <point x="733.875" y="1251.5"/>
      <point x="733.875" y="1158.375" type="curve" smooth="yes"/>
      <point x="733.875" y="1147.125"/>
      <point x="732.875" y="1135.25"/>
      <point x="730.625" y="1122.75" type="curve"/>
      <point x="715.125" y="1134.125"/>
      <point x="592.0" y="1151.125"/>
      <point x="533.75" y="1151.125" type="curve" smooth="yes"/>
      <point x="352.0" y="1151.125"/>
      <point x="150.5" y="1071.75"/>
      <point x="150.5" y="895.75" type="curve" smooth="yes"/>
      <point x="150.5" y="773.125"/>
      <point x="247.0" y="720.875"/>
      <point x="397.75" y="720.875" type="curve" smooth="yes"/>
      <point x="484.5" y="720.875"/>
      <point x="591.375" y="761.625"/>
      <point x="638.5" y="799.375" type="curve"/>
      <point x="629.375" y="777.875"/>
      <point x="608.125" y="728.25"/>
    </contour>
    <contour>
      <point x="449.125" y="836.625" type="curve" smooth="yes"/>
      <point x="360.625" y="836.625"/>
      <point x="306.0" y="854.0"/>
      <point x="306.0" y="911.0" type="curve" smooth="yes"/>
      <point x="306.0" y="1006.5"/>
      <point x="423.0" y="1050.125"/>
      <point x="524.875" y="1050.125" type="curve" smooth="yes"/>
      <point x="594.75" y="1050.125"/>
      <point x="686.5" y="1036.125"/>
      <point x="706.5" y="1029.5" type="curve"/>
      <point x="704.0" y="1014.5"/>
      <point x="700.375" y="996.25"/>
      <point x="696.5" y="981.625" type="curve" smooth="yes"/>
      <point x="691.75" y="963.375"/>
      <point x="685.375" y="943.0"/>
      <point x="675.375" y="915.0" type="curve"/>
      <point x="618.875" y="870.375"/>
      <point x="530.5" y="836.625"/>
    </contour>
  </outline>
</glyph>
<glyph name="guillemetleft" format="2">
  <advance width="1214.0"/>
  <unicode hex="00AB"/>
  <outline>
    <contour>
      <point x="1259.25" y="1135.0" type="curve"/>
      <point x="1048.875" y="987.25"/>
      <point x="806.125" y="790.25"/>
      <point x="560.75" y="571.5" type="curve"/>
      <point x="998.625" y="158.125" type="line"/>
      <point x="1009.75" y="165.0"/>
      <point x="1079.75" y="286.75"/>
      <point x="1088.625" y="330.75" type="curve"/>
      <point x="1049.0" y="373.25"/>
      <point x="881.125" y="506.375"/>
      <point x="766.375" y="595.125" type="curve"/>
      <point x="1317.375" y="1014.625" type="line"/>
      <point x="1311.75" y="1033.0"/>
      <point x="1296.375" y="1102.125"/>
    </contour>
    <contour>
      <point x="765.25" y="1120.375" type="curve"/>
      <point x="528.75" y="924.875"/>
      <point x="298.875" y="717.375"/>
      <point x="91.375" y="523.125" type="curve"/>
      <point x="224.625" y="331.875"/>
      <point x="389.75" y="155.25"/>
      <point x="567.0" y="0.0" type="curve"/>
      <point x="570.125" y="3.125"/>
      <point x="643.75" y="103.0"/>
      <point x="668.125" y="148.875" type="curve"/>
      <point x="643.875" y="164.625"/>
      <point x="436.875" y="379.625"/>
      <point x="287.0" y="537.25" type="curve"/>
      <point x="852.125" y="1021.75" type="line"/>
      <point x="836.75" y="1041.0"/>
      <point x="797.25" y="1091.25"/>
    </contour>
  </outline>
</glyph>
<glyph name="logicalnot" format="2">
  <advance width="1000.0"/>
  <unicode hex="00AC"/>
  <outline>
    <contour>
      <point x="964.875" y="798.375" type="curve"/>
      <point x="843.5" y="798.375"/>
      <point x="271.625" y="781.25"/>
      <point x="132.875" y="772.75" type="curve"/>
      <point x="121.0" y="729.625"/>
      <point x="103.125" y="657.125"/>
      <point x="94.375" y="616.5" type="curve"/>
      <point x="199.75" y="618.0"/>
      <point x="646.875" y="632.625"/>
      <point x="765.875" y="639.5" type="curve"/>
      <point x="747.75" y="579.5"/>
      <point x="679.375" y="368.125"/>
      <point x="656.25" y="291.5" type="curve"/>
      <point x="684.625" y="290.0"/>
      <point x="775.875" y="290.625"/>
      <point x="807.125" y="293.75" type="curve"/>
      <point x="860.75" y="458.25"/>
      <point x="951.25" y="753.5"/>
    </contour>
  </outline>
</glyph>
<glyph name="softhyphen" format="2">
  <advance width="719.125"/>
  <unicode hex="00AD"/>
  <outline>
    <contour>
      <point x="727.5" y="772.75" type="curve"/>
      <point x="672.625" y="779.25"/>
      <point x="585.0" y="781.125"/>
      <point x="476.5" y="781.125" type="curve" smooth="yes"/>
      <point x="341.375" y="781.125"/>
      <point x="212.125" y="769.125"/>
      <point x="113.625" y="756.75" type="curve"/>
      <point x="101.625" y="725.0"/>
      <point x="71.75" y="631.375"/>
      <point x="61.5" y="585.875" type="curve"/>
      <point x="201.625" y="597.25"/>
      <point x="543.5" y="608.375"/>
      <point x="689.875" y="608.375" type="curve"/>
      <point x="702.0" y="652.25"/>
      <point x="721.125" y="721.875"/>
    </contour>
  </outline>
</glyph>
<glyph name="registered" format="2">
  <advance width="1400.0"/>
  <unicode hex="00AE"/>
  <outline>
    <contour>
      <point x="679.25" y="267.5" type="curve" smooth="yes"/>
      <point x="1099.875" y="267.5"/>
      <point x="1377.875" y="508.625"/>
      <point x="1377.875" y="915.0" type="curve" smooth="yes"/>
      <point x="1377.875" y="1173.375"/>
      <point x="1191.75" y="1321.0"/>
      <point x="906.25" y="1321.0" type="curve" smooth="yes"/>
      <point x="499.5" y="1321.0"/>
      <point x="173.0" y="1059.875"/>
      <point x="173.0" y="666.25" type="curve" smooth="yes"/>
      <point x="173.0" y="416.25"/>
      <point x="379.375" y="267.5"/>
    </contour>
    <contour>
      <point x="685.5" y="390.25" type="curve" smooth="yes"/>
      <point x="493.0" y="390.25"/>
      <point x="333.375" y="473.5"/>
      <point x="333.375" y="685.125" type="curve" smooth="yes"/>
      <point x="333.375" y="985.625"/>
      <point x="582.375" y="1201.125"/>
      <point x="887.25" y="1201.125" type="curve" smooth="yes"/>
      <point x="1109.375" y="1201.125"/>
      <point x="1217.0" y="1074.125"/>
      <point x="1217.0" y="904.5" type="curve" smooth="yes"/>
      <point x="1217.0" y="588.625"/>
      <point x="1008.875" y="390.25"/>
    </contour>
    <contour>
      <point x="663.25" y="522.875" type="curve"/>
      <point x="676.875" y="568.75"/>
      <point x="722.5" y="734.125"/>
      <point x="728.75" y="766.5" type="curve"/>
      <point x="734.375" y="766.25"/>
      <point x="747.125" y="766.625"/>
      <point x="757.375" y="766.625" type="curve"/>
      <point x="776.125" y="682.625"/>
      <point x="792.375" y="598.75"/>
      <point x="814.25" y="522.875" type="curve"/>
      <point x="864.0" y="522.875"/>
      <point x="913.25" y="531.25"/>
      <point x="943.125" y="544.0" type="curve"/>
      <point x="930.625" y="585.125"/>
      <point x="886.5" y="739.375"/>
      <point x="862.75" y="797.875" type="curve"/>
      <point x="950.375" y="819.75"/>
      <point x="1029.75" y="881.875"/>
      <point x="1029.75" y="965.625" type="curve" smooth="yes"/>
      <point x="1029.75" y="1046.25"/>
      <point x="938.625" y="1071.25"/>
      <point x="847.0" y="1071.25" type="curve" smooth="yes"/>
      <point x="778.375" y="1071.25"/>
      <point x="714.375" y="1058.625"/>
      <point x="676.75" y="1040.375" type="curve"/>
      <point x="648.75" y="942.0"/>
      <point x="573.5" y="662.75"/>
      <point x="541.125" y="542.375" type="curve"/>
      <point x="571.375" y="530.75"/>
      <point x="618.25" y="522.875"/>
    </contour>
    <contour>
      <point x="746.375" y="854.375" type="curve"/>
      <point x="751.0" y="871.25"/>
      <point x="769.125" y="961.125"/>
      <point x="771.375" y="975.5" type="curve"/>
      <point x="788.375" y="978.125"/>
      <point x="814.125" y="980.375"/>
      <point x="838.5" y="980.375" type="curve" smooth="yes"/>
      <point x="875.125" y="980.375"/>
      <point x="908.625" y="974.25"/>
      <point x="908.625" y="948.125" type="curve" smooth="yes"/>
      <point x="908.625" y="883.125"/>
      <point x="827.875" y="854.375"/>
    </contour>
  </outline>
</glyph>
<glyph name="degree" format="2">
  <advance width="814.0"/>
  <unicode hex="00B0"/>
  <outline>
    <contour>
      <point x="515.25" y="894.375" type="curve" smooth="yes"/>
      <point x="729.75" y="894.375"/>
      <point x="934.0" y="1070.875"/>
      <point x="934.0" y="1277.625" type="curve" smooth="yes"/>
      <point x="934.0" y="1414.75"/>
      <point x="820.5" y="1505.625"/>
      <point x="654.75" y="1505.625" type="curve" smooth="yes"/>
      <point x="443.25" y="1505.625"/>
      <point x="243.625" y="1351.5"/>
      <point x="243.625" y="1142.375" type="curve" smooth="yes"/>
      <point x="243.625" y="998.75"/>
      <point x="353.25" y="894.375"/>
    </contour>
    <contour>
      <point x="539.625" y="1038.125" type="curve" smooth="yes"/>
      <point x="455.0" y="1038.125"/>
      <point x="409.75" y="1084.125"/>
      <point x="409.75" y="1159.5" type="curve" smooth="yes"/>
      <point x="409.75" y="1272.5"/>
      <point x="512.375" y="1361.875"/>
      <point x="621.625" y="1361.875" type="curve" smooth="yes"/>
      <point x="723.125" y="1361.875"/>
      <point x="763.5" y="1314.0"/>
      <point x="763.5" y="1246.5" type="curve" smooth="yes"/>
      <point x="763.5" y="1131.875"/>
      <point x="653.375" y="1038.125"/>
    </contour>
  </outline>
</glyph>
<glyph name="twosuperior" format="2">
  <advance width="737.625"/>
  <unicode hex="00B2"/>
  <outline>
    <contour>
      <point x="697.5" y="662.0" type="curve"/>
      <point x="604.875" y="657.5"/>
      <point x="402.375" y="643.5"/>
      <point x="339.625" y="636.125" type="curve"/>
      <point x="416.25" y="692.5"/>
      <point x="509.875" y="766.375"/>
      <point x="594.75" y="845.875" type="curve" smooth="yes"/>
      <point x="716.0" y="959.0"/>
      <point x="809.375" y="1077.375"/>
      <point x="809.375" y="1174.5" type="curve" smooth="yes"/>
      <point x="809.375" y="1262.875"/>
      <point x="729.0" y="1318.125"/>
      <point x="612.25" y="1318.125" type="curve" smooth="yes"/>
      <point x="462.5" y="1318.125"/>
      <point x="320.25" y="1234.5"/>
      <point x="223.125" y="1114.125" type="curve"/>
      <point x="242.375" y="1091.0"/>
      <point x="288.875" y="1047.375"/>
      <point x="317.5" y="1031.0" type="curve"/>
      <point x="373.5" y="1102.5"/>
      <point x="464.375" y="1166.75"/>
      <point x="563.75" y="1166.75" type="curve" smooth="yes"/>
      <point x="613.5" y="1166.75"/>
      <point x="650.5" y="1149.375"/>
      <point x="650.5" y="1109.875" type="curve" smooth="yes"/>
      <point x="650.5" y="1044.75"/>
      <point x="532.625" y="944.0"/>
      <point x="402.125" y="838.25" type="curve" smooth="yes"/>
      <point x="293.25" y="755.75"/>
      <point x="191.625" y="680.75"/>
      <point x="110.875" y="623.5" type="curve"/>
      <point x="101.875" y="584.375"/>
      <point x="99.25" y="507.5"/>
      <point x="99.25" y="490.0" type="curve"/>
      <point x="660.875" y="516.0" type="line"/>
      <point x="668.0" y="535.75"/>
      <point x="694.875" y="633.375"/>
    </contour>
  </outline>
</glyph>
